M48
;DRILL file {kicad (2014-09-08 BZR 5122)-product} date Wed 17 Dec 2014 07:36:18 PM CET
;FORMAT={-:-/ absolute / metric / decimal}
FMAT,2
METRIC,TZ
T1C0.300
T2C0.998
T3C1.016
T4C3.200
%
G90
G05
M71
T1
X10.922Y13.97
X10.922Y11.43
X10.922Y6.35
X13.208Y2.413
X17.399Y26.67
X17.78Y37.465
X17.78Y27.559
X18.161Y26.67
X19.812Y10.795
X20.701Y13.081
X21.336Y7.239
X21.336Y1.016
X21.844Y34.036
X24.384Y35.56
X24.384Y26.67
X25.146Y15.875
X25.654Y22.606
X27.622Y30.48
X27.622Y29.21
X27.622Y26.67
X29.972Y21.336
X29.972Y19.304
X31.242Y30.353
X31.293Y23.825
X34.925Y29.591
X35.865Y28.397
X36.449Y17.653
X36.449Y16.51
X36.449Y3.81
X38.227Y16.447
X38.735Y12.446
X40.132Y16.447
X41.656Y22.225
X42.418Y22.352
X44.45Y14.986
X45.085Y22.225
X45.085Y20.32
X45.085Y18.415
X45.212Y15.875
X45.212Y12.065
X45.974Y28.067
X45.974Y21.336
X45.974Y19.304
X46.99Y22.225
X46.99Y20.32
X46.99Y18.415
X47.117Y25.908
X48.006Y21.336
X48.006Y19.304
X48.895Y22.225
X48.895Y20.32
X48.895Y18.415
X51.181Y24.892
X53.975Y21.59
X53.975Y20.193
X54.991Y36.83
X62.23Y11.049
T2
X3.81Y31.75
X3.81Y29.21
X3.81Y26.67
X3.81Y24.13
X3.81Y21.59
X3.81Y19.05
X3.81Y16.51
X3.81Y13.97
X3.81Y11.43
X3.81Y8.89
X40.64Y36.83
X40.64Y34.29
X40.64Y6.35
X40.64Y3.81
X43.18Y36.83
X43.18Y34.29
X43.18Y6.35
X43.18Y3.81
X45.72Y36.83
X45.72Y34.29
X45.72Y6.35
X45.72Y3.81
X48.26Y36.83
X48.26Y34.29
X48.26Y6.35
X48.26Y3.81
X50.8Y36.83
X50.8Y34.29
X50.8Y6.35
X50.8Y3.81
X59.69Y25.4
X59.69Y22.86
X59.69Y20.32
X59.69Y17.78
X59.69Y15.24
X62.23Y25.4
X62.23Y22.86
X62.23Y20.32
X62.23Y17.78
X62.23Y15.24
T3
X25.4Y6.35
X25.4Y3.81
X27.94Y6.35
X27.94Y3.81
X30.48Y6.35
X30.48Y3.81
T4
X3.81Y36.83
X3.81Y3.81
X62.23Y36.83
X62.23Y3.81
T0
M30
