%TF.FileFunction,Copper,L2,Bot,Signal*%
%FSLAX46Y46*%
G04 Gerber Fmt 4.6, Leading zero omitted, Abs format (unit mm)*
G04 Created by KiCad (PCBNEW (2014-09-08 BZR 5122)-product) date Wed 17 Dec 2014 07:33:54 PM CET*
%MOMM*%
G01*
G04 APERTURE LIST*
%ADD10C,0.020000*%
%ADD11C,0.100000*%
%ADD12R,1.727200X1.727200*%
%ADD13O,1.727200X1.727200*%
%ADD14C,1.506220*%
%ADD15C,5.000000*%
%ADD16R,0.635000X1.143000*%
%ADD17R,1.143000X0.635000*%
%ADD18O,3.014980X1.506220*%
%ADD19C,0.400000*%
%ADD20R,1.000000X1.000000*%
%ADD21C,0.600000*%
%ADD22C,0.300000*%
%ADD23C,0.150000*%
%ADD24C,0.254000*%
G04 APERTURE END LIST*
D10*
D11*
X66040000Y0D02*
X0Y0D01*
X0Y40640000D02*
X66040000Y40640000D01*
X0Y40640000D02*
X0Y0D01*
X66040000Y0D02*
X66040000Y40640000D01*
D12*
X25400000Y3810000D03*
D13*
X25400000Y6350000D03*
X27940000Y3810000D03*
X27940000Y6350000D03*
X30480000Y3810000D03*
X30480000Y6350000D03*
D14*
X40640000Y3810000D03*
X40640000Y6350000D03*
X43180000Y3810000D03*
X43180000Y6350000D03*
X45720000Y3810000D03*
X45720000Y6350000D03*
X48260000Y3810000D03*
X48260000Y6350000D03*
X50800000Y3810000D03*
X50800000Y6350000D03*
X62230000Y15240000D03*
X59690000Y15240000D03*
X62230000Y17780000D03*
X59690000Y17780000D03*
X62230000Y20320000D03*
X59690000Y20320000D03*
X62230000Y22860000D03*
X59690000Y22860000D03*
X62230000Y25400000D03*
X59690000Y25400000D03*
X50800000Y36830000D03*
X50800000Y34290000D03*
X48260000Y36830000D03*
X48260000Y34290000D03*
X45720000Y36830000D03*
X45720000Y34290000D03*
X43180000Y36830000D03*
X43180000Y34290000D03*
X40640000Y36830000D03*
X40640000Y34290000D03*
D15*
X3810000Y36830000D03*
X3810000Y3810000D03*
X62230000Y3810000D03*
X62230000Y36830000D03*
D16*
X38862000Y3810000D03*
X37338000Y3810000D03*
D17*
X62230000Y13462000D03*
X62230000Y11938000D03*
D16*
X52578000Y36830000D03*
X54102000Y36830000D03*
D18*
X3810000Y26670000D03*
X3810000Y24130000D03*
X3810000Y21590000D03*
X3810000Y19050000D03*
X3810000Y16510000D03*
X3810000Y13970000D03*
X3810000Y11430000D03*
X3810000Y8890000D03*
X3810000Y31750000D03*
X3810000Y29210000D03*
D19*
X46990000Y18415000D03*
X45085000Y18415000D03*
X48895000Y18415000D03*
X48895000Y20320000D03*
X46990000Y20320000D03*
X45085000Y20320000D03*
X45085000Y22225000D03*
X48895000Y22225000D03*
X46990000Y22225000D03*
X48006000Y19304000D03*
X48006000Y21336000D03*
X45974000Y21336000D03*
X45974000Y19304000D03*
D20*
X43180000Y15860000D03*
X43180000Y17160000D03*
X41656000Y15860000D03*
X41656000Y17160000D03*
X43180000Y23480000D03*
X43180000Y24780000D03*
X41656000Y23480000D03*
X41656000Y24780000D03*
D21*
X54991000Y36830000D03*
X62230000Y11049000D03*
X36449000Y3810000D03*
X21336000Y1016000D03*
X13208000Y2413000D03*
X20701000Y13081000D03*
X45212000Y12065000D03*
X27622500Y29210000D03*
X27622500Y26670000D03*
X17780000Y27559000D03*
X17399000Y26670000D03*
X18161000Y26670000D03*
X27622500Y30480000D03*
X21844000Y34036000D03*
X38227000Y16446500D03*
X40132000Y16446500D03*
X17780000Y37465000D03*
X25146000Y15875000D03*
X24384000Y26670000D03*
X34925000Y29591000D03*
X35864800Y28397200D03*
X31292800Y23825200D03*
X29972000Y21336000D03*
X29972000Y19304000D03*
X25654000Y22606000D03*
X45974000Y28067000D03*
X53975000Y20193000D03*
X31242000Y30353000D03*
X24384000Y35560000D03*
X42418000Y22352000D03*
X41656000Y22225000D03*
X45212000Y15875000D03*
X44450000Y14986000D03*
X21336000Y7239000D03*
X19812000Y10795000D03*
X10922000Y11430000D03*
X10922000Y6350000D03*
X10922000Y13970000D03*
X36449000Y17653000D03*
X38735000Y12446000D03*
X36449000Y16510000D03*
X47117000Y25908000D03*
X53975000Y21590000D03*
X51181000Y24892000D03*
D22*
X54102000Y36830000D02*
X54991000Y36830000D01*
X62230000Y11938000D02*
X62230000Y11049000D01*
X37338000Y3810000D02*
X36449000Y3810000D01*
X31242000Y30353000D02*
X31242000Y32639000D01*
X31242000Y32639000D02*
X28321000Y35560000D01*
X28321000Y35560000D02*
X24384000Y35560000D01*
D23*
X42418000Y22352000D02*
X43180000Y23114000D01*
X43180000Y23114000D02*
X43180000Y23480000D01*
X41656000Y22225000D02*
X41656000Y23480000D01*
X43180000Y15860000D02*
X45197000Y15860000D01*
X45197000Y15860000D02*
X45212000Y15875000D01*
X41656000Y15860000D02*
X41656000Y15367000D01*
X41656000Y15367000D02*
X42037000Y14986000D01*
X42037000Y14986000D02*
X44450000Y14986000D01*
D22*
X50800000Y36830000D02*
X52578000Y36830000D01*
X62230000Y15240000D02*
X62230000Y13462000D01*
X40640000Y3810000D02*
X38862000Y3810000D01*
X19812000Y10795000D02*
X21336000Y9271000D01*
X21336000Y9271000D02*
X21336000Y7239000D01*
X19177000Y11430000D02*
X10922000Y11430000D01*
X19812000Y10795000D02*
X19177000Y11430000D01*
X10922000Y6350000D02*
X10922000Y11430000D01*
X10922000Y11430000D02*
X10922000Y13970000D01*
X43434000Y18796000D02*
X44196000Y19558000D01*
X44196000Y19558000D02*
X44196000Y22606000D01*
X44196000Y22606000D02*
X44704000Y23114000D01*
X44704000Y23114000D02*
X47117000Y23114000D01*
X47117000Y25908000D02*
X47117000Y23114000D01*
X47117000Y23114000D02*
X50419000Y23114000D01*
X50419000Y23114000D02*
X51943000Y21590000D01*
X50419000Y24130000D02*
X50419000Y23114000D01*
X36449000Y16510000D02*
X36449000Y17653000D01*
X36449000Y12446000D02*
X31496000Y12446000D01*
X31496000Y12446000D02*
X25400000Y6350000D01*
X36449000Y12446000D02*
X36449000Y16510000D01*
X38735000Y12446000D02*
X36449000Y12446000D01*
X36449000Y17653000D02*
X37592000Y18796000D01*
X37592000Y18796000D02*
X43434000Y18796000D01*
X36449000Y16510000D02*
X36449000Y17653000D01*
X51943000Y21590000D02*
X53975000Y21590000D01*
X51181000Y24892000D02*
X50419000Y24130000D01*
D24*
G36*
X65463000Y577000D02*
X65365294Y577000D01*
X65365294Y3187892D01*
X65365294Y36207892D01*
X65364705Y37455072D01*
X64888564Y38604579D01*
X64465880Y38886275D01*
X64286275Y38706670D01*
X64286275Y39065880D01*
X64004579Y39488564D01*
X62852108Y39965294D01*
X61604928Y39964705D01*
X60455421Y39488564D01*
X60173725Y39065880D01*
X62230000Y37009605D01*
X64286275Y39065880D01*
X64286275Y38706670D01*
X62409605Y36830000D01*
X64465880Y34773725D01*
X64888564Y35055421D01*
X65365294Y36207892D01*
X65365294Y3187892D01*
X65364705Y4435072D01*
X64888564Y5584579D01*
X64465880Y5866275D01*
X64286275Y5686670D01*
X64286275Y6045880D01*
X64286275Y34594120D01*
X62230000Y36650395D01*
X62050395Y36470790D01*
X62050395Y36830000D01*
X59994120Y38886275D01*
X59571436Y38604579D01*
X59094706Y37452108D01*
X59095295Y36204928D01*
X59571436Y35055421D01*
X59994120Y34773725D01*
X62050395Y36830000D01*
X62050395Y36470790D01*
X60173725Y34594120D01*
X60455421Y34171436D01*
X61607892Y33694706D01*
X62855072Y33695295D01*
X64004579Y34171436D01*
X64286275Y34594120D01*
X64286275Y6045880D01*
X64004579Y6468564D01*
X63510332Y6673014D01*
X63510332Y15493513D01*
X63315857Y15964177D01*
X62956071Y16324592D01*
X62509039Y16510216D01*
X62954177Y16694143D01*
X63314592Y17053929D01*
X63509887Y17524253D01*
X63510332Y18033513D01*
X63315857Y18504177D01*
X62956071Y18864592D01*
X62509039Y19050216D01*
X62954177Y19234143D01*
X63314592Y19593929D01*
X63509887Y20064253D01*
X63510332Y20573513D01*
X63315857Y21044177D01*
X62956071Y21404592D01*
X62509039Y21590216D01*
X62954177Y21774143D01*
X63314592Y22133929D01*
X63509887Y22604253D01*
X63510332Y23113513D01*
X63315857Y23584177D01*
X62956071Y23944592D01*
X62509039Y24130216D01*
X62954177Y24314143D01*
X63314592Y24673929D01*
X63509887Y25144253D01*
X63510332Y25653513D01*
X63315857Y26124177D01*
X62956071Y26484592D01*
X62485747Y26679887D01*
X61976487Y26680332D01*
X61505823Y26485857D01*
X61145408Y26126071D01*
X61025015Y25836134D01*
X60905035Y26125793D01*
X60663772Y26194166D01*
X60484166Y26014561D01*
X60484166Y26373772D01*
X60415793Y26615035D01*
X59895572Y26800296D01*
X59344054Y26772373D01*
X58964207Y26615035D01*
X58895834Y26373772D01*
X59690000Y25579605D01*
X60484166Y26373772D01*
X60484166Y26014561D01*
X59869605Y25400000D01*
X60663772Y24605834D01*
X60905035Y24674207D01*
X61016028Y24985883D01*
X61144143Y24675823D01*
X61503929Y24315408D01*
X61950960Y24129785D01*
X61505823Y23945857D01*
X61145408Y23586071D01*
X60959784Y23139040D01*
X60775857Y23584177D01*
X60416071Y23944592D01*
X60126133Y24064985D01*
X60415793Y24184965D01*
X60484166Y24426228D01*
X59690000Y25220395D01*
X59510395Y25040790D01*
X59510395Y25400000D01*
X58716228Y26194166D01*
X58474965Y26125793D01*
X58289704Y25605572D01*
X58317627Y25054054D01*
X58474965Y24674207D01*
X58716228Y24605834D01*
X59510395Y25400000D01*
X59510395Y25040790D01*
X58895834Y24426228D01*
X58964207Y24184965D01*
X59275882Y24073972D01*
X58965823Y23945857D01*
X58605408Y23586071D01*
X58410113Y23115747D01*
X58409668Y22606487D01*
X58604143Y22135823D01*
X58963929Y21775408D01*
X59410960Y21589785D01*
X58965823Y21405857D01*
X58605408Y21046071D01*
X58410113Y20575747D01*
X58409668Y20066487D01*
X58604143Y19595823D01*
X58963929Y19235408D01*
X59410960Y19049785D01*
X58965823Y18865857D01*
X58605408Y18506071D01*
X58410113Y18035747D01*
X58409668Y17526487D01*
X58604143Y17055823D01*
X58963929Y16695408D01*
X59410960Y16509785D01*
X58965823Y16325857D01*
X58605408Y15966071D01*
X58410113Y15495747D01*
X58409668Y14986487D01*
X58604143Y14515823D01*
X58963929Y14155408D01*
X59434253Y13960113D01*
X59943513Y13959668D01*
X60414177Y14154143D01*
X60774592Y14513929D01*
X60960215Y14960961D01*
X61144143Y14515823D01*
X61411774Y14247724D01*
X61359978Y14226269D01*
X61211731Y14078021D01*
X61131500Y13884327D01*
X61131500Y13674673D01*
X61131500Y13039673D01*
X61211731Y12845978D01*
X61281341Y12776368D01*
X61120173Y12615198D01*
X61023500Y12381809D01*
X61023500Y12223750D01*
X61182250Y12065000D01*
X62103000Y12065000D01*
X62103000Y12085000D01*
X62357000Y12085000D01*
X62357000Y12065000D01*
X63277750Y12065000D01*
X63436500Y12223750D01*
X63436500Y12381809D01*
X63339827Y12615198D01*
X63178658Y12776368D01*
X63248269Y12845979D01*
X63328500Y13039673D01*
X63328500Y13249327D01*
X63328500Y13884327D01*
X63248269Y14078022D01*
X63100021Y14226269D01*
X63048010Y14247813D01*
X63314592Y14513929D01*
X63509887Y14984253D01*
X63510332Y15493513D01*
X63510332Y6673014D01*
X63436500Y6703555D01*
X63436500Y11494191D01*
X63436500Y11652250D01*
X63277750Y11811000D01*
X62357000Y11811000D01*
X62357000Y11144250D01*
X62515750Y10985500D01*
X62675191Y10985500D01*
X62927810Y10985500D01*
X63161199Y11082173D01*
X63339827Y11260802D01*
X63436500Y11494191D01*
X63436500Y6703555D01*
X62852108Y6945294D01*
X62103000Y6944941D01*
X62103000Y11144250D01*
X62103000Y11811000D01*
X61182250Y11811000D01*
X61023500Y11652250D01*
X61023500Y11494191D01*
X61120173Y11260802D01*
X61298801Y11082173D01*
X61532190Y10985500D01*
X61784809Y10985500D01*
X61944250Y10985500D01*
X62103000Y11144250D01*
X62103000Y6944941D01*
X61604928Y6944705D01*
X60455421Y6468564D01*
X60173725Y6045880D01*
X62230000Y3989605D01*
X64286275Y6045880D01*
X64286275Y5686670D01*
X62409605Y3810000D01*
X64465880Y1753725D01*
X64888564Y2035421D01*
X65365294Y3187892D01*
X65365294Y577000D01*
X64286275Y577000D01*
X64286275Y1574120D01*
X62230000Y3630395D01*
X62050395Y3450790D01*
X62050395Y3810000D01*
X59994120Y5866275D01*
X59571436Y5584579D01*
X59094706Y4432108D01*
X59095295Y3184928D01*
X59571436Y2035421D01*
X59994120Y1753725D01*
X62050395Y3810000D01*
X62050395Y3450790D01*
X60173725Y1574120D01*
X60455421Y1151436D01*
X61607892Y674706D01*
X62855072Y675295D01*
X64004579Y1151436D01*
X64286275Y1574120D01*
X64286275Y577000D01*
X55054500Y577000D01*
X55054500Y36132190D01*
X55054500Y36384809D01*
X55054500Y36544250D01*
X55054500Y37115750D01*
X55054500Y37275191D01*
X55054500Y37527810D01*
X54957827Y37761199D01*
X54779198Y37939827D01*
X54545809Y38036500D01*
X54387750Y38036500D01*
X54229000Y37877750D01*
X54229000Y36957000D01*
X54895750Y36957000D01*
X55054500Y37115750D01*
X55054500Y36544250D01*
X54895750Y36703000D01*
X54229000Y36703000D01*
X54229000Y35782250D01*
X54387750Y35623500D01*
X54545809Y35623500D01*
X54779198Y35720173D01*
X54957827Y35898801D01*
X55054500Y36132190D01*
X55054500Y577000D01*
X54802143Y577000D01*
X54802143Y21753779D01*
X54676505Y22057846D01*
X54444070Y22290688D01*
X54140222Y22416856D01*
X53975000Y22417001D01*
X53975000Y35782250D01*
X53975000Y36703000D01*
X53955000Y36703000D01*
X53955000Y36957000D01*
X53975000Y36957000D01*
X53975000Y37877750D01*
X53816250Y38036500D01*
X53658191Y38036500D01*
X53424802Y37939827D01*
X53263632Y37778659D01*
X53194021Y37848269D01*
X53000327Y37928500D01*
X52790673Y37928500D01*
X52155673Y37928500D01*
X51961978Y37848269D01*
X51813731Y37700021D01*
X51792187Y37648011D01*
X51526071Y37914592D01*
X51055747Y38109887D01*
X50546487Y38110332D01*
X50075823Y37915857D01*
X49715408Y37556071D01*
X49529784Y37109040D01*
X49345857Y37554177D01*
X48986071Y37914592D01*
X48515747Y38109887D01*
X48006487Y38110332D01*
X47535823Y37915857D01*
X47175408Y37556071D01*
X46989784Y37109040D01*
X46805857Y37554177D01*
X46446071Y37914592D01*
X45975747Y38109887D01*
X45466487Y38110332D01*
X44995823Y37915857D01*
X44635408Y37556071D01*
X44449784Y37109040D01*
X44265857Y37554177D01*
X43906071Y37914592D01*
X43435747Y38109887D01*
X42926487Y38110332D01*
X42455823Y37915857D01*
X42095408Y37556071D01*
X41909784Y37109040D01*
X41725857Y37554177D01*
X41366071Y37914592D01*
X40895747Y38109887D01*
X40386487Y38110332D01*
X39915823Y37915857D01*
X39555408Y37556071D01*
X39360113Y37085747D01*
X39359668Y36576487D01*
X39554143Y36105823D01*
X39913929Y35745408D01*
X40203866Y35625016D01*
X39914207Y35505035D01*
X39845834Y35263772D01*
X40640000Y34469605D01*
X41434166Y35263772D01*
X41365793Y35505035D01*
X41054117Y35616029D01*
X41364177Y35744143D01*
X41724592Y36103929D01*
X41910215Y36550961D01*
X42094143Y36105823D01*
X42453929Y35745408D01*
X42900960Y35559785D01*
X42455823Y35375857D01*
X42095408Y35016071D01*
X41975015Y34726134D01*
X41855035Y35015793D01*
X41613772Y35084166D01*
X40819605Y34290000D01*
X41613772Y33495834D01*
X41855035Y33564207D01*
X41966028Y33875883D01*
X42094143Y33565823D01*
X42453929Y33205408D01*
X42924253Y33010113D01*
X43433513Y33009668D01*
X43904177Y33204143D01*
X44264592Y33563929D01*
X44450215Y34010961D01*
X44634143Y33565823D01*
X44993929Y33205408D01*
X45464253Y33010113D01*
X45973513Y33009668D01*
X46444177Y33204143D01*
X46804592Y33563929D01*
X46990215Y34010961D01*
X47174143Y33565823D01*
X47533929Y33205408D01*
X48004253Y33010113D01*
X48513513Y33009668D01*
X48984177Y33204143D01*
X49344592Y33563929D01*
X49530215Y34010961D01*
X49714143Y33565823D01*
X50073929Y33205408D01*
X50544253Y33010113D01*
X51053513Y33009668D01*
X51524177Y33204143D01*
X51884592Y33563929D01*
X52079887Y34034253D01*
X52080332Y34543513D01*
X51885857Y35014177D01*
X51526071Y35374592D01*
X51079039Y35560216D01*
X51524177Y35744143D01*
X51792276Y36011775D01*
X51813731Y35959978D01*
X51961979Y35811731D01*
X52155673Y35731500D01*
X52365327Y35731500D01*
X53000327Y35731500D01*
X53194022Y35811731D01*
X53263632Y35881342D01*
X53424802Y35720173D01*
X53658191Y35623500D01*
X53816250Y35623500D01*
X53975000Y35782250D01*
X53975000Y22417001D01*
X53811221Y22417143D01*
X53507154Y22291505D01*
X53482606Y22267000D01*
X52223422Y22267000D01*
X51096000Y23394423D01*
X51096000Y23849578D01*
X51311308Y24064887D01*
X51344779Y24064857D01*
X51648846Y24190495D01*
X51881688Y24422930D01*
X52007856Y24726778D01*
X52008143Y25055779D01*
X51882505Y25359846D01*
X51650070Y25592688D01*
X51346222Y25718856D01*
X51017221Y25719143D01*
X50713154Y25593505D01*
X50480312Y25361070D01*
X50354144Y25057222D01*
X50354113Y25022536D01*
X49940289Y24608711D01*
X49793534Y24389077D01*
X49742000Y24130000D01*
X49742000Y23791000D01*
X47794000Y23791000D01*
X47794000Y25415284D01*
X47817688Y25438930D01*
X47943856Y25742778D01*
X47944143Y26071779D01*
X47818505Y26375846D01*
X47586070Y26608688D01*
X47282222Y26734856D01*
X46953221Y26735143D01*
X46649154Y26609505D01*
X46416312Y26377070D01*
X46290144Y26073222D01*
X46289857Y25744221D01*
X46415495Y25440154D01*
X46440000Y25415607D01*
X46440000Y23791000D01*
X44704000Y23791000D01*
X44444923Y23739466D01*
X44335106Y23666089D01*
X44225288Y23592711D01*
X44207000Y23574423D01*
X44207000Y23908975D01*
X44218327Y23920302D01*
X44315000Y24153691D01*
X44315000Y24494250D01*
X44315000Y25065750D01*
X44315000Y25406309D01*
X44218327Y25639698D01*
X44039699Y25818327D01*
X43806310Y25915000D01*
X43553691Y25915000D01*
X43465750Y25915000D01*
X43307000Y25756250D01*
X43307000Y24907000D01*
X44156250Y24907000D01*
X44315000Y25065750D01*
X44315000Y24494250D01*
X44156250Y24653000D01*
X43307000Y24653000D01*
X43307000Y24633000D01*
X43053000Y24633000D01*
X43053000Y24653000D01*
X43053000Y24907000D01*
X43053000Y25756250D01*
X42894250Y25915000D01*
X42806309Y25915000D01*
X42553690Y25915000D01*
X42418000Y25858796D01*
X42282310Y25915000D01*
X42029691Y25915000D01*
X41941750Y25915000D01*
X41783000Y25756250D01*
X41783000Y24907000D01*
X42203750Y24907000D01*
X42632250Y24907000D01*
X43053000Y24907000D01*
X43053000Y24653000D01*
X42632250Y24653000D01*
X42203750Y24653000D01*
X41783000Y24653000D01*
X41783000Y24633000D01*
X41529000Y24633000D01*
X41529000Y24653000D01*
X41529000Y24907000D01*
X41529000Y25756250D01*
X41434166Y25851084D01*
X41434166Y33316228D01*
X40640000Y34110395D01*
X40460395Y33930790D01*
X40460395Y34290000D01*
X39666228Y35084166D01*
X39424965Y35015793D01*
X39239704Y34495572D01*
X39267627Y33944054D01*
X39424965Y33564207D01*
X39666228Y33495834D01*
X40460395Y34290000D01*
X40460395Y33930790D01*
X39845834Y33316228D01*
X39914207Y33074965D01*
X40434428Y32889704D01*
X40985946Y32917627D01*
X41365793Y33074965D01*
X41434166Y33316228D01*
X41434166Y25851084D01*
X41370250Y25915000D01*
X41282309Y25915000D01*
X41029690Y25915000D01*
X40796301Y25818327D01*
X40617673Y25639698D01*
X40521000Y25406309D01*
X40521000Y25065750D01*
X40679750Y24907000D01*
X41529000Y24907000D01*
X41529000Y24653000D01*
X40679750Y24653000D01*
X40521000Y24494250D01*
X40521000Y24153691D01*
X40617673Y23920302D01*
X40629000Y23908975D01*
X40629000Y23875173D01*
X40629000Y22875173D01*
X40709231Y22681478D01*
X40857479Y22533231D01*
X40883969Y22522259D01*
X40829144Y22390222D01*
X40828857Y22061221D01*
X40954495Y21757154D01*
X41186930Y21524312D01*
X41490778Y21398144D01*
X41819779Y21397857D01*
X42123846Y21523495D01*
X42162888Y21562470D01*
X42252778Y21525144D01*
X42581779Y21524857D01*
X42885846Y21650495D01*
X43118688Y21882930D01*
X43244856Y22186778D01*
X43244978Y22327623D01*
X43370356Y22453000D01*
X43519000Y22453000D01*
X43519000Y19838422D01*
X43153578Y19473000D01*
X37592000Y19473000D01*
X37332923Y19421466D01*
X37113289Y19274711D01*
X36318691Y18480114D01*
X36285221Y18480143D01*
X35981154Y18354505D01*
X35748312Y18122070D01*
X35622144Y17818222D01*
X35621857Y17489221D01*
X35747495Y17185154D01*
X35772000Y17160607D01*
X35772000Y17002717D01*
X35748312Y16979070D01*
X35622144Y16675222D01*
X35621857Y16346221D01*
X35747495Y16042154D01*
X35772000Y16017607D01*
X35772000Y13123000D01*
X32069143Y13123000D01*
X32069143Y30516779D01*
X31943505Y30820846D01*
X31919000Y30845394D01*
X31919000Y32639000D01*
X31867466Y32898076D01*
X31867466Y32898077D01*
X31720711Y33117711D01*
X31416794Y33421628D01*
X31512703Y33461256D01*
X31787778Y33735851D01*
X31936830Y34094810D01*
X31937170Y34483485D01*
X31788744Y34842703D01*
X31514149Y35117778D01*
X31155190Y35266830D01*
X30766515Y35267170D01*
X30407297Y35118744D01*
X30132222Y34844149D01*
X30091747Y34746675D01*
X28799711Y36038711D01*
X28580077Y36185466D01*
X28321000Y36237000D01*
X24876716Y36237000D01*
X24853070Y36260688D01*
X24549222Y36386856D01*
X24220221Y36387143D01*
X23916154Y36261505D01*
X23683312Y36029070D01*
X23557144Y35725222D01*
X23556857Y35396221D01*
X23682495Y35092154D01*
X23914930Y34859312D01*
X24218778Y34733144D01*
X24547779Y34732857D01*
X24851846Y34858495D01*
X24876393Y34883000D01*
X26671140Y34883000D01*
X26632222Y34844149D01*
X26483170Y34485190D01*
X26482830Y34096515D01*
X26631256Y33737297D01*
X26905851Y33462222D01*
X27264810Y33313170D01*
X27653485Y33312830D01*
X28012703Y33461256D01*
X28287778Y33735851D01*
X28436830Y34094810D01*
X28437170Y34483485D01*
X28435111Y34488467D01*
X30565000Y32358578D01*
X30565000Y30845717D01*
X30541312Y30822070D01*
X30415144Y30518222D01*
X30414857Y30189221D01*
X30540495Y29885154D01*
X30772930Y29652312D01*
X31076778Y29526144D01*
X31405779Y29525857D01*
X31709846Y29651495D01*
X31942688Y29883930D01*
X32068856Y30187778D01*
X32069143Y30516779D01*
X32069143Y13123000D01*
X31496000Y13123000D01*
X31236923Y13071466D01*
X31017289Y12924711D01*
X25765829Y7673252D01*
X25427243Y7740600D01*
X25372757Y7740600D01*
X24840597Y7634747D01*
X24389454Y7333303D01*
X24088010Y6882160D01*
X23982157Y6350000D01*
X24088010Y5817840D01*
X24389454Y5366697D01*
X24638035Y5200600D01*
X24431573Y5200600D01*
X24237878Y5120369D01*
X24089631Y4972121D01*
X24009400Y4778427D01*
X24009400Y4568773D01*
X24009400Y2841573D01*
X24089631Y2647878D01*
X24237879Y2499631D01*
X24431573Y2419400D01*
X24641227Y2419400D01*
X26368427Y2419400D01*
X26562122Y2499631D01*
X26710369Y2647879D01*
X26790600Y2841573D01*
X26790600Y3034507D01*
X26929454Y2826697D01*
X27380597Y2525253D01*
X27912757Y2419400D01*
X27967243Y2419400D01*
X28499403Y2525253D01*
X28950546Y2826697D01*
X29210000Y3214998D01*
X29469454Y2826697D01*
X29920597Y2525253D01*
X30452757Y2419400D01*
X30507243Y2419400D01*
X31039403Y2525253D01*
X31490546Y2826697D01*
X31791990Y3277840D01*
X31897843Y3810000D01*
X31791990Y4342160D01*
X31490546Y4793303D01*
X31132469Y5032562D01*
X31368490Y5143179D01*
X31762688Y5575053D01*
X31934958Y5990974D01*
X31934958Y6709026D01*
X31762688Y7124947D01*
X31368490Y7556821D01*
X30839027Y7804968D01*
X30607000Y7684469D01*
X30607000Y6477000D01*
X31813817Y6477000D01*
X31934958Y6709026D01*
X31934958Y5990974D01*
X31813817Y6223000D01*
X30607000Y6223000D01*
X30607000Y6203000D01*
X30353000Y6203000D01*
X30353000Y6223000D01*
X30333000Y6223000D01*
X30333000Y6477000D01*
X30353000Y6477000D01*
X30353000Y7684469D01*
X30120973Y7804968D01*
X29591510Y7556821D01*
X29197312Y7124947D01*
X29156157Y7025585D01*
X28950546Y7333303D01*
X28499403Y7634747D01*
X27967243Y7740600D01*
X27912757Y7740600D01*
X27707117Y7699696D01*
X31776422Y11769000D01*
X36449000Y11769000D01*
X38242283Y11769000D01*
X38265930Y11745312D01*
X38569778Y11619144D01*
X38898779Y11618857D01*
X39202846Y11744495D01*
X39435688Y11976930D01*
X39561856Y12280778D01*
X39562143Y12609779D01*
X39436505Y12913846D01*
X39204070Y13146688D01*
X38900222Y13272856D01*
X38571221Y13273143D01*
X38267154Y13147505D01*
X38242606Y13123000D01*
X37126000Y13123000D01*
X37126000Y16017284D01*
X37149688Y16040930D01*
X37275856Y16344778D01*
X37276143Y16673779D01*
X37150505Y16977846D01*
X37126000Y17002394D01*
X37126000Y17160284D01*
X37149688Y17183930D01*
X37275856Y17487778D01*
X37275886Y17522465D01*
X37872422Y18119000D01*
X40716974Y18119000D01*
X40617673Y18019698D01*
X40521000Y17786309D01*
X40521000Y17445750D01*
X40679750Y17287000D01*
X41529000Y17287000D01*
X41529000Y17307000D01*
X41783000Y17307000D01*
X41783000Y17287000D01*
X42203750Y17287000D01*
X42632250Y17287000D01*
X43053000Y17287000D01*
X43053000Y17307000D01*
X43307000Y17307000D01*
X43307000Y17287000D01*
X44156250Y17287000D01*
X44315000Y17445750D01*
X44315000Y17786309D01*
X44218327Y18019698D01*
X44039699Y18198327D01*
X43851400Y18276323D01*
X43912711Y18317289D01*
X44674711Y19079289D01*
X44821466Y19298923D01*
X44821467Y19298924D01*
X44873000Y19558000D01*
X44873000Y22325578D01*
X44984422Y22437000D01*
X47117000Y22437000D01*
X50138577Y22437000D01*
X51464288Y21111289D01*
X51464289Y21111289D01*
X51574106Y21037912D01*
X51683923Y20964534D01*
X51683924Y20964534D01*
X51943000Y20913000D01*
X53482283Y20913000D01*
X53505930Y20889312D01*
X53809778Y20763144D01*
X54138779Y20762857D01*
X54442846Y20888495D01*
X54675688Y21120930D01*
X54801856Y21424778D01*
X54802143Y21753779D01*
X54802143Y577000D01*
X52200296Y577000D01*
X52200296Y6144428D01*
X52172373Y6695946D01*
X52015035Y7075793D01*
X51773772Y7144166D01*
X51594166Y6964561D01*
X51594166Y7323772D01*
X51525793Y7565035D01*
X51005572Y7750296D01*
X50454054Y7722373D01*
X50074207Y7565035D01*
X50005834Y7323772D01*
X50800000Y6529605D01*
X51594166Y7323772D01*
X51594166Y6964561D01*
X50979605Y6350000D01*
X51773772Y5555834D01*
X52015035Y5624207D01*
X52200296Y6144428D01*
X52200296Y577000D01*
X52080332Y577000D01*
X52080332Y4063513D01*
X51885857Y4534177D01*
X51526071Y4894592D01*
X51236133Y5014985D01*
X51525793Y5134965D01*
X51594166Y5376228D01*
X50800000Y6170395D01*
X50005834Y5376228D01*
X50074207Y5134965D01*
X50385882Y5023972D01*
X50075823Y4895857D01*
X49715408Y4536071D01*
X49529784Y4089040D01*
X49345857Y4534177D01*
X48986071Y4894592D01*
X48539039Y5080216D01*
X48984177Y5264143D01*
X49344592Y5623929D01*
X49464984Y5913867D01*
X49584965Y5624207D01*
X49826228Y5555834D01*
X50620395Y6350000D01*
X49826228Y7144166D01*
X49584965Y7075793D01*
X49473971Y6764118D01*
X49345857Y7074177D01*
X48986071Y7434592D01*
X48515747Y7629887D01*
X48006487Y7630332D01*
X47535823Y7435857D01*
X47175408Y7076071D01*
X46989784Y6629040D01*
X46805857Y7074177D01*
X46446071Y7434592D01*
X46039143Y7603563D01*
X46039143Y16038779D01*
X45913505Y16342846D01*
X45681070Y16575688D01*
X45377222Y16701856D01*
X45048221Y16702143D01*
X44744154Y16576505D01*
X44629448Y16462000D01*
X44285304Y16462000D01*
X44315000Y16533691D01*
X44315000Y16874250D01*
X44156250Y17033000D01*
X43307000Y17033000D01*
X43307000Y17013000D01*
X43053000Y17013000D01*
X43053000Y17033000D01*
X42632250Y17033000D01*
X42203750Y17033000D01*
X41783000Y17033000D01*
X41783000Y17013000D01*
X41529000Y17013000D01*
X41529000Y17033000D01*
X40679750Y17033000D01*
X40521000Y16874250D01*
X40521000Y16533691D01*
X40617673Y16300302D01*
X40629000Y16288975D01*
X40629000Y16255173D01*
X40629000Y15255173D01*
X40709231Y15061478D01*
X40857479Y14913231D01*
X41051173Y14833000D01*
X41260827Y14833000D01*
X41338643Y14833000D01*
X41611321Y14560322D01*
X41611322Y14560322D01*
X41806624Y14429825D01*
X41806625Y14429825D01*
X41844846Y14422223D01*
X42037000Y14384000D01*
X43882414Y14384000D01*
X43980930Y14285312D01*
X44284778Y14159144D01*
X44613779Y14158857D01*
X44917846Y14284495D01*
X45150688Y14516930D01*
X45276856Y14820778D01*
X45277054Y15047944D01*
X45375779Y15047857D01*
X45679846Y15173495D01*
X45912688Y15405930D01*
X46038856Y15709778D01*
X46039143Y16038779D01*
X46039143Y7603563D01*
X45975747Y7629887D01*
X45466487Y7630332D01*
X44995823Y7435857D01*
X44635408Y7076071D01*
X44449784Y6629040D01*
X44265857Y7074177D01*
X43906071Y7434592D01*
X43435747Y7629887D01*
X42926487Y7630332D01*
X42455823Y7435857D01*
X42095408Y7076071D01*
X41909784Y6629040D01*
X41725857Y7074177D01*
X41366071Y7434592D01*
X40895747Y7629887D01*
X40386487Y7630332D01*
X39915823Y7435857D01*
X39555408Y7076071D01*
X39360113Y6605747D01*
X39359668Y6096487D01*
X39554143Y5625823D01*
X39913929Y5265408D01*
X40360960Y5079785D01*
X39915823Y4895857D01*
X39647723Y4628226D01*
X39626269Y4680022D01*
X39478021Y4828269D01*
X39284327Y4908500D01*
X39074673Y4908500D01*
X38439673Y4908500D01*
X38245978Y4828269D01*
X38176367Y4758659D01*
X38015198Y4919827D01*
X37781809Y5016500D01*
X37623750Y5016500D01*
X37465000Y4857750D01*
X37465000Y3937000D01*
X37485000Y3937000D01*
X37485000Y3683000D01*
X37465000Y3683000D01*
X37465000Y2762250D01*
X37623750Y2603500D01*
X37781809Y2603500D01*
X38015198Y2700173D01*
X38176367Y2861342D01*
X38245979Y2791731D01*
X38439673Y2711500D01*
X38649327Y2711500D01*
X39284327Y2711500D01*
X39478022Y2791731D01*
X39626269Y2939979D01*
X39647812Y2991990D01*
X39913929Y2725408D01*
X40384253Y2530113D01*
X40893513Y2529668D01*
X41364177Y2724143D01*
X41724592Y3083929D01*
X41910215Y3530961D01*
X42094143Y3085823D01*
X42453929Y2725408D01*
X42924253Y2530113D01*
X43433513Y2529668D01*
X43904177Y2724143D01*
X44264592Y3083929D01*
X44450215Y3530961D01*
X44634143Y3085823D01*
X44993929Y2725408D01*
X45464253Y2530113D01*
X45973513Y2529668D01*
X46444177Y2724143D01*
X46804592Y3083929D01*
X46990215Y3530961D01*
X47174143Y3085823D01*
X47533929Y2725408D01*
X48004253Y2530113D01*
X48513513Y2529668D01*
X48984177Y2724143D01*
X49344592Y3083929D01*
X49530215Y3530961D01*
X49714143Y3085823D01*
X50073929Y2725408D01*
X50544253Y2530113D01*
X51053513Y2529668D01*
X51524177Y2724143D01*
X51884592Y3083929D01*
X52079887Y3554253D01*
X52080332Y4063513D01*
X52080332Y577000D01*
X37211000Y577000D01*
X37211000Y2762250D01*
X37211000Y3683000D01*
X37211000Y3937000D01*
X37211000Y4857750D01*
X37052250Y5016500D01*
X36894191Y5016500D01*
X36660802Y4919827D01*
X36482173Y4741199D01*
X36385500Y4507810D01*
X36385500Y4255191D01*
X36385500Y4095750D01*
X36544250Y3937000D01*
X37211000Y3937000D01*
X37211000Y3683000D01*
X36544250Y3683000D01*
X36385500Y3524250D01*
X36385500Y3364809D01*
X36385500Y3112190D01*
X36482173Y2878801D01*
X36660802Y2700173D01*
X36894191Y2603500D01*
X37052250Y2603500D01*
X37211000Y2762250D01*
X37211000Y577000D01*
X22163143Y577000D01*
X22163143Y7402779D01*
X22037505Y7706846D01*
X22013000Y7731394D01*
X22013000Y9271000D01*
X21961466Y9530076D01*
X21961466Y9530077D01*
X21888088Y9639894D01*
X21814711Y9749711D01*
X21814711Y9749712D01*
X20639113Y10925309D01*
X20639143Y10958779D01*
X20513505Y11262846D01*
X20281070Y11495688D01*
X19977222Y11621856D01*
X19942536Y11621887D01*
X19655711Y11908711D01*
X19436077Y12055466D01*
X19177000Y12107000D01*
X11599000Y12107000D01*
X11599000Y13477284D01*
X11622688Y13500930D01*
X11748856Y13804778D01*
X11749143Y14133779D01*
X11623505Y14437846D01*
X11391070Y14670688D01*
X11087222Y14796856D01*
X10758221Y14797143D01*
X10454154Y14671505D01*
X10221312Y14439070D01*
X10095144Y14135222D01*
X10094857Y13806221D01*
X10220495Y13502154D01*
X10245000Y13477607D01*
X10245000Y11922717D01*
X10221312Y11899070D01*
X10095144Y11595222D01*
X10094857Y11266221D01*
X10220495Y10962154D01*
X10245000Y10937607D01*
X10245000Y6842717D01*
X10221312Y6819070D01*
X10095144Y6515222D01*
X10094857Y6186221D01*
X10220495Y5882154D01*
X10452930Y5649312D01*
X10756778Y5523144D01*
X11085779Y5522857D01*
X11389846Y5648495D01*
X11622688Y5880930D01*
X11748856Y6184778D01*
X11749143Y6513779D01*
X11623505Y6817846D01*
X11599000Y6842394D01*
X11599000Y10753000D01*
X18896577Y10753000D01*
X18984886Y10664692D01*
X18984857Y10631221D01*
X19110495Y10327154D01*
X19342930Y10094312D01*
X19646778Y9968144D01*
X19681464Y9968114D01*
X20659000Y8990578D01*
X20659000Y7731717D01*
X20635312Y7708070D01*
X20509144Y7404222D01*
X20508857Y7075221D01*
X20634495Y6771154D01*
X20866930Y6538312D01*
X21170778Y6412144D01*
X21499779Y6411857D01*
X21803846Y6537495D01*
X22036688Y6769930D01*
X22162856Y7073778D01*
X22163143Y7402779D01*
X22163143Y577000D01*
X6945294Y577000D01*
X6945294Y3187892D01*
X6945294Y36207892D01*
X6944705Y37455072D01*
X6468564Y38604579D01*
X6045880Y38886275D01*
X5866275Y38706670D01*
X5866275Y39065880D01*
X5584579Y39488564D01*
X4432108Y39965294D01*
X3184928Y39964705D01*
X2035421Y39488564D01*
X1753725Y39065880D01*
X3810000Y37009605D01*
X5866275Y39065880D01*
X5866275Y38706670D01*
X3989605Y36830000D01*
X6045880Y34773725D01*
X6468564Y35055421D01*
X6945294Y36207892D01*
X6945294Y3187892D01*
X6944705Y4435072D01*
X6468564Y5584579D01*
X6045880Y5866275D01*
X5909783Y5730178D01*
X5909783Y28868326D01*
X5909783Y29551674D01*
X5895427Y29623875D01*
X5635724Y30101740D01*
X5212919Y30443846D01*
X4915528Y30531810D01*
X5094115Y30567333D01*
X5509412Y30844826D01*
X5786905Y31260123D01*
X5884348Y31750000D01*
X5866275Y31840859D01*
X5866275Y34594120D01*
X3810000Y36650395D01*
X3630395Y36470790D01*
X3630395Y36830000D01*
X1574120Y38886275D01*
X1151436Y38604579D01*
X674706Y37452108D01*
X675295Y36204928D01*
X1151436Y35055421D01*
X1574120Y34773725D01*
X3630395Y36830000D01*
X3630395Y36470790D01*
X1753725Y34594120D01*
X2035421Y34171436D01*
X3187892Y33694706D01*
X4435072Y33695295D01*
X5584579Y34171436D01*
X5866275Y34594120D01*
X5866275Y31840859D01*
X5786905Y32239877D01*
X5509412Y32655174D01*
X5094115Y32932667D01*
X4604238Y33030110D01*
X3015762Y33030110D01*
X2525885Y32932667D01*
X2110588Y32655174D01*
X1833095Y32239877D01*
X1735652Y31750000D01*
X1833095Y31260123D01*
X2110588Y30844826D01*
X2525885Y30567333D01*
X2704471Y30531810D01*
X2407081Y30443846D01*
X1984276Y30101740D01*
X1724573Y29623875D01*
X1710217Y29551674D01*
X1832838Y29337000D01*
X3683000Y29337000D01*
X3683000Y29357000D01*
X3937000Y29357000D01*
X3937000Y29337000D01*
X5787162Y29337000D01*
X5909783Y29551674D01*
X5909783Y28868326D01*
X5787162Y29083000D01*
X3937000Y29083000D01*
X3937000Y29063000D01*
X3683000Y29063000D01*
X3683000Y29083000D01*
X1832838Y29083000D01*
X1710217Y28868326D01*
X1724573Y28796125D01*
X1984276Y28318260D01*
X2407081Y27976154D01*
X2704471Y27888191D01*
X2525885Y27852667D01*
X2110588Y27575174D01*
X1833095Y27159877D01*
X1735652Y26670000D01*
X1833095Y26180123D01*
X2110588Y25764826D01*
X2525885Y25487333D01*
X2964935Y25400000D01*
X2525885Y25312667D01*
X2110588Y25035174D01*
X1833095Y24619877D01*
X1735652Y24130000D01*
X1833095Y23640123D01*
X2110588Y23224826D01*
X2525885Y22947333D01*
X2964935Y22860000D01*
X2525885Y22772667D01*
X2110588Y22495174D01*
X1833095Y22079877D01*
X1735652Y21590000D01*
X1833095Y21100123D01*
X2110588Y20684826D01*
X2525885Y20407333D01*
X2964935Y20320000D01*
X2525885Y20232667D01*
X2110588Y19955174D01*
X1833095Y19539877D01*
X1735652Y19050000D01*
X1833095Y18560123D01*
X2110588Y18144826D01*
X2525885Y17867333D01*
X2964935Y17780000D01*
X2525885Y17692667D01*
X2110588Y17415174D01*
X1833095Y16999877D01*
X1735652Y16510000D01*
X1833095Y16020123D01*
X2110588Y15604826D01*
X2525885Y15327333D01*
X2964935Y15240000D01*
X2525885Y15152667D01*
X2110588Y14875174D01*
X1833095Y14459877D01*
X1735652Y13970000D01*
X1833095Y13480123D01*
X2110588Y13064826D01*
X2525885Y12787333D01*
X2964935Y12700000D01*
X2525885Y12612667D01*
X2110588Y12335174D01*
X1833095Y11919877D01*
X1735652Y11430000D01*
X1833095Y10940123D01*
X2110588Y10524826D01*
X2525885Y10247333D01*
X2964935Y10160000D01*
X2525885Y10072667D01*
X2110588Y9795174D01*
X1833095Y9379877D01*
X1735652Y8890000D01*
X1833095Y8400123D01*
X2110588Y7984826D01*
X2525885Y7707333D01*
X3015762Y7609890D01*
X4604238Y7609890D01*
X5094115Y7707333D01*
X5509412Y7984826D01*
X5786905Y8400123D01*
X5884348Y8890000D01*
X5786905Y9379877D01*
X5509412Y9795174D01*
X5094115Y10072667D01*
X4655064Y10160000D01*
X5094115Y10247333D01*
X5509412Y10524826D01*
X5786905Y10940123D01*
X5884348Y11430000D01*
X5786905Y11919877D01*
X5509412Y12335174D01*
X5094115Y12612667D01*
X4655064Y12700000D01*
X5094115Y12787333D01*
X5509412Y13064826D01*
X5786905Y13480123D01*
X5884348Y13970000D01*
X5786905Y14459877D01*
X5509412Y14875174D01*
X5094115Y15152667D01*
X4655064Y15240000D01*
X5094115Y15327333D01*
X5509412Y15604826D01*
X5786905Y16020123D01*
X5884348Y16510000D01*
X5786905Y16999877D01*
X5509412Y17415174D01*
X5094115Y17692667D01*
X4655064Y17780000D01*
X5094115Y17867333D01*
X5509412Y18144826D01*
X5786905Y18560123D01*
X5884348Y19050000D01*
X5786905Y19539877D01*
X5509412Y19955174D01*
X5094115Y20232667D01*
X4655064Y20320000D01*
X5094115Y20407333D01*
X5509412Y20684826D01*
X5786905Y21100123D01*
X5884348Y21590000D01*
X5786905Y22079877D01*
X5509412Y22495174D01*
X5094115Y22772667D01*
X4655064Y22860000D01*
X5094115Y22947333D01*
X5509412Y23224826D01*
X5786905Y23640123D01*
X5884348Y24130000D01*
X5786905Y24619877D01*
X5509412Y25035174D01*
X5094115Y25312667D01*
X4655064Y25400000D01*
X5094115Y25487333D01*
X5509412Y25764826D01*
X5786905Y26180123D01*
X5884348Y26670000D01*
X5786905Y27159877D01*
X5509412Y27575174D01*
X5094115Y27852667D01*
X4915528Y27888191D01*
X5212919Y27976154D01*
X5635724Y28318260D01*
X5895427Y28796125D01*
X5909783Y28868326D01*
X5909783Y5730178D01*
X5866275Y5686670D01*
X5866275Y6045880D01*
X5584579Y6468564D01*
X4432108Y6945294D01*
X3184928Y6944705D01*
X2035421Y6468564D01*
X1753725Y6045880D01*
X3810000Y3989605D01*
X5866275Y6045880D01*
X5866275Y5686670D01*
X3989605Y3810000D01*
X6045880Y1753725D01*
X6468564Y2035421D01*
X6945294Y3187892D01*
X6945294Y577000D01*
X5866275Y577000D01*
X5866275Y1574120D01*
X3810000Y3630395D01*
X3630395Y3450790D01*
X3630395Y3810000D01*
X1574120Y5866275D01*
X1151436Y5584579D01*
X674706Y4432108D01*
X675295Y3184928D01*
X1151436Y2035421D01*
X1574120Y1753725D01*
X3630395Y3810000D01*
X3630395Y3450790D01*
X1753725Y1574120D01*
X2035421Y1151436D01*
X3187892Y674706D01*
X4435072Y675295D01*
X5584579Y1151436D01*
X5866275Y1574120D01*
X5866275Y577000D01*
X577000Y577000D01*
X577000Y40063000D01*
X65463000Y40063000D01*
X65463000Y577000D01*
X65463000Y577000D01*
G37*
X65463000Y577000D02*
X65365294Y577000D01*
X65365294Y3187892D01*
X65365294Y36207892D01*
X65364705Y37455072D01*
X64888564Y38604579D01*
X64465880Y38886275D01*
X64286275Y38706670D01*
X64286275Y39065880D01*
X64004579Y39488564D01*
X62852108Y39965294D01*
X61604928Y39964705D01*
X60455421Y39488564D01*
X60173725Y39065880D01*
X62230000Y37009605D01*
X64286275Y39065880D01*
X64286275Y38706670D01*
X62409605Y36830000D01*
X64465880Y34773725D01*
X64888564Y35055421D01*
X65365294Y36207892D01*
X65365294Y3187892D01*
X65364705Y4435072D01*
X64888564Y5584579D01*
X64465880Y5866275D01*
X64286275Y5686670D01*
X64286275Y6045880D01*
X64286275Y34594120D01*
X62230000Y36650395D01*
X62050395Y36470790D01*
X62050395Y36830000D01*
X59994120Y38886275D01*
X59571436Y38604579D01*
X59094706Y37452108D01*
X59095295Y36204928D01*
X59571436Y35055421D01*
X59994120Y34773725D01*
X62050395Y36830000D01*
X62050395Y36470790D01*
X60173725Y34594120D01*
X60455421Y34171436D01*
X61607892Y33694706D01*
X62855072Y33695295D01*
X64004579Y34171436D01*
X64286275Y34594120D01*
X64286275Y6045880D01*
X64004579Y6468564D01*
X63510332Y6673014D01*
X63510332Y15493513D01*
X63315857Y15964177D01*
X62956071Y16324592D01*
X62509039Y16510216D01*
X62954177Y16694143D01*
X63314592Y17053929D01*
X63509887Y17524253D01*
X63510332Y18033513D01*
X63315857Y18504177D01*
X62956071Y18864592D01*
X62509039Y19050216D01*
X62954177Y19234143D01*
X63314592Y19593929D01*
X63509887Y20064253D01*
X63510332Y20573513D01*
X63315857Y21044177D01*
X62956071Y21404592D01*
X62509039Y21590216D01*
X62954177Y21774143D01*
X63314592Y22133929D01*
X63509887Y22604253D01*
X63510332Y23113513D01*
X63315857Y23584177D01*
X62956071Y23944592D01*
X62509039Y24130216D01*
X62954177Y24314143D01*
X63314592Y24673929D01*
X63509887Y25144253D01*
X63510332Y25653513D01*
X63315857Y26124177D01*
X62956071Y26484592D01*
X62485747Y26679887D01*
X61976487Y26680332D01*
X61505823Y26485857D01*
X61145408Y26126071D01*
X61025015Y25836134D01*
X60905035Y26125793D01*
X60663772Y26194166D01*
X60484166Y26014561D01*
X60484166Y26373772D01*
X60415793Y26615035D01*
X59895572Y26800296D01*
X59344054Y26772373D01*
X58964207Y26615035D01*
X58895834Y26373772D01*
X59690000Y25579605D01*
X60484166Y26373772D01*
X60484166Y26014561D01*
X59869605Y25400000D01*
X60663772Y24605834D01*
X60905035Y24674207D01*
X61016028Y24985883D01*
X61144143Y24675823D01*
X61503929Y24315408D01*
X61950960Y24129785D01*
X61505823Y23945857D01*
X61145408Y23586071D01*
X60959784Y23139040D01*
X60775857Y23584177D01*
X60416071Y23944592D01*
X60126133Y24064985D01*
X60415793Y24184965D01*
X60484166Y24426228D01*
X59690000Y25220395D01*
X59510395Y25040790D01*
X59510395Y25400000D01*
X58716228Y26194166D01*
X58474965Y26125793D01*
X58289704Y25605572D01*
X58317627Y25054054D01*
X58474965Y24674207D01*
X58716228Y24605834D01*
X59510395Y25400000D01*
X59510395Y25040790D01*
X58895834Y24426228D01*
X58964207Y24184965D01*
X59275882Y24073972D01*
X58965823Y23945857D01*
X58605408Y23586071D01*
X58410113Y23115747D01*
X58409668Y22606487D01*
X58604143Y22135823D01*
X58963929Y21775408D01*
X59410960Y21589785D01*
X58965823Y21405857D01*
X58605408Y21046071D01*
X58410113Y20575747D01*
X58409668Y20066487D01*
X58604143Y19595823D01*
X58963929Y19235408D01*
X59410960Y19049785D01*
X58965823Y18865857D01*
X58605408Y18506071D01*
X58410113Y18035747D01*
X58409668Y17526487D01*
X58604143Y17055823D01*
X58963929Y16695408D01*
X59410960Y16509785D01*
X58965823Y16325857D01*
X58605408Y15966071D01*
X58410113Y15495747D01*
X58409668Y14986487D01*
X58604143Y14515823D01*
X58963929Y14155408D01*
X59434253Y13960113D01*
X59943513Y13959668D01*
X60414177Y14154143D01*
X60774592Y14513929D01*
X60960215Y14960961D01*
X61144143Y14515823D01*
X61411774Y14247724D01*
X61359978Y14226269D01*
X61211731Y14078021D01*
X61131500Y13884327D01*
X61131500Y13674673D01*
X61131500Y13039673D01*
X61211731Y12845978D01*
X61281341Y12776368D01*
X61120173Y12615198D01*
X61023500Y12381809D01*
X61023500Y12223750D01*
X61182250Y12065000D01*
X62103000Y12065000D01*
X62103000Y12085000D01*
X62357000Y12085000D01*
X62357000Y12065000D01*
X63277750Y12065000D01*
X63436500Y12223750D01*
X63436500Y12381809D01*
X63339827Y12615198D01*
X63178658Y12776368D01*
X63248269Y12845979D01*
X63328500Y13039673D01*
X63328500Y13249327D01*
X63328500Y13884327D01*
X63248269Y14078022D01*
X63100021Y14226269D01*
X63048010Y14247813D01*
X63314592Y14513929D01*
X63509887Y14984253D01*
X63510332Y15493513D01*
X63510332Y6673014D01*
X63436500Y6703555D01*
X63436500Y11494191D01*
X63436500Y11652250D01*
X63277750Y11811000D01*
X62357000Y11811000D01*
X62357000Y11144250D01*
X62515750Y10985500D01*
X62675191Y10985500D01*
X62927810Y10985500D01*
X63161199Y11082173D01*
X63339827Y11260802D01*
X63436500Y11494191D01*
X63436500Y6703555D01*
X62852108Y6945294D01*
X62103000Y6944941D01*
X62103000Y11144250D01*
X62103000Y11811000D01*
X61182250Y11811000D01*
X61023500Y11652250D01*
X61023500Y11494191D01*
X61120173Y11260802D01*
X61298801Y11082173D01*
X61532190Y10985500D01*
X61784809Y10985500D01*
X61944250Y10985500D01*
X62103000Y11144250D01*
X62103000Y6944941D01*
X61604928Y6944705D01*
X60455421Y6468564D01*
X60173725Y6045880D01*
X62230000Y3989605D01*
X64286275Y6045880D01*
X64286275Y5686670D01*
X62409605Y3810000D01*
X64465880Y1753725D01*
X64888564Y2035421D01*
X65365294Y3187892D01*
X65365294Y577000D01*
X64286275Y577000D01*
X64286275Y1574120D01*
X62230000Y3630395D01*
X62050395Y3450790D01*
X62050395Y3810000D01*
X59994120Y5866275D01*
X59571436Y5584579D01*
X59094706Y4432108D01*
X59095295Y3184928D01*
X59571436Y2035421D01*
X59994120Y1753725D01*
X62050395Y3810000D01*
X62050395Y3450790D01*
X60173725Y1574120D01*
X60455421Y1151436D01*
X61607892Y674706D01*
X62855072Y675295D01*
X64004579Y1151436D01*
X64286275Y1574120D01*
X64286275Y577000D01*
X55054500Y577000D01*
X55054500Y36132190D01*
X55054500Y36384809D01*
X55054500Y36544250D01*
X55054500Y37115750D01*
X55054500Y37275191D01*
X55054500Y37527810D01*
X54957827Y37761199D01*
X54779198Y37939827D01*
X54545809Y38036500D01*
X54387750Y38036500D01*
X54229000Y37877750D01*
X54229000Y36957000D01*
X54895750Y36957000D01*
X55054500Y37115750D01*
X55054500Y36544250D01*
X54895750Y36703000D01*
X54229000Y36703000D01*
X54229000Y35782250D01*
X54387750Y35623500D01*
X54545809Y35623500D01*
X54779198Y35720173D01*
X54957827Y35898801D01*
X55054500Y36132190D01*
X55054500Y577000D01*
X54802143Y577000D01*
X54802143Y21753779D01*
X54676505Y22057846D01*
X54444070Y22290688D01*
X54140222Y22416856D01*
X53975000Y22417001D01*
X53975000Y35782250D01*
X53975000Y36703000D01*
X53955000Y36703000D01*
X53955000Y36957000D01*
X53975000Y36957000D01*
X53975000Y37877750D01*
X53816250Y38036500D01*
X53658191Y38036500D01*
X53424802Y37939827D01*
X53263632Y37778659D01*
X53194021Y37848269D01*
X53000327Y37928500D01*
X52790673Y37928500D01*
X52155673Y37928500D01*
X51961978Y37848269D01*
X51813731Y37700021D01*
X51792187Y37648011D01*
X51526071Y37914592D01*
X51055747Y38109887D01*
X50546487Y38110332D01*
X50075823Y37915857D01*
X49715408Y37556071D01*
X49529784Y37109040D01*
X49345857Y37554177D01*
X48986071Y37914592D01*
X48515747Y38109887D01*
X48006487Y38110332D01*
X47535823Y37915857D01*
X47175408Y37556071D01*
X46989784Y37109040D01*
X46805857Y37554177D01*
X46446071Y37914592D01*
X45975747Y38109887D01*
X45466487Y38110332D01*
X44995823Y37915857D01*
X44635408Y37556071D01*
X44449784Y37109040D01*
X44265857Y37554177D01*
X43906071Y37914592D01*
X43435747Y38109887D01*
X42926487Y38110332D01*
X42455823Y37915857D01*
X42095408Y37556071D01*
X41909784Y37109040D01*
X41725857Y37554177D01*
X41366071Y37914592D01*
X40895747Y38109887D01*
X40386487Y38110332D01*
X39915823Y37915857D01*
X39555408Y37556071D01*
X39360113Y37085747D01*
X39359668Y36576487D01*
X39554143Y36105823D01*
X39913929Y35745408D01*
X40203866Y35625016D01*
X39914207Y35505035D01*
X39845834Y35263772D01*
X40640000Y34469605D01*
X41434166Y35263772D01*
X41365793Y35505035D01*
X41054117Y35616029D01*
X41364177Y35744143D01*
X41724592Y36103929D01*
X41910215Y36550961D01*
X42094143Y36105823D01*
X42453929Y35745408D01*
X42900960Y35559785D01*
X42455823Y35375857D01*
X42095408Y35016071D01*
X41975015Y34726134D01*
X41855035Y35015793D01*
X41613772Y35084166D01*
X40819605Y34290000D01*
X41613772Y33495834D01*
X41855035Y33564207D01*
X41966028Y33875883D01*
X42094143Y33565823D01*
X42453929Y33205408D01*
X42924253Y33010113D01*
X43433513Y33009668D01*
X43904177Y33204143D01*
X44264592Y33563929D01*
X44450215Y34010961D01*
X44634143Y33565823D01*
X44993929Y33205408D01*
X45464253Y33010113D01*
X45973513Y33009668D01*
X46444177Y33204143D01*
X46804592Y33563929D01*
X46990215Y34010961D01*
X47174143Y33565823D01*
X47533929Y33205408D01*
X48004253Y33010113D01*
X48513513Y33009668D01*
X48984177Y33204143D01*
X49344592Y33563929D01*
X49530215Y34010961D01*
X49714143Y33565823D01*
X50073929Y33205408D01*
X50544253Y33010113D01*
X51053513Y33009668D01*
X51524177Y33204143D01*
X51884592Y33563929D01*
X52079887Y34034253D01*
X52080332Y34543513D01*
X51885857Y35014177D01*
X51526071Y35374592D01*
X51079039Y35560216D01*
X51524177Y35744143D01*
X51792276Y36011775D01*
X51813731Y35959978D01*
X51961979Y35811731D01*
X52155673Y35731500D01*
X52365327Y35731500D01*
X53000327Y35731500D01*
X53194022Y35811731D01*
X53263632Y35881342D01*
X53424802Y35720173D01*
X53658191Y35623500D01*
X53816250Y35623500D01*
X53975000Y35782250D01*
X53975000Y22417001D01*
X53811221Y22417143D01*
X53507154Y22291505D01*
X53482606Y22267000D01*
X52223422Y22267000D01*
X51096000Y23394423D01*
X51096000Y23849578D01*
X51311308Y24064887D01*
X51344779Y24064857D01*
X51648846Y24190495D01*
X51881688Y24422930D01*
X52007856Y24726778D01*
X52008143Y25055779D01*
X51882505Y25359846D01*
X51650070Y25592688D01*
X51346222Y25718856D01*
X51017221Y25719143D01*
X50713154Y25593505D01*
X50480312Y25361070D01*
X50354144Y25057222D01*
X50354113Y25022536D01*
X49940289Y24608711D01*
X49793534Y24389077D01*
X49742000Y24130000D01*
X49742000Y23791000D01*
X47794000Y23791000D01*
X47794000Y25415284D01*
X47817688Y25438930D01*
X47943856Y25742778D01*
X47944143Y26071779D01*
X47818505Y26375846D01*
X47586070Y26608688D01*
X47282222Y26734856D01*
X46953221Y26735143D01*
X46649154Y26609505D01*
X46416312Y26377070D01*
X46290144Y26073222D01*
X46289857Y25744221D01*
X46415495Y25440154D01*
X46440000Y25415607D01*
X46440000Y23791000D01*
X44704000Y23791000D01*
X44444923Y23739466D01*
X44335106Y23666089D01*
X44225288Y23592711D01*
X44207000Y23574423D01*
X44207000Y23908975D01*
X44218327Y23920302D01*
X44315000Y24153691D01*
X44315000Y24494250D01*
X44315000Y25065750D01*
X44315000Y25406309D01*
X44218327Y25639698D01*
X44039699Y25818327D01*
X43806310Y25915000D01*
X43553691Y25915000D01*
X43465750Y25915000D01*
X43307000Y25756250D01*
X43307000Y24907000D01*
X44156250Y24907000D01*
X44315000Y25065750D01*
X44315000Y24494250D01*
X44156250Y24653000D01*
X43307000Y24653000D01*
X43307000Y24633000D01*
X43053000Y24633000D01*
X43053000Y24653000D01*
X43053000Y24907000D01*
X43053000Y25756250D01*
X42894250Y25915000D01*
X42806309Y25915000D01*
X42553690Y25915000D01*
X42418000Y25858796D01*
X42282310Y25915000D01*
X42029691Y25915000D01*
X41941750Y25915000D01*
X41783000Y25756250D01*
X41783000Y24907000D01*
X42203750Y24907000D01*
X42632250Y24907000D01*
X43053000Y24907000D01*
X43053000Y24653000D01*
X42632250Y24653000D01*
X42203750Y24653000D01*
X41783000Y24653000D01*
X41783000Y24633000D01*
X41529000Y24633000D01*
X41529000Y24653000D01*
X41529000Y24907000D01*
X41529000Y25756250D01*
X41434166Y25851084D01*
X41434166Y33316228D01*
X40640000Y34110395D01*
X40460395Y33930790D01*
X40460395Y34290000D01*
X39666228Y35084166D01*
X39424965Y35015793D01*
X39239704Y34495572D01*
X39267627Y33944054D01*
X39424965Y33564207D01*
X39666228Y33495834D01*
X40460395Y34290000D01*
X40460395Y33930790D01*
X39845834Y33316228D01*
X39914207Y33074965D01*
X40434428Y32889704D01*
X40985946Y32917627D01*
X41365793Y33074965D01*
X41434166Y33316228D01*
X41434166Y25851084D01*
X41370250Y25915000D01*
X41282309Y25915000D01*
X41029690Y25915000D01*
X40796301Y25818327D01*
X40617673Y25639698D01*
X40521000Y25406309D01*
X40521000Y25065750D01*
X40679750Y24907000D01*
X41529000Y24907000D01*
X41529000Y24653000D01*
X40679750Y24653000D01*
X40521000Y24494250D01*
X40521000Y24153691D01*
X40617673Y23920302D01*
X40629000Y23908975D01*
X40629000Y23875173D01*
X40629000Y22875173D01*
X40709231Y22681478D01*
X40857479Y22533231D01*
X40883969Y22522259D01*
X40829144Y22390222D01*
X40828857Y22061221D01*
X40954495Y21757154D01*
X41186930Y21524312D01*
X41490778Y21398144D01*
X41819779Y21397857D01*
X42123846Y21523495D01*
X42162888Y21562470D01*
X42252778Y21525144D01*
X42581779Y21524857D01*
X42885846Y21650495D01*
X43118688Y21882930D01*
X43244856Y22186778D01*
X43244978Y22327623D01*
X43370356Y22453000D01*
X43519000Y22453000D01*
X43519000Y19838422D01*
X43153578Y19473000D01*
X37592000Y19473000D01*
X37332923Y19421466D01*
X37113289Y19274711D01*
X36318691Y18480114D01*
X36285221Y18480143D01*
X35981154Y18354505D01*
X35748312Y18122070D01*
X35622144Y17818222D01*
X35621857Y17489221D01*
X35747495Y17185154D01*
X35772000Y17160607D01*
X35772000Y17002717D01*
X35748312Y16979070D01*
X35622144Y16675222D01*
X35621857Y16346221D01*
X35747495Y16042154D01*
X35772000Y16017607D01*
X35772000Y13123000D01*
X32069143Y13123000D01*
X32069143Y30516779D01*
X31943505Y30820846D01*
X31919000Y30845394D01*
X31919000Y32639000D01*
X31867466Y32898076D01*
X31867466Y32898077D01*
X31720711Y33117711D01*
X31416794Y33421628D01*
X31512703Y33461256D01*
X31787778Y33735851D01*
X31936830Y34094810D01*
X31937170Y34483485D01*
X31788744Y34842703D01*
X31514149Y35117778D01*
X31155190Y35266830D01*
X30766515Y35267170D01*
X30407297Y35118744D01*
X30132222Y34844149D01*
X30091747Y34746675D01*
X28799711Y36038711D01*
X28580077Y36185466D01*
X28321000Y36237000D01*
X24876716Y36237000D01*
X24853070Y36260688D01*
X24549222Y36386856D01*
X24220221Y36387143D01*
X23916154Y36261505D01*
X23683312Y36029070D01*
X23557144Y35725222D01*
X23556857Y35396221D01*
X23682495Y35092154D01*
X23914930Y34859312D01*
X24218778Y34733144D01*
X24547779Y34732857D01*
X24851846Y34858495D01*
X24876393Y34883000D01*
X26671140Y34883000D01*
X26632222Y34844149D01*
X26483170Y34485190D01*
X26482830Y34096515D01*
X26631256Y33737297D01*
X26905851Y33462222D01*
X27264810Y33313170D01*
X27653485Y33312830D01*
X28012703Y33461256D01*
X28287778Y33735851D01*
X28436830Y34094810D01*
X28437170Y34483485D01*
X28435111Y34488467D01*
X30565000Y32358578D01*
X30565000Y30845717D01*
X30541312Y30822070D01*
X30415144Y30518222D01*
X30414857Y30189221D01*
X30540495Y29885154D01*
X30772930Y29652312D01*
X31076778Y29526144D01*
X31405779Y29525857D01*
X31709846Y29651495D01*
X31942688Y29883930D01*
X32068856Y30187778D01*
X32069143Y30516779D01*
X32069143Y13123000D01*
X31496000Y13123000D01*
X31236923Y13071466D01*
X31017289Y12924711D01*
X25765829Y7673252D01*
X25427243Y7740600D01*
X25372757Y7740600D01*
X24840597Y7634747D01*
X24389454Y7333303D01*
X24088010Y6882160D01*
X23982157Y6350000D01*
X24088010Y5817840D01*
X24389454Y5366697D01*
X24638035Y5200600D01*
X24431573Y5200600D01*
X24237878Y5120369D01*
X24089631Y4972121D01*
X24009400Y4778427D01*
X24009400Y4568773D01*
X24009400Y2841573D01*
X24089631Y2647878D01*
X24237879Y2499631D01*
X24431573Y2419400D01*
X24641227Y2419400D01*
X26368427Y2419400D01*
X26562122Y2499631D01*
X26710369Y2647879D01*
X26790600Y2841573D01*
X26790600Y3034507D01*
X26929454Y2826697D01*
X27380597Y2525253D01*
X27912757Y2419400D01*
X27967243Y2419400D01*
X28499403Y2525253D01*
X28950546Y2826697D01*
X29210000Y3214998D01*
X29469454Y2826697D01*
X29920597Y2525253D01*
X30452757Y2419400D01*
X30507243Y2419400D01*
X31039403Y2525253D01*
X31490546Y2826697D01*
X31791990Y3277840D01*
X31897843Y3810000D01*
X31791990Y4342160D01*
X31490546Y4793303D01*
X31132469Y5032562D01*
X31368490Y5143179D01*
X31762688Y5575053D01*
X31934958Y5990974D01*
X31934958Y6709026D01*
X31762688Y7124947D01*
X31368490Y7556821D01*
X30839027Y7804968D01*
X30607000Y7684469D01*
X30607000Y6477000D01*
X31813817Y6477000D01*
X31934958Y6709026D01*
X31934958Y5990974D01*
X31813817Y6223000D01*
X30607000Y6223000D01*
X30607000Y6203000D01*
X30353000Y6203000D01*
X30353000Y6223000D01*
X30333000Y6223000D01*
X30333000Y6477000D01*
X30353000Y6477000D01*
X30353000Y7684469D01*
X30120973Y7804968D01*
X29591510Y7556821D01*
X29197312Y7124947D01*
X29156157Y7025585D01*
X28950546Y7333303D01*
X28499403Y7634747D01*
X27967243Y7740600D01*
X27912757Y7740600D01*
X27707117Y7699696D01*
X31776422Y11769000D01*
X36449000Y11769000D01*
X38242283Y11769000D01*
X38265930Y11745312D01*
X38569778Y11619144D01*
X38898779Y11618857D01*
X39202846Y11744495D01*
X39435688Y11976930D01*
X39561856Y12280778D01*
X39562143Y12609779D01*
X39436505Y12913846D01*
X39204070Y13146688D01*
X38900222Y13272856D01*
X38571221Y13273143D01*
X38267154Y13147505D01*
X38242606Y13123000D01*
X37126000Y13123000D01*
X37126000Y16017284D01*
X37149688Y16040930D01*
X37275856Y16344778D01*
X37276143Y16673779D01*
X37150505Y16977846D01*
X37126000Y17002394D01*
X37126000Y17160284D01*
X37149688Y17183930D01*
X37275856Y17487778D01*
X37275886Y17522465D01*
X37872422Y18119000D01*
X40716974Y18119000D01*
X40617673Y18019698D01*
X40521000Y17786309D01*
X40521000Y17445750D01*
X40679750Y17287000D01*
X41529000Y17287000D01*
X41529000Y17307000D01*
X41783000Y17307000D01*
X41783000Y17287000D01*
X42203750Y17287000D01*
X42632250Y17287000D01*
X43053000Y17287000D01*
X43053000Y17307000D01*
X43307000Y17307000D01*
X43307000Y17287000D01*
X44156250Y17287000D01*
X44315000Y17445750D01*
X44315000Y17786309D01*
X44218327Y18019698D01*
X44039699Y18198327D01*
X43851400Y18276323D01*
X43912711Y18317289D01*
X44674711Y19079289D01*
X44821466Y19298923D01*
X44821467Y19298924D01*
X44873000Y19558000D01*
X44873000Y22325578D01*
X44984422Y22437000D01*
X47117000Y22437000D01*
X50138577Y22437000D01*
X51464288Y21111289D01*
X51464289Y21111289D01*
X51574106Y21037912D01*
X51683923Y20964534D01*
X51683924Y20964534D01*
X51943000Y20913000D01*
X53482283Y20913000D01*
X53505930Y20889312D01*
X53809778Y20763144D01*
X54138779Y20762857D01*
X54442846Y20888495D01*
X54675688Y21120930D01*
X54801856Y21424778D01*
X54802143Y21753779D01*
X54802143Y577000D01*
X52200296Y577000D01*
X52200296Y6144428D01*
X52172373Y6695946D01*
X52015035Y7075793D01*
X51773772Y7144166D01*
X51594166Y6964561D01*
X51594166Y7323772D01*
X51525793Y7565035D01*
X51005572Y7750296D01*
X50454054Y7722373D01*
X50074207Y7565035D01*
X50005834Y7323772D01*
X50800000Y6529605D01*
X51594166Y7323772D01*
X51594166Y6964561D01*
X50979605Y6350000D01*
X51773772Y5555834D01*
X52015035Y5624207D01*
X52200296Y6144428D01*
X52200296Y577000D01*
X52080332Y577000D01*
X52080332Y4063513D01*
X51885857Y4534177D01*
X51526071Y4894592D01*
X51236133Y5014985D01*
X51525793Y5134965D01*
X51594166Y5376228D01*
X50800000Y6170395D01*
X50005834Y5376228D01*
X50074207Y5134965D01*
X50385882Y5023972D01*
X50075823Y4895857D01*
X49715408Y4536071D01*
X49529784Y4089040D01*
X49345857Y4534177D01*
X48986071Y4894592D01*
X48539039Y5080216D01*
X48984177Y5264143D01*
X49344592Y5623929D01*
X49464984Y5913867D01*
X49584965Y5624207D01*
X49826228Y5555834D01*
X50620395Y6350000D01*
X49826228Y7144166D01*
X49584965Y7075793D01*
X49473971Y6764118D01*
X49345857Y7074177D01*
X48986071Y7434592D01*
X48515747Y7629887D01*
X48006487Y7630332D01*
X47535823Y7435857D01*
X47175408Y7076071D01*
X46989784Y6629040D01*
X46805857Y7074177D01*
X46446071Y7434592D01*
X46039143Y7603563D01*
X46039143Y16038779D01*
X45913505Y16342846D01*
X45681070Y16575688D01*
X45377222Y16701856D01*
X45048221Y16702143D01*
X44744154Y16576505D01*
X44629448Y16462000D01*
X44285304Y16462000D01*
X44315000Y16533691D01*
X44315000Y16874250D01*
X44156250Y17033000D01*
X43307000Y17033000D01*
X43307000Y17013000D01*
X43053000Y17013000D01*
X43053000Y17033000D01*
X42632250Y17033000D01*
X42203750Y17033000D01*
X41783000Y17033000D01*
X41783000Y17013000D01*
X41529000Y17013000D01*
X41529000Y17033000D01*
X40679750Y17033000D01*
X40521000Y16874250D01*
X40521000Y16533691D01*
X40617673Y16300302D01*
X40629000Y16288975D01*
X40629000Y16255173D01*
X40629000Y15255173D01*
X40709231Y15061478D01*
X40857479Y14913231D01*
X41051173Y14833000D01*
X41260827Y14833000D01*
X41338643Y14833000D01*
X41611321Y14560322D01*
X41611322Y14560322D01*
X41806624Y14429825D01*
X41806625Y14429825D01*
X41844846Y14422223D01*
X42037000Y14384000D01*
X43882414Y14384000D01*
X43980930Y14285312D01*
X44284778Y14159144D01*
X44613779Y14158857D01*
X44917846Y14284495D01*
X45150688Y14516930D01*
X45276856Y14820778D01*
X45277054Y15047944D01*
X45375779Y15047857D01*
X45679846Y15173495D01*
X45912688Y15405930D01*
X46038856Y15709778D01*
X46039143Y16038779D01*
X46039143Y7603563D01*
X45975747Y7629887D01*
X45466487Y7630332D01*
X44995823Y7435857D01*
X44635408Y7076071D01*
X44449784Y6629040D01*
X44265857Y7074177D01*
X43906071Y7434592D01*
X43435747Y7629887D01*
X42926487Y7630332D01*
X42455823Y7435857D01*
X42095408Y7076071D01*
X41909784Y6629040D01*
X41725857Y7074177D01*
X41366071Y7434592D01*
X40895747Y7629887D01*
X40386487Y7630332D01*
X39915823Y7435857D01*
X39555408Y7076071D01*
X39360113Y6605747D01*
X39359668Y6096487D01*
X39554143Y5625823D01*
X39913929Y5265408D01*
X40360960Y5079785D01*
X39915823Y4895857D01*
X39647723Y4628226D01*
X39626269Y4680022D01*
X39478021Y4828269D01*
X39284327Y4908500D01*
X39074673Y4908500D01*
X38439673Y4908500D01*
X38245978Y4828269D01*
X38176367Y4758659D01*
X38015198Y4919827D01*
X37781809Y5016500D01*
X37623750Y5016500D01*
X37465000Y4857750D01*
X37465000Y3937000D01*
X37485000Y3937000D01*
X37485000Y3683000D01*
X37465000Y3683000D01*
X37465000Y2762250D01*
X37623750Y2603500D01*
X37781809Y2603500D01*
X38015198Y2700173D01*
X38176367Y2861342D01*
X38245979Y2791731D01*
X38439673Y2711500D01*
X38649327Y2711500D01*
X39284327Y2711500D01*
X39478022Y2791731D01*
X39626269Y2939979D01*
X39647812Y2991990D01*
X39913929Y2725408D01*
X40384253Y2530113D01*
X40893513Y2529668D01*
X41364177Y2724143D01*
X41724592Y3083929D01*
X41910215Y3530961D01*
X42094143Y3085823D01*
X42453929Y2725408D01*
X42924253Y2530113D01*
X43433513Y2529668D01*
X43904177Y2724143D01*
X44264592Y3083929D01*
X44450215Y3530961D01*
X44634143Y3085823D01*
X44993929Y2725408D01*
X45464253Y2530113D01*
X45973513Y2529668D01*
X46444177Y2724143D01*
X46804592Y3083929D01*
X46990215Y3530961D01*
X47174143Y3085823D01*
X47533929Y2725408D01*
X48004253Y2530113D01*
X48513513Y2529668D01*
X48984177Y2724143D01*
X49344592Y3083929D01*
X49530215Y3530961D01*
X49714143Y3085823D01*
X50073929Y2725408D01*
X50544253Y2530113D01*
X51053513Y2529668D01*
X51524177Y2724143D01*
X51884592Y3083929D01*
X52079887Y3554253D01*
X52080332Y4063513D01*
X52080332Y577000D01*
X37211000Y577000D01*
X37211000Y2762250D01*
X37211000Y3683000D01*
X37211000Y3937000D01*
X37211000Y4857750D01*
X37052250Y5016500D01*
X36894191Y5016500D01*
X36660802Y4919827D01*
X36482173Y4741199D01*
X36385500Y4507810D01*
X36385500Y4255191D01*
X36385500Y4095750D01*
X36544250Y3937000D01*
X37211000Y3937000D01*
X37211000Y3683000D01*
X36544250Y3683000D01*
X36385500Y3524250D01*
X36385500Y3364809D01*
X36385500Y3112190D01*
X36482173Y2878801D01*
X36660802Y2700173D01*
X36894191Y2603500D01*
X37052250Y2603500D01*
X37211000Y2762250D01*
X37211000Y577000D01*
X22163143Y577000D01*
X22163143Y7402779D01*
X22037505Y7706846D01*
X22013000Y7731394D01*
X22013000Y9271000D01*
X21961466Y9530076D01*
X21961466Y9530077D01*
X21888088Y9639894D01*
X21814711Y9749711D01*
X21814711Y9749712D01*
X20639113Y10925309D01*
X20639143Y10958779D01*
X20513505Y11262846D01*
X20281070Y11495688D01*
X19977222Y11621856D01*
X19942536Y11621887D01*
X19655711Y11908711D01*
X19436077Y12055466D01*
X19177000Y12107000D01*
X11599000Y12107000D01*
X11599000Y13477284D01*
X11622688Y13500930D01*
X11748856Y13804778D01*
X11749143Y14133779D01*
X11623505Y14437846D01*
X11391070Y14670688D01*
X11087222Y14796856D01*
X10758221Y14797143D01*
X10454154Y14671505D01*
X10221312Y14439070D01*
X10095144Y14135222D01*
X10094857Y13806221D01*
X10220495Y13502154D01*
X10245000Y13477607D01*
X10245000Y11922717D01*
X10221312Y11899070D01*
X10095144Y11595222D01*
X10094857Y11266221D01*
X10220495Y10962154D01*
X10245000Y10937607D01*
X10245000Y6842717D01*
X10221312Y6819070D01*
X10095144Y6515222D01*
X10094857Y6186221D01*
X10220495Y5882154D01*
X10452930Y5649312D01*
X10756778Y5523144D01*
X11085779Y5522857D01*
X11389846Y5648495D01*
X11622688Y5880930D01*
X11748856Y6184778D01*
X11749143Y6513779D01*
X11623505Y6817846D01*
X11599000Y6842394D01*
X11599000Y10753000D01*
X18896577Y10753000D01*
X18984886Y10664692D01*
X18984857Y10631221D01*
X19110495Y10327154D01*
X19342930Y10094312D01*
X19646778Y9968144D01*
X19681464Y9968114D01*
X20659000Y8990578D01*
X20659000Y7731717D01*
X20635312Y7708070D01*
X20509144Y7404222D01*
X20508857Y7075221D01*
X20634495Y6771154D01*
X20866930Y6538312D01*
X21170778Y6412144D01*
X21499779Y6411857D01*
X21803846Y6537495D01*
X22036688Y6769930D01*
X22162856Y7073778D01*
X22163143Y7402779D01*
X22163143Y577000D01*
X6945294Y577000D01*
X6945294Y3187892D01*
X6945294Y36207892D01*
X6944705Y37455072D01*
X6468564Y38604579D01*
X6045880Y38886275D01*
X5866275Y38706670D01*
X5866275Y39065880D01*
X5584579Y39488564D01*
X4432108Y39965294D01*
X3184928Y39964705D01*
X2035421Y39488564D01*
X1753725Y39065880D01*
X3810000Y37009605D01*
X5866275Y39065880D01*
X5866275Y38706670D01*
X3989605Y36830000D01*
X6045880Y34773725D01*
X6468564Y35055421D01*
X6945294Y36207892D01*
X6945294Y3187892D01*
X6944705Y4435072D01*
X6468564Y5584579D01*
X6045880Y5866275D01*
X5909783Y5730178D01*
X5909783Y28868326D01*
X5909783Y29551674D01*
X5895427Y29623875D01*
X5635724Y30101740D01*
X5212919Y30443846D01*
X4915528Y30531810D01*
X5094115Y30567333D01*
X5509412Y30844826D01*
X5786905Y31260123D01*
X5884348Y31750000D01*
X5866275Y31840859D01*
X5866275Y34594120D01*
X3810000Y36650395D01*
X3630395Y36470790D01*
X3630395Y36830000D01*
X1574120Y38886275D01*
X1151436Y38604579D01*
X674706Y37452108D01*
X675295Y36204928D01*
X1151436Y35055421D01*
X1574120Y34773725D01*
X3630395Y36830000D01*
X3630395Y36470790D01*
X1753725Y34594120D01*
X2035421Y34171436D01*
X3187892Y33694706D01*
X4435072Y33695295D01*
X5584579Y34171436D01*
X5866275Y34594120D01*
X5866275Y31840859D01*
X5786905Y32239877D01*
X5509412Y32655174D01*
X5094115Y32932667D01*
X4604238Y33030110D01*
X3015762Y33030110D01*
X2525885Y32932667D01*
X2110588Y32655174D01*
X1833095Y32239877D01*
X1735652Y31750000D01*
X1833095Y31260123D01*
X2110588Y30844826D01*
X2525885Y30567333D01*
X2704471Y30531810D01*
X2407081Y30443846D01*
X1984276Y30101740D01*
X1724573Y29623875D01*
X1710217Y29551674D01*
X1832838Y29337000D01*
X3683000Y29337000D01*
X3683000Y29357000D01*
X3937000Y29357000D01*
X3937000Y29337000D01*
X5787162Y29337000D01*
X5909783Y29551674D01*
X5909783Y28868326D01*
X5787162Y29083000D01*
X3937000Y29083000D01*
X3937000Y29063000D01*
X3683000Y29063000D01*
X3683000Y29083000D01*
X1832838Y29083000D01*
X1710217Y28868326D01*
X1724573Y28796125D01*
X1984276Y28318260D01*
X2407081Y27976154D01*
X2704471Y27888191D01*
X2525885Y27852667D01*
X2110588Y27575174D01*
X1833095Y27159877D01*
X1735652Y26670000D01*
X1833095Y26180123D01*
X2110588Y25764826D01*
X2525885Y25487333D01*
X2964935Y25400000D01*
X2525885Y25312667D01*
X2110588Y25035174D01*
X1833095Y24619877D01*
X1735652Y24130000D01*
X1833095Y23640123D01*
X2110588Y23224826D01*
X2525885Y22947333D01*
X2964935Y22860000D01*
X2525885Y22772667D01*
X2110588Y22495174D01*
X1833095Y22079877D01*
X1735652Y21590000D01*
X1833095Y21100123D01*
X2110588Y20684826D01*
X2525885Y20407333D01*
X2964935Y20320000D01*
X2525885Y20232667D01*
X2110588Y19955174D01*
X1833095Y19539877D01*
X1735652Y19050000D01*
X1833095Y18560123D01*
X2110588Y18144826D01*
X2525885Y17867333D01*
X2964935Y17780000D01*
X2525885Y17692667D01*
X2110588Y17415174D01*
X1833095Y16999877D01*
X1735652Y16510000D01*
X1833095Y16020123D01*
X2110588Y15604826D01*
X2525885Y15327333D01*
X2964935Y15240000D01*
X2525885Y15152667D01*
X2110588Y14875174D01*
X1833095Y14459877D01*
X1735652Y13970000D01*
X1833095Y13480123D01*
X2110588Y13064826D01*
X2525885Y12787333D01*
X2964935Y12700000D01*
X2525885Y12612667D01*
X2110588Y12335174D01*
X1833095Y11919877D01*
X1735652Y11430000D01*
X1833095Y10940123D01*
X2110588Y10524826D01*
X2525885Y10247333D01*
X2964935Y10160000D01*
X2525885Y10072667D01*
X2110588Y9795174D01*
X1833095Y9379877D01*
X1735652Y8890000D01*
X1833095Y8400123D01*
X2110588Y7984826D01*
X2525885Y7707333D01*
X3015762Y7609890D01*
X4604238Y7609890D01*
X5094115Y7707333D01*
X5509412Y7984826D01*
X5786905Y8400123D01*
X5884348Y8890000D01*
X5786905Y9379877D01*
X5509412Y9795174D01*
X5094115Y10072667D01*
X4655064Y10160000D01*
X5094115Y10247333D01*
X5509412Y10524826D01*
X5786905Y10940123D01*
X5884348Y11430000D01*
X5786905Y11919877D01*
X5509412Y12335174D01*
X5094115Y12612667D01*
X4655064Y12700000D01*
X5094115Y12787333D01*
X5509412Y13064826D01*
X5786905Y13480123D01*
X5884348Y13970000D01*
X5786905Y14459877D01*
X5509412Y14875174D01*
X5094115Y15152667D01*
X4655064Y15240000D01*
X5094115Y15327333D01*
X5509412Y15604826D01*
X5786905Y16020123D01*
X5884348Y16510000D01*
X5786905Y16999877D01*
X5509412Y17415174D01*
X5094115Y17692667D01*
X4655064Y17780000D01*
X5094115Y17867333D01*
X5509412Y18144826D01*
X5786905Y18560123D01*
X5884348Y19050000D01*
X5786905Y19539877D01*
X5509412Y19955174D01*
X5094115Y20232667D01*
X4655064Y20320000D01*
X5094115Y20407333D01*
X5509412Y20684826D01*
X5786905Y21100123D01*
X5884348Y21590000D01*
X5786905Y22079877D01*
X5509412Y22495174D01*
X5094115Y22772667D01*
X4655064Y22860000D01*
X5094115Y22947333D01*
X5509412Y23224826D01*
X5786905Y23640123D01*
X5884348Y24130000D01*
X5786905Y24619877D01*
X5509412Y25035174D01*
X5094115Y25312667D01*
X4655064Y25400000D01*
X5094115Y25487333D01*
X5509412Y25764826D01*
X5786905Y26180123D01*
X5884348Y26670000D01*
X5786905Y27159877D01*
X5509412Y27575174D01*
X5094115Y27852667D01*
X4915528Y27888191D01*
X5212919Y27976154D01*
X5635724Y28318260D01*
X5895427Y28796125D01*
X5909783Y28868326D01*
X5909783Y5730178D01*
X5866275Y5686670D01*
X5866275Y6045880D01*
X5584579Y6468564D01*
X4432108Y6945294D01*
X3184928Y6944705D01*
X2035421Y6468564D01*
X1753725Y6045880D01*
X3810000Y3989605D01*
X5866275Y6045880D01*
X5866275Y5686670D01*
X3989605Y3810000D01*
X6045880Y1753725D01*
X6468564Y2035421D01*
X6945294Y3187892D01*
X6945294Y577000D01*
X5866275Y577000D01*
X5866275Y1574120D01*
X3810000Y3630395D01*
X3630395Y3450790D01*
X3630395Y3810000D01*
X1574120Y5866275D01*
X1151436Y5584579D01*
X674706Y4432108D01*
X675295Y3184928D01*
X1151436Y2035421D01*
X1574120Y1753725D01*
X3630395Y3810000D01*
X3630395Y3450790D01*
X1753725Y1574120D01*
X2035421Y1151436D01*
X3187892Y674706D01*
X4435072Y675295D01*
X5584579Y1151436D01*
X5866275Y1574120D01*
X5866275Y577000D01*
X577000Y577000D01*
X577000Y40063000D01*
X65463000Y40063000D01*
X65463000Y577000D01*
M02*
