%TF.FileFunction,Soldermask,Bot*%
%FSLAX46Y46*%
G04 Gerber Fmt 4.6, Leading zero omitted, Abs format (unit mm)*
G04 Created by KiCad (PCBNEW (2014-09-08 BZR 5122)-product) date Wed 17 Dec 2014 07:33:54 PM CET*
%MOMM*%
G01*
G04 APERTURE LIST*
%ADD10C,0.020000*%
%ADD11C,0.100000*%
%ADD12R,2.327200X2.327200*%
%ADD13O,2.327200X2.327200*%
%ADD14C,2.106220*%
%ADD15C,5.000000*%
%ADD16R,0.635000X1.143000*%
%ADD17R,1.143000X0.635000*%
%ADD18O,3.614980X2.106220*%
%ADD19R,1.400000X1.400000*%
%ADD20C,0.900000*%
%ADD21C,0.600000*%
G04 APERTURE END LIST*
D10*
D11*
X66040000Y0D02*
X0Y0D01*
X0Y40640000D02*
X66040000Y40640000D01*
X0Y40640000D02*
X0Y0D01*
X66040000Y0D02*
X66040000Y40640000D01*
D12*
X25400000Y3810000D03*
D13*
X25400000Y6350000D03*
X27940000Y3810000D03*
X27940000Y6350000D03*
X30480000Y3810000D03*
X30480000Y6350000D03*
D14*
X40640000Y3810000D03*
X40640000Y6350000D03*
X43180000Y3810000D03*
X43180000Y6350000D03*
X45720000Y3810000D03*
X45720000Y6350000D03*
X48260000Y3810000D03*
X48260000Y6350000D03*
X50800000Y3810000D03*
X50800000Y6350000D03*
X62230000Y15240000D03*
X59690000Y15240000D03*
X62230000Y17780000D03*
X59690000Y17780000D03*
X62230000Y20320000D03*
X59690000Y20320000D03*
X62230000Y22860000D03*
X59690000Y22860000D03*
X62230000Y25400000D03*
X59690000Y25400000D03*
X50800000Y36830000D03*
X50800000Y34290000D03*
X48260000Y36830000D03*
X48260000Y34290000D03*
X45720000Y36830000D03*
X45720000Y34290000D03*
X43180000Y36830000D03*
X43180000Y34290000D03*
X40640000Y36830000D03*
X40640000Y34290000D03*
D15*
X3810000Y36830000D03*
X3810000Y3810000D03*
X62230000Y3810000D03*
X62230000Y36830000D03*
D16*
X38862000Y3810000D03*
X37338000Y3810000D03*
D17*
X62230000Y13462000D03*
X62230000Y11938000D03*
D16*
X52578000Y36830000D03*
X54102000Y36830000D03*
D18*
X3810000Y26670000D03*
X3810000Y24130000D03*
X3810000Y21590000D03*
X3810000Y19050000D03*
X3810000Y16510000D03*
X3810000Y13970000D03*
X3810000Y11430000D03*
X3810000Y8890000D03*
X3810000Y31750000D03*
X3810000Y29210000D03*
D19*
X43180000Y15860000D03*
X43180000Y17160000D03*
X41656000Y15860000D03*
X41656000Y17160000D03*
X43180000Y23480000D03*
X43180000Y24780000D03*
X41656000Y23480000D03*
X41656000Y24780000D03*
D20*
X27460000Y34290000D03*
X30960000Y34290000D03*
D21*
X54991000Y36830000D03*
X62230000Y11049000D03*
X36449000Y3810000D03*
X21336000Y1016000D03*
X13208000Y2413000D03*
X20701000Y13081000D03*
X45212000Y12065000D03*
X27622500Y29210000D03*
X27622500Y26670000D03*
X17780000Y27559000D03*
X17399000Y26670000D03*
X18161000Y26670000D03*
X27622500Y30480000D03*
X21844000Y34036000D03*
X38227000Y16446500D03*
X40132000Y16446500D03*
X17780000Y37465000D03*
X25146000Y15875000D03*
X24384000Y26670000D03*
X34925000Y29591000D03*
X35864800Y28397200D03*
X31292800Y23825200D03*
X29972000Y21336000D03*
X29972000Y19304000D03*
X25654000Y22606000D03*
X45974000Y28067000D03*
X53975000Y20193000D03*
X31242000Y30353000D03*
X24384000Y35560000D03*
X42418000Y22352000D03*
X41656000Y22225000D03*
X45212000Y15875000D03*
X44450000Y14986000D03*
X21336000Y7239000D03*
X19812000Y10795000D03*
X10922000Y11430000D03*
X10922000Y6350000D03*
X10922000Y13970000D03*
X36449000Y17653000D03*
X38735000Y12446000D03*
X36449000Y16510000D03*
X47117000Y25908000D03*
X53975000Y21590000D03*
X51181000Y24892000D03*
M02*
