%TF.FileFunction,Soldermask,Top*%
%FSLAX46Y46*%
G04 Gerber Fmt 4.6, Leading zero omitted, Abs format (unit mm)*
G04 Created by KiCad (PCBNEW (2014-09-08 BZR 5122)-product) date Wed 17 Dec 2014 07:33:54 PM CET*
%MOMM*%
G01*
G04 APERTURE LIST*
%ADD10C,0.020000*%
%ADD11C,0.100000*%
%ADD12R,1.400000X1.400000*%
%ADD13R,2.327200X2.327200*%
%ADD14O,2.327200X2.327200*%
%ADD15C,2.106220*%
%ADD16R,1.200000X2.200000*%
%ADD17R,3.500000X2.200000*%
%ADD18C,5.000000*%
%ADD19R,1.524000X1.270000*%
%ADD20R,0.635000X1.143000*%
%ADD21R,1.143000X0.635000*%
%ADD22O,3.614980X2.106220*%
%ADD23R,1.100000X0.300000*%
%ADD24R,0.300000X1.100000*%
%ADD25R,5.200000X5.200000*%
%ADD26R,1.300000X0.600000*%
%ADD27C,0.900000*%
%ADD28R,0.500000X2.000000*%
%ADD29R,2.500000X2.200000*%
%ADD30R,2.199640X1.600200*%
%ADD31C,0.600000*%
G04 APERTURE END LIST*
D10*
D11*
X66040000Y0D02*
X0Y0D01*
X0Y40640000D02*
X66040000Y40640000D01*
X0Y40640000D02*
X0Y0D01*
X66040000Y0D02*
X66040000Y40640000D01*
D12*
X24511000Y11430000D03*
X23211000Y11430000D03*
X25811000Y11430000D03*
D13*
X25400000Y3810000D03*
D14*
X25400000Y6350000D03*
X27940000Y3810000D03*
X27940000Y6350000D03*
X30480000Y3810000D03*
X30480000Y6350000D03*
D15*
X40640000Y3810000D03*
X40640000Y6350000D03*
X43180000Y3810000D03*
X43180000Y6350000D03*
X45720000Y3810000D03*
X45720000Y6350000D03*
X48260000Y3810000D03*
X48260000Y6350000D03*
X50800000Y3810000D03*
X50800000Y6350000D03*
X62230000Y15240000D03*
X59690000Y15240000D03*
X62230000Y17780000D03*
X59690000Y17780000D03*
X62230000Y20320000D03*
X59690000Y20320000D03*
X62230000Y22860000D03*
X59690000Y22860000D03*
X62230000Y25400000D03*
X59690000Y25400000D03*
X50800000Y36830000D03*
X50800000Y34290000D03*
X48260000Y36830000D03*
X48260000Y34290000D03*
X45720000Y36830000D03*
X45720000Y34290000D03*
X43180000Y36830000D03*
X43180000Y34290000D03*
X40640000Y36830000D03*
X40640000Y34290000D03*
D16*
X15480000Y29285000D03*
X17780000Y29285000D03*
X20080000Y29285000D03*
D17*
X17780000Y35485000D03*
D18*
X3810000Y36830000D03*
X3810000Y3810000D03*
X62230000Y3810000D03*
X62230000Y36830000D03*
D19*
X14351000Y23495000D03*
X14351000Y20955000D03*
X14351000Y18415000D03*
X14351000Y15748000D03*
X23749000Y15875000D03*
X23749000Y18415000D03*
X23749000Y20955000D03*
X23749000Y23368000D03*
D20*
X15113000Y26670000D03*
X16637000Y26670000D03*
X22098000Y26670000D03*
X23622000Y26670000D03*
X18542000Y13081000D03*
X20066000Y13081000D03*
X20447000Y26670000D03*
X18923000Y26670000D03*
D21*
X21844000Y36449000D03*
X21844000Y34925000D03*
D20*
X26797000Y29210000D03*
X25273000Y29210000D03*
D21*
X52832000Y22352000D03*
X52832000Y20828000D03*
X40132000Y18796000D03*
X40132000Y17272000D03*
X45974000Y25781000D03*
X45974000Y27305000D03*
X46228000Y13970000D03*
X46228000Y12446000D03*
X44196000Y13970000D03*
X44196000Y12446000D03*
X38227000Y18796000D03*
X38227000Y17272000D03*
X21336000Y3302000D03*
X21336000Y1778000D03*
D10*
G36*
X32025790Y23724567D02*
X31217567Y24532790D01*
X31666580Y24981803D01*
X32474803Y24173580D01*
X32025790Y23724567D01*
X32025790Y23724567D01*
G37*
G36*
X33103420Y24802197D02*
X32295197Y25610420D01*
X32744210Y26059433D01*
X33552433Y25251210D01*
X33103420Y24802197D01*
X33103420Y24802197D01*
G37*
G36*
X35157210Y28472433D02*
X35965433Y27664210D01*
X35516420Y27215197D01*
X34708197Y28023420D01*
X35157210Y28472433D01*
X35157210Y28472433D01*
G37*
G36*
X34079580Y27394803D02*
X34887803Y26586580D01*
X34438790Y26137567D01*
X33630567Y26945790D01*
X34079580Y27394803D01*
X34079580Y27394803D01*
G37*
D20*
X34163000Y29591000D03*
X32639000Y29591000D03*
X32258000Y21336000D03*
X30734000Y21336000D03*
X32258000Y19304000D03*
X30734000Y19304000D03*
D21*
X42164000Y12446000D03*
X42164000Y13970000D03*
D20*
X33782000Y17272000D03*
X35306000Y17272000D03*
D21*
X21336000Y6477000D03*
X21336000Y4953000D03*
D20*
X10922000Y15240000D03*
X9398000Y15240000D03*
X10922000Y12700000D03*
X9398000Y12700000D03*
X10922000Y10160000D03*
X9398000Y10160000D03*
X10922000Y7620000D03*
X9398000Y7620000D03*
X10922000Y5080000D03*
X9398000Y5080000D03*
X10922000Y2540000D03*
X9398000Y2540000D03*
X10922000Y24130000D03*
X9398000Y24130000D03*
D21*
X26924000Y18034000D03*
X26924000Y19558000D03*
X40132000Y12446000D03*
X40132000Y13970000D03*
D20*
X25273000Y26670000D03*
X26797000Y26670000D03*
X35306000Y21336000D03*
X33782000Y21336000D03*
X35306000Y19304000D03*
X33782000Y19304000D03*
D21*
X26924000Y22606000D03*
X26924000Y21082000D03*
D22*
X3810000Y26670000D03*
X3810000Y24130000D03*
X3810000Y21590000D03*
X3810000Y19050000D03*
X3810000Y16510000D03*
X3810000Y13970000D03*
X3810000Y11430000D03*
X3810000Y8890000D03*
X3810000Y31750000D03*
X3810000Y29210000D03*
D23*
X50340000Y17820000D03*
X50340000Y18320000D03*
X50340000Y18820000D03*
X50340000Y19320000D03*
X50340000Y19820000D03*
X50340000Y20320000D03*
X50340000Y20820000D03*
X50340000Y21320000D03*
X50340000Y21820000D03*
X50340000Y22320000D03*
X50340000Y22820000D03*
D24*
X49490000Y23670000D03*
X48990000Y23670000D03*
X48490000Y23670000D03*
X47990000Y23670000D03*
X47490000Y23670000D03*
X46990000Y23670000D03*
X46490000Y23670000D03*
X45990000Y23670000D03*
X45490000Y23670000D03*
X44990000Y23670000D03*
X44490000Y23670000D03*
D23*
X43640000Y22820000D03*
X43640000Y22320000D03*
X43640000Y21820000D03*
X43640000Y21320000D03*
X43640000Y20820000D03*
X43640000Y20320000D03*
X43640000Y19820000D03*
X43640000Y19320000D03*
X43640000Y18820000D03*
X43640000Y18320000D03*
X43640000Y17820000D03*
D24*
X44490000Y16970000D03*
X44990000Y16970000D03*
X45490000Y16970000D03*
X45990000Y16970000D03*
X46490000Y16970000D03*
X46990000Y16970000D03*
X47490000Y16970000D03*
X47990000Y16970000D03*
X48490000Y16970000D03*
X48990000Y16970000D03*
X49490000Y16970000D03*
D25*
X46990000Y20320000D03*
D26*
X13225000Y10795000D03*
X13225000Y9525000D03*
X13225000Y8255000D03*
X13225000Y6985000D03*
X13225000Y5715000D03*
X13225000Y4445000D03*
X13225000Y3175000D03*
X18525000Y3175000D03*
X18525000Y4445000D03*
X18525000Y6985000D03*
X18525000Y8255000D03*
X18525000Y9525000D03*
X18525000Y10795000D03*
X18525000Y5715000D03*
D21*
X52832000Y25527000D03*
X52832000Y24003000D03*
X55118000Y20828000D03*
X55118000Y22352000D03*
D27*
X27460000Y34290000D03*
X30960000Y34290000D03*
D28*
X29210000Y32040000D03*
X30810000Y32040000D03*
X30010000Y32040000D03*
X28410000Y32040000D03*
X27610000Y32040000D03*
D29*
X33410000Y32290000D03*
X25010000Y32290000D03*
X25010000Y37590000D03*
X33410000Y37590000D03*
D30*
X10160000Y30474920D03*
X10160000Y26675080D03*
X10160000Y37459920D03*
X10160000Y33660080D03*
X10160000Y17785080D03*
X10160000Y21584920D03*
D31*
X54991000Y36830000D03*
X62230000Y11049000D03*
X36449000Y3810000D03*
X21336000Y1016000D03*
X13208000Y2413000D03*
X20701000Y13081000D03*
X45212000Y12065000D03*
X27622500Y29210000D03*
X27622500Y26670000D03*
X17780000Y27559000D03*
X17399000Y26670000D03*
X18161000Y26670000D03*
X27622500Y30480000D03*
X21844000Y34036000D03*
X38227000Y16446500D03*
X40132000Y16446500D03*
X17780000Y37465000D03*
X25146000Y15875000D03*
X24384000Y26670000D03*
X34925000Y29591000D03*
X35864800Y28397200D03*
X31292800Y23825200D03*
X29972000Y21336000D03*
X29972000Y19304000D03*
X25654000Y22606000D03*
X45974000Y28067000D03*
X53975000Y20193000D03*
X31242000Y30353000D03*
X24384000Y35560000D03*
X42418000Y22352000D03*
X41656000Y22225000D03*
X45212000Y15875000D03*
X44450000Y14986000D03*
X21336000Y7239000D03*
X19812000Y10795000D03*
X10922000Y11430000D03*
X10922000Y6350000D03*
X10922000Y13970000D03*
X36449000Y17653000D03*
X38735000Y12446000D03*
X36449000Y16510000D03*
X47117000Y25908000D03*
X53975000Y21590000D03*
X51181000Y24892000D03*
M02*
