%TF.FileFunction,Legend,Top*%
%FSLAX46Y46*%
G04 Gerber Fmt 4.6, Leading zero omitted, Abs format (unit mm)*
G04 Created by KiCad (PCBNEW (2014-09-08 BZR 5122)-product) date Wed 17 Dec 2014 07:33:54 PM CET*
%MOMM*%
G01*
G04 APERTURE LIST*
%ADD10C,0.020000*%
%ADD11C,0.120000*%
%ADD12C,0.150000*%
%ADD13C,0.200000*%
%ADD14C,0.100000*%
%ADD15C,0.254000*%
%ADD16C,0.406400*%
%ADD17C,0.381000*%
%ADD18C,0.127000*%
%ADD19C,0.114300*%
G04 APERTURE END LIST*
D10*
D11*
X21522429Y39457286D02*
X21551000Y39485857D01*
X21636714Y39514429D01*
X21693857Y39514429D01*
X21779572Y39485857D01*
X21836714Y39428714D01*
X21865286Y39371571D01*
X21893857Y39257286D01*
X21893857Y39171571D01*
X21865286Y39057286D01*
X21836714Y39000143D01*
X21779572Y38943000D01*
X21693857Y38914429D01*
X21636714Y38914429D01*
X21551000Y38943000D01*
X21522429Y38971571D01*
X21179572Y39514429D02*
X21236714Y39485857D01*
X21265286Y39457286D01*
X21293857Y39400143D01*
X21293857Y39228714D01*
X21265286Y39171571D01*
X21236714Y39143000D01*
X21179572Y39114429D01*
X21093857Y39114429D01*
X21036714Y39143000D01*
X21008143Y39171571D01*
X20979572Y39228714D01*
X20979572Y39400143D01*
X21008143Y39457286D01*
X21036714Y39485857D01*
X21093857Y39514429D01*
X21179572Y39514429D01*
X20722429Y39114429D02*
X20722429Y39714429D01*
X20722429Y39143000D02*
X20665286Y39114429D01*
X20551000Y39114429D01*
X20493857Y39143000D01*
X20465286Y39171571D01*
X20436715Y39228714D01*
X20436715Y39400143D01*
X20465286Y39457286D01*
X20493857Y39485857D01*
X20551000Y39514429D01*
X20665286Y39514429D01*
X20722429Y39485857D01*
X20236715Y39114429D02*
X20093858Y39514429D01*
X19951000Y39114429D02*
X20093858Y39514429D01*
X20151000Y39657286D01*
X20179572Y39685857D01*
X20236715Y39714429D01*
X19722429Y39514429D02*
X19722429Y39114429D01*
X19722429Y39228714D02*
X19693857Y39171571D01*
X19665286Y39143000D01*
X19608143Y39114429D01*
X19551000Y39114429D01*
X19351000Y39514429D02*
X19351000Y39114429D01*
X19351000Y38914429D02*
X19379571Y38943000D01*
X19351000Y38971571D01*
X19322428Y38943000D01*
X19351000Y38914429D01*
X19351000Y38971571D01*
X18808143Y39114429D02*
X18808143Y39600143D01*
X18836714Y39657286D01*
X18865286Y39685857D01*
X18922429Y39714429D01*
X19008143Y39714429D01*
X19065286Y39685857D01*
X18808143Y39485857D02*
X18865286Y39514429D01*
X18979572Y39514429D01*
X19036714Y39485857D01*
X19065286Y39457286D01*
X19093857Y39400143D01*
X19093857Y39228714D01*
X19065286Y39171571D01*
X19036714Y39143000D01*
X18979572Y39114429D01*
X18865286Y39114429D01*
X18808143Y39143000D01*
X18522429Y39514429D02*
X18522429Y38914429D01*
X18265286Y39514429D02*
X18265286Y39200143D01*
X18293857Y39143000D01*
X18351000Y39114429D01*
X18436715Y39114429D01*
X18493857Y39143000D01*
X18522429Y39171571D01*
X18065286Y39114429D02*
X17836715Y39114429D01*
X17979572Y38914429D02*
X17979572Y39428714D01*
X17951000Y39485857D01*
X17893858Y39514429D01*
X17836715Y39514429D01*
X17208143Y38971571D02*
X17179572Y38943000D01*
X17122429Y38914429D01*
X16979572Y38914429D01*
X16922429Y38943000D01*
X16893858Y38971571D01*
X16865286Y39028714D01*
X16865286Y39085857D01*
X16893858Y39171571D01*
X17236715Y39514429D01*
X16865286Y39514429D01*
X16493857Y38914429D02*
X16436714Y38914429D01*
X16379571Y38943000D01*
X16351000Y38971571D01*
X16322429Y39028714D01*
X16293857Y39143000D01*
X16293857Y39285857D01*
X16322429Y39400143D01*
X16351000Y39457286D01*
X16379571Y39485857D01*
X16436714Y39514429D01*
X16493857Y39514429D01*
X16551000Y39485857D01*
X16579571Y39457286D01*
X16608143Y39400143D01*
X16636714Y39285857D01*
X16636714Y39143000D01*
X16608143Y39028714D01*
X16579571Y38971571D01*
X16551000Y38943000D01*
X16493857Y38914429D01*
X15722428Y39514429D02*
X16065285Y39514429D01*
X15893857Y39514429D02*
X15893857Y38914429D01*
X15951000Y39000143D01*
X16008142Y39057286D01*
X16065285Y39085857D01*
X15208142Y39114429D02*
X15208142Y39514429D01*
X15350999Y38885857D02*
X15493856Y39314429D01*
X15122428Y39314429D01*
X14436713Y39514429D02*
X14436713Y38914429D01*
X14436713Y39143000D02*
X14379570Y39114429D01*
X14265284Y39114429D01*
X14208141Y39143000D01*
X14179570Y39171571D01*
X14150999Y39228714D01*
X14150999Y39400143D01*
X14179570Y39457286D01*
X14208141Y39485857D01*
X14265284Y39514429D01*
X14379570Y39514429D01*
X14436713Y39485857D01*
X13950999Y39114429D02*
X13808142Y39514429D01*
X13665284Y39114429D02*
X13808142Y39514429D01*
X13865284Y39657286D01*
X13893856Y39685857D01*
X13950999Y39714429D01*
X13008141Y39485857D02*
X12922427Y39514429D01*
X12779570Y39514429D01*
X12722427Y39485857D01*
X12693856Y39457286D01*
X12665284Y39400143D01*
X12665284Y39343000D01*
X12693856Y39285857D01*
X12722427Y39257286D01*
X12779570Y39228714D01*
X12893856Y39200143D01*
X12950998Y39171571D01*
X12979570Y39143000D01*
X13008141Y39085857D01*
X13008141Y39028714D01*
X12979570Y38971571D01*
X12950998Y38943000D01*
X12893856Y38914429D01*
X12750998Y38914429D01*
X12665284Y38943000D01*
X12408141Y39514429D02*
X12408141Y39114429D01*
X12408141Y38914429D02*
X12436712Y38943000D01*
X12408141Y38971571D01*
X12379569Y38943000D01*
X12408141Y38914429D01*
X12408141Y38971571D01*
X12122427Y39514429D02*
X12122427Y39114429D01*
X12122427Y39171571D02*
X12093855Y39143000D01*
X12036713Y39114429D01*
X11950998Y39114429D01*
X11893855Y39143000D01*
X11865284Y39200143D01*
X11865284Y39514429D01*
X11865284Y39200143D02*
X11836713Y39143000D01*
X11779570Y39114429D01*
X11693855Y39114429D01*
X11636713Y39143000D01*
X11608141Y39200143D01*
X11608141Y39514429D01*
X11236713Y39514429D02*
X11293855Y39485857D01*
X11322427Y39457286D01*
X11350998Y39400143D01*
X11350998Y39228714D01*
X11322427Y39171571D01*
X11293855Y39143000D01*
X11236713Y39114429D01*
X11150998Y39114429D01*
X11093855Y39143000D01*
X11065284Y39171571D01*
X11036713Y39228714D01*
X11036713Y39400143D01*
X11065284Y39457286D01*
X11093855Y39485857D01*
X11150998Y39514429D01*
X11236713Y39514429D01*
X10779570Y39114429D02*
X10779570Y39514429D01*
X10779570Y39171571D02*
X10750998Y39143000D01*
X10693856Y39114429D01*
X10608141Y39114429D01*
X10550998Y39143000D01*
X10522427Y39200143D01*
X10522427Y39514429D01*
X9465284Y38943000D02*
X9522427Y38914429D01*
X9608141Y38914429D01*
X9693856Y38943000D01*
X9750998Y39000143D01*
X9779570Y39057286D01*
X9808141Y39171571D01*
X9808141Y39257286D01*
X9779570Y39371571D01*
X9750998Y39428714D01*
X9693856Y39485857D01*
X9608141Y39514429D01*
X9550998Y39514429D01*
X9465284Y39485857D01*
X9436713Y39457286D01*
X9436713Y39257286D01*
X9550998Y39257286D01*
X8922427Y39514429D02*
X8922427Y39200143D01*
X8950998Y39143000D01*
X9008141Y39114429D01*
X9122427Y39114429D01*
X9179570Y39143000D01*
X8922427Y39485857D02*
X8979570Y39514429D01*
X9122427Y39514429D01*
X9179570Y39485857D01*
X9208141Y39428714D01*
X9208141Y39371571D01*
X9179570Y39314429D01*
X9122427Y39285857D01*
X8979570Y39285857D01*
X8922427Y39257286D01*
X8636713Y39114429D02*
X8636713Y39514429D01*
X8636713Y39171571D02*
X8608141Y39143000D01*
X8550999Y39114429D01*
X8465284Y39114429D01*
X8408141Y39143000D01*
X8379570Y39200143D01*
X8379570Y39514429D01*
X8122427Y39485857D02*
X8065284Y39514429D01*
X7950999Y39514429D01*
X7893856Y39485857D01*
X7865284Y39428714D01*
X7865284Y39400143D01*
X7893856Y39343000D01*
X7950999Y39314429D01*
X8036713Y39314429D01*
X8093856Y39285857D01*
X8122427Y39228714D01*
X8122427Y39200143D01*
X8093856Y39143000D01*
X8036713Y39114429D01*
X7950999Y39114429D01*
X7893856Y39143000D01*
X7379570Y39485857D02*
X7436713Y39514429D01*
X7550999Y39514429D01*
X7608142Y39485857D01*
X7636713Y39428714D01*
X7636713Y39200143D01*
X7608142Y39143000D01*
X7550999Y39114429D01*
X7436713Y39114429D01*
X7379570Y39143000D01*
X7350999Y39200143D01*
X7350999Y39257286D01*
X7636713Y39314429D01*
X7093856Y39114429D02*
X7093856Y39514429D01*
X7093856Y39171571D02*
X7065284Y39143000D01*
X7008142Y39114429D01*
X6922427Y39114429D01*
X6865284Y39143000D01*
X6836713Y39200143D01*
X6836713Y39514429D01*
D12*
X28212810Y13339714D02*
X28212810Y11539714D01*
X28831857Y12396857D02*
X28893762Y12225429D01*
X29017572Y12139714D01*
X28212810Y12396857D02*
X28274715Y12225429D01*
X28398524Y12139714D01*
X28646143Y12139714D01*
X28769953Y12225429D01*
X28831857Y12396857D01*
X28831857Y13339714D01*
X29574715Y12139714D02*
X29574715Y13939714D01*
X30008048Y12654000D01*
X30441381Y13939714D01*
X30441381Y12139714D01*
X31060429Y12139714D02*
X31060429Y13939714D01*
X31679477Y12139714D02*
X31679477Y13939714D01*
X31989001Y13939714D01*
X32174715Y13854000D01*
X32298524Y13682571D01*
X32360429Y13511143D01*
X32422334Y13168286D01*
X32422334Y12911143D01*
X32360429Y12568286D01*
X32298524Y12396857D01*
X32174715Y12225429D01*
X31989001Y12139714D01*
X31679477Y12139714D01*
X32979477Y12139714D02*
X32979477Y13939714D01*
X34836620Y13939714D02*
X34960429Y13939714D01*
X35084239Y13854000D01*
X35146144Y13768286D01*
X35208048Y13596857D01*
X35269953Y13254000D01*
X35269953Y12825429D01*
X35208048Y12482571D01*
X35146144Y12311143D01*
X35084239Y12225429D01*
X34960429Y12139714D01*
X34836620Y12139714D01*
X34712810Y12225429D01*
X34650906Y12311143D01*
X34589001Y12482571D01*
X34527096Y12825429D01*
X34527096Y13254000D01*
X34589001Y13596857D01*
X34650906Y13768286D01*
X34712810Y13854000D01*
X34836620Y13939714D01*
X35827096Y12311143D02*
X35889001Y12225429D01*
X35827096Y12139714D01*
X35765191Y12225429D01*
X35827096Y12311143D01*
X35827096Y12139714D01*
X36384239Y13768286D02*
X36446144Y13854000D01*
X36569953Y13939714D01*
X36879477Y13939714D01*
X37003287Y13854000D01*
X37065191Y13768286D01*
X37127096Y13596857D01*
X37127096Y13425429D01*
X37065191Y13168286D01*
X36322334Y12139714D01*
X37127096Y12139714D01*
X21799856Y12998429D02*
X22104618Y12998429D01*
X21914142Y13265095D02*
X21914142Y12579381D01*
X21952237Y12503190D01*
X22028428Y12465095D01*
X22104618Y12465095D01*
X22371285Y12465095D02*
X22371285Y13265095D01*
X22714142Y12465095D02*
X22714142Y12884143D01*
X22676047Y12960333D01*
X22599857Y12998429D01*
X22485571Y12998429D01*
X22409380Y12960333D01*
X22371285Y12922238D01*
X23095095Y12465095D02*
X23095095Y12998429D01*
X23095095Y12846048D02*
X23133190Y12922238D01*
X23171286Y12960333D01*
X23247476Y12998429D01*
X23323667Y12998429D01*
X23933190Y12998429D02*
X23933190Y12465095D01*
X23590333Y12998429D02*
X23590333Y12579381D01*
X23628428Y12503190D01*
X23704619Y12465095D01*
X23818905Y12465095D01*
X23895095Y12503190D01*
X23933190Y12541286D01*
X24504619Y12198429D02*
X24504619Y13341286D01*
X25190334Y12465095D02*
X25114143Y12503190D01*
X25076048Y12541286D01*
X25037953Y12617476D01*
X25037953Y12846048D01*
X25076048Y12922238D01*
X25114143Y12960333D01*
X25190334Y12998429D01*
X25304620Y12998429D01*
X25380810Y12960333D01*
X25418905Y12922238D01*
X25457001Y12846048D01*
X25457001Y12617476D01*
X25418905Y12541286D01*
X25380810Y12503190D01*
X25304620Y12465095D01*
X25190334Y12465095D01*
X26142715Y12998429D02*
X26142715Y12465095D01*
X25799858Y12998429D02*
X25799858Y12579381D01*
X25837953Y12503190D01*
X25914144Y12465095D01*
X26028430Y12465095D01*
X26104620Y12503190D01*
X26142715Y12541286D01*
X26409382Y12998429D02*
X26714144Y12998429D01*
X26523668Y13265095D02*
X26523668Y12579381D01*
X26561763Y12503190D01*
X26637954Y12465095D01*
X26714144Y12465095D01*
D13*
X762000Y11430000D02*
X1016000Y11176000D01*
X762000Y11430000D02*
X1016000Y11684000D01*
X762000Y16510000D02*
X1016000Y16256000D01*
X762000Y16510000D02*
X1016000Y16764000D01*
X762000Y21590000D02*
X1016000Y21336000D01*
X762000Y21590000D02*
X1016000Y21844000D01*
X1778000Y11430000D02*
X762000Y11430000D01*
X1778000Y16510000D02*
X762000Y16510000D01*
X1778000Y21590000D02*
X762000Y21590000D01*
X1778000Y26670000D02*
X1524000Y26416000D01*
X1778000Y26670000D02*
X1524000Y26924000D01*
X1778000Y26670000D02*
X762000Y26670000D01*
D12*
X1227143Y31994286D02*
X1227143Y31537143D01*
X998571Y31765714D02*
X1455714Y31765714D01*
X1227143Y29422857D02*
X1227143Y28965714D01*
X6078571Y11888571D02*
X6678571Y11888571D01*
X6250000Y11688571D01*
X6678571Y11488571D01*
X6078571Y11488571D01*
X6078571Y11202857D02*
X6678571Y11202857D01*
X6078571Y10917143D02*
X6678571Y10917143D01*
X6678571Y10774286D01*
X6650000Y10688571D01*
X6592857Y10631429D01*
X6535714Y10602857D01*
X6421429Y10574286D01*
X6335714Y10574286D01*
X6221429Y10602857D01*
X6164286Y10631429D01*
X6107143Y10688571D01*
X6078571Y10774286D01*
X6078571Y10917143D01*
X6078571Y10317143D02*
X6678571Y10317143D01*
X6078571Y9488572D02*
X6107143Y9545714D01*
X6135714Y9574286D01*
X6192857Y9602857D01*
X6364286Y9602857D01*
X6421429Y9574286D01*
X6450000Y9545714D01*
X6478571Y9488572D01*
X6478571Y9402857D01*
X6450000Y9345714D01*
X6421429Y9317143D01*
X6364286Y9288572D01*
X6192857Y9288572D01*
X6135714Y9317143D01*
X6107143Y9345714D01*
X6078571Y9402857D01*
X6078571Y9488572D01*
X6478571Y8774286D02*
X6078571Y8774286D01*
X6478571Y9031429D02*
X6164286Y9031429D01*
X6107143Y9002857D01*
X6078571Y8945715D01*
X6078571Y8860000D01*
X6107143Y8802857D01*
X6135714Y8774286D01*
X6478571Y8574286D02*
X6478571Y8345715D01*
X6678571Y8488572D02*
X6164286Y8488572D01*
X6107143Y8460000D01*
X6078571Y8402858D01*
X6078571Y8345715D01*
X6478571Y17568571D02*
X6478571Y17340000D01*
X6678571Y17482857D02*
X6164286Y17482857D01*
X6107143Y17454285D01*
X6078571Y17397143D01*
X6078571Y17340000D01*
X6078571Y17140000D02*
X6678571Y17140000D01*
X6078571Y16882857D02*
X6392857Y16882857D01*
X6450000Y16911428D01*
X6478571Y16968571D01*
X6478571Y17054286D01*
X6450000Y17111428D01*
X6421429Y17140000D01*
X6078571Y16597143D02*
X6478571Y16597143D01*
X6364286Y16597143D02*
X6421429Y16568571D01*
X6450000Y16540000D01*
X6478571Y16482857D01*
X6478571Y16425714D01*
X6478571Y15968571D02*
X6078571Y15968571D01*
X6478571Y16225714D02*
X6164286Y16225714D01*
X6107143Y16197142D01*
X6078571Y16140000D01*
X6078571Y16054285D01*
X6107143Y15997142D01*
X6135714Y15968571D01*
X6707143Y14797142D02*
X5935714Y15311428D01*
X6078571Y14054286D02*
X6107143Y14111428D01*
X6135714Y14140000D01*
X6192857Y14168571D01*
X6364286Y14168571D01*
X6421429Y14140000D01*
X6450000Y14111428D01*
X6478571Y14054286D01*
X6478571Y13968571D01*
X6450000Y13911428D01*
X6421429Y13882857D01*
X6364286Y13854286D01*
X6192857Y13854286D01*
X6135714Y13882857D01*
X6107143Y13911428D01*
X6078571Y13968571D01*
X6078571Y14054286D01*
X6478571Y13340000D02*
X6078571Y13340000D01*
X6478571Y13597143D02*
X6164286Y13597143D01*
X6107143Y13568571D01*
X6078571Y13511429D01*
X6078571Y13425714D01*
X6107143Y13368571D01*
X6135714Y13340000D01*
X6478571Y13140000D02*
X6478571Y12911429D01*
X6678571Y13054286D02*
X6164286Y13054286D01*
X6107143Y13025714D01*
X6078571Y12968572D01*
X6078571Y12911429D01*
X6078571Y26828571D02*
X6678571Y26828571D01*
X6250000Y26628571D01*
X6678571Y26428571D01*
X6078571Y26428571D01*
X6078571Y26142857D02*
X6678571Y26142857D01*
X6078571Y25857143D02*
X6678571Y25857143D01*
X6678571Y25714286D01*
X6650000Y25628571D01*
X6592857Y25571429D01*
X6535714Y25542857D01*
X6421429Y25514286D01*
X6335714Y25514286D01*
X6221429Y25542857D01*
X6164286Y25571429D01*
X6107143Y25628571D01*
X6078571Y25714286D01*
X6078571Y25857143D01*
X6078571Y25257143D02*
X6678571Y25257143D01*
X6078571Y24514286D02*
X6478571Y24514286D01*
X6678571Y24514286D02*
X6650000Y24542857D01*
X6621429Y24514286D01*
X6650000Y24485714D01*
X6678571Y24514286D01*
X6621429Y24514286D01*
X6478571Y24228572D02*
X6078571Y24228572D01*
X6421429Y24228572D02*
X6450000Y24200000D01*
X6478571Y24142858D01*
X6478571Y24057143D01*
X6450000Y24000000D01*
X6392857Y23971429D01*
X6078571Y23971429D01*
X6078571Y22234285D02*
X6678571Y22234285D01*
X6250000Y22034285D01*
X6678571Y21834285D01*
X6078571Y21834285D01*
X6078571Y21548571D02*
X6678571Y21548571D01*
X6078571Y21262857D02*
X6678571Y21262857D01*
X6678571Y21120000D01*
X6650000Y21034285D01*
X6592857Y20977143D01*
X6535714Y20948571D01*
X6421429Y20920000D01*
X6335714Y20920000D01*
X6221429Y20948571D01*
X6164286Y20977143D01*
X6107143Y21034285D01*
X6078571Y21120000D01*
X6078571Y21262857D01*
X6078571Y20662857D02*
X6678571Y20662857D01*
X6478571Y20005714D02*
X6478571Y19777143D01*
X6678571Y19920000D02*
X6164286Y19920000D01*
X6107143Y19891428D01*
X6078571Y19834286D01*
X6078571Y19777143D01*
X6078571Y19577143D02*
X6678571Y19577143D01*
X6078571Y19320000D02*
X6392857Y19320000D01*
X6450000Y19348571D01*
X6478571Y19405714D01*
X6478571Y19491429D01*
X6450000Y19548571D01*
X6421429Y19577143D01*
X6078571Y19034286D02*
X6478571Y19034286D01*
X6364286Y19034286D02*
X6421429Y19005714D01*
X6450000Y18977143D01*
X6478571Y18920000D01*
X6478571Y18862857D01*
X6478571Y18405714D02*
X6078571Y18405714D01*
X6478571Y18662857D02*
X6164286Y18662857D01*
X6107143Y18634285D01*
X6078571Y18577143D01*
X6078571Y18491428D01*
X6107143Y18434285D01*
X6135714Y18405714D01*
X6678571Y31908572D02*
X6678571Y32194286D01*
X6392857Y32222857D01*
X6421429Y32194286D01*
X6450000Y32137143D01*
X6450000Y31994286D01*
X6421429Y31937143D01*
X6392857Y31908572D01*
X6335714Y31880000D01*
X6192857Y31880000D01*
X6135714Y31908572D01*
X6107143Y31937143D01*
X6078571Y31994286D01*
X6078571Y32137143D01*
X6107143Y32194286D01*
X6135714Y32222857D01*
X6135714Y31165714D02*
X6107143Y31137142D01*
X6078571Y31165714D01*
X6107143Y31194285D01*
X6135714Y31165714D01*
X6078571Y31165714D01*
X6135714Y30880000D02*
X6107143Y30851428D01*
X6078571Y30880000D01*
X6107143Y30908571D01*
X6135714Y30880000D01*
X6078571Y30880000D01*
X6078571Y29822857D02*
X6078571Y30165714D01*
X6078571Y29994286D02*
X6678571Y29994286D01*
X6592857Y30051429D01*
X6535714Y30108571D01*
X6507143Y30165714D01*
X6621429Y29594285D02*
X6650000Y29565714D01*
X6678571Y29508571D01*
X6678571Y29365714D01*
X6650000Y29308571D01*
X6621429Y29280000D01*
X6564286Y29251428D01*
X6507143Y29251428D01*
X6421429Y29280000D01*
X6078571Y29622857D01*
X6078571Y29251428D01*
X6678571Y29079999D02*
X6078571Y28879999D01*
X6678571Y28679999D01*
D14*
X66040000Y0D02*
X0Y0D01*
X0Y40640000D02*
X66040000Y40640000D01*
X0Y40640000D02*
X0Y0D01*
X66040000Y0D02*
X66040000Y40640000D01*
D12*
X24130000Y5080000D02*
X26670000Y5080000D01*
X26670000Y5080000D02*
X26670000Y2540000D01*
X24130000Y2540000D02*
X31750000Y2540000D01*
X31750000Y2540000D02*
X31750000Y7620000D01*
X31750000Y7620000D02*
X26670000Y7620000D01*
X24130000Y2540000D02*
X24130000Y5080000D01*
X24130000Y7620000D02*
X24130000Y5080000D01*
X26670000Y7620000D02*
X24130000Y7620000D01*
D15*
X36195000Y8890000D02*
X35560000Y9525000D01*
X36195000Y1270000D02*
X35560000Y635000D01*
X55245000Y1270000D02*
X55880000Y635000D01*
X55245000Y8890000D02*
X55880000Y9525000D01*
X47625000Y635000D02*
X47625000Y1270000D01*
X47625000Y1270000D02*
X55245000Y1270000D01*
X55245000Y1270000D02*
X55245000Y8890000D01*
X55245000Y8890000D02*
X36195000Y8890000D01*
X36195000Y8890000D02*
X36195000Y1270000D01*
X36195000Y1270000D02*
X43815000Y1270000D01*
X43815000Y1270000D02*
X43815000Y635000D01*
X35560000Y635000D02*
X55880000Y635000D01*
X55880000Y9525000D02*
X35560000Y9525000D01*
X35560000Y9525000D02*
X35560000Y635000D01*
X55880000Y9525000D02*
X55880000Y635000D01*
D16*
X38221920Y3111500D02*
X38920420Y2042160D01*
X38920420Y2042160D02*
X39621460Y3111500D01*
X39621460Y3111500D02*
X38221920Y3111500D01*
D15*
X57150000Y10795000D02*
X56515000Y10160000D01*
X64770000Y10795000D02*
X65405000Y10160000D01*
X64770000Y29845000D02*
X65405000Y30480000D01*
X57150000Y29845000D02*
X56515000Y30480000D01*
X65405000Y22225000D02*
X64770000Y22225000D01*
X64770000Y22225000D02*
X64770000Y29845000D01*
X64770000Y29845000D02*
X57150000Y29845000D01*
X57150000Y29845000D02*
X57150000Y10795000D01*
X57150000Y10795000D02*
X64770000Y10795000D01*
X64770000Y10795000D02*
X64770000Y18415000D01*
X64770000Y18415000D02*
X65405000Y18415000D01*
X65405000Y10160000D02*
X65405000Y30480000D01*
X56515000Y30480000D02*
X56515000Y10160000D01*
X56515000Y10160000D02*
X65405000Y10160000D01*
X56515000Y30480000D02*
X65405000Y30480000D01*
D16*
X62928500Y12821920D02*
X63997840Y13520420D01*
X63997840Y13520420D02*
X62928500Y14221460D01*
X62928500Y14221460D02*
X62928500Y12821920D01*
D15*
X55245000Y31750000D02*
X55880000Y31115000D01*
X55245000Y39370000D02*
X55880000Y40005000D01*
X36195000Y39370000D02*
X35560000Y40005000D01*
X36195000Y31750000D02*
X35560000Y31115000D01*
X43815000Y40005000D02*
X43815000Y39370000D01*
X43815000Y39370000D02*
X36195000Y39370000D01*
X36195000Y39370000D02*
X36195000Y31750000D01*
X36195000Y31750000D02*
X55245000Y31750000D01*
X55245000Y31750000D02*
X55245000Y39370000D01*
X55245000Y39370000D02*
X47625000Y39370000D01*
X47625000Y39370000D02*
X47625000Y40005000D01*
X55880000Y40005000D02*
X35560000Y40005000D01*
X35560000Y31115000D02*
X55880000Y31115000D01*
X55880000Y31115000D02*
X55880000Y40005000D01*
X35560000Y31115000D02*
X35560000Y40005000D01*
D16*
X53218080Y37528500D02*
X52519580Y38597840D01*
X52519580Y38597840D02*
X51818540Y37528500D01*
X51818540Y37528500D02*
X53218080Y37528500D01*
D17*
X6096000Y36830000D02*
G75*
G03X6096000Y36830000I-2286000J0D01*
G74*
G01*
X6096000Y3810000D02*
G75*
G03X6096000Y3810000I-2286000J0D01*
G74*
G01*
X64516000Y3810000D02*
G75*
G03X64516000Y3810000I-2286000J0D01*
G74*
G01*
X64516000Y36830000D02*
G75*
G03X64516000Y36830000I-2286000J0D01*
G74*
G01*
D12*
X17809981Y23241000D02*
G75*
G03X17809981Y23241000I-283981J0D01*
G74*
G01*
X16510000Y24130000D02*
X16510000Y15240000D01*
X22352000Y24130000D02*
X22352000Y15240000D01*
X22352000Y15240000D02*
X15748000Y15240000D01*
X15748000Y15240000D02*
X15748000Y24130000D01*
X15748000Y24130000D02*
X22352000Y24130000D01*
D18*
X14732000Y27432000D02*
X17018000Y27432000D01*
X17018000Y25908000D02*
X14732000Y25908000D01*
X21717000Y27432000D02*
X24003000Y27432000D01*
X24003000Y25908000D02*
X21717000Y25908000D01*
X18161000Y13843000D02*
X20447000Y13843000D01*
X20447000Y12319000D02*
X18161000Y12319000D01*
X20828000Y25908000D02*
X18542000Y25908000D01*
X18542000Y27432000D02*
X20828000Y27432000D01*
X22606000Y36830000D02*
X22606000Y34544000D01*
X21082000Y34544000D02*
X21082000Y36830000D01*
X27178000Y28448000D02*
X24892000Y28448000D01*
X24892000Y29972000D02*
X27178000Y29972000D01*
X53594000Y22733000D02*
X53594000Y20447000D01*
X52070000Y20447000D02*
X52070000Y22733000D01*
X40894000Y19177000D02*
X40894000Y16891000D01*
X39370000Y16891000D02*
X39370000Y19177000D01*
X45212000Y25400000D02*
X45212000Y27686000D01*
X46736000Y27686000D02*
X46736000Y25400000D01*
X46990000Y14351000D02*
X46990000Y12065000D01*
X45466000Y12065000D02*
X45466000Y14351000D01*
X44958000Y14351000D02*
X44958000Y12065000D01*
X43434000Y12065000D02*
X43434000Y14351000D01*
X38989000Y19177000D02*
X38989000Y16891000D01*
X37465000Y16891000D02*
X37465000Y19177000D01*
X22098000Y3683000D02*
X22098000Y1397000D01*
X20574000Y1397000D02*
X20574000Y3683000D01*
X31037962Y24622592D02*
X32654408Y26239038D01*
X33732038Y25161408D02*
X32115592Y23544962D01*
X36145038Y27574408D02*
X34528592Y25957962D01*
X33450962Y27035592D02*
X35067408Y28652038D01*
X34544000Y28829000D02*
X32258000Y28829000D01*
X32258000Y30353000D02*
X34544000Y30353000D01*
X32639000Y20574000D02*
X30353000Y20574000D01*
X30353000Y22098000D02*
X32639000Y22098000D01*
X32639000Y18542000D02*
X30353000Y18542000D01*
X30353000Y20066000D02*
X32639000Y20066000D01*
X41402000Y12065000D02*
X41402000Y14351000D01*
X42926000Y14351000D02*
X42926000Y12065000D01*
X33401000Y18034000D02*
X35687000Y18034000D01*
X35687000Y16510000D02*
X33401000Y16510000D01*
X22098000Y6858000D02*
X22098000Y4572000D01*
X20574000Y4572000D02*
X20574000Y6858000D01*
X11303000Y14478000D02*
X9017000Y14478000D01*
X9017000Y16002000D02*
X11303000Y16002000D01*
X11303000Y11938000D02*
X9017000Y11938000D01*
X9017000Y13462000D02*
X11303000Y13462000D01*
X11303000Y9398000D02*
X9017000Y9398000D01*
X9017000Y10922000D02*
X11303000Y10922000D01*
X11303000Y6858000D02*
X9017000Y6858000D01*
X9017000Y8382000D02*
X11303000Y8382000D01*
X11303000Y4318000D02*
X9017000Y4318000D01*
X9017000Y5842000D02*
X11303000Y5842000D01*
X11303000Y1778000D02*
X9017000Y1778000D01*
X9017000Y3302000D02*
X11303000Y3302000D01*
X11303000Y23368000D02*
X9017000Y23368000D01*
X9017000Y24892000D02*
X11303000Y24892000D01*
X26162000Y17653000D02*
X26162000Y19939000D01*
X27686000Y19939000D02*
X27686000Y17653000D01*
X39370000Y12065000D02*
X39370000Y14351000D01*
X40894000Y14351000D02*
X40894000Y12065000D01*
X24892000Y27432000D02*
X27178000Y27432000D01*
X27178000Y25908000D02*
X24892000Y25908000D01*
X35687000Y20574000D02*
X33401000Y20574000D01*
X33401000Y22098000D02*
X35687000Y22098000D01*
X35687000Y18542000D02*
X33401000Y18542000D01*
X33401000Y20066000D02*
X35687000Y20066000D01*
X27686000Y22987000D02*
X27686000Y20701000D01*
X26162000Y20701000D02*
X26162000Y22987000D01*
D15*
X5310000Y27940000D02*
X2310000Y27940000D01*
X5310000Y22860000D02*
X2310000Y22860000D01*
X5310000Y22860000D02*
X2310000Y22860000D01*
X5310000Y17780000D02*
X2310000Y17780000D01*
X5310000Y17780000D02*
X2310000Y17780000D01*
X5310000Y12700000D02*
X2310000Y12700000D01*
X5310000Y12700000D02*
X2310000Y12700000D01*
X5310000Y7620000D02*
X2310000Y7620000D01*
X5310000Y33020000D02*
X2310000Y33020000D01*
X5310000Y27940000D02*
X2310000Y27940000D01*
D12*
X43290000Y16620000D02*
X43290000Y17320000D01*
X43990000Y24020000D02*
X43290000Y24020000D01*
X43290000Y24020000D02*
X43290000Y23320000D01*
X43990000Y16620000D02*
X43290000Y16620000D01*
X50690000Y23320000D02*
X50690000Y24020000D01*
X50690000Y24020000D02*
X49990000Y24020000D01*
X50690000Y17320000D02*
X50690000Y16620000D01*
X50690000Y16620000D02*
X49990000Y16620000D01*
X51131421Y16320000D02*
G75*
G03X51131421Y16320000I-141421J0D01*
G74*
G01*
X15357843Y10785000D02*
G75*
G03X15357843Y10785000I-282843J0D01*
G74*
G01*
X14475000Y11385000D02*
X14475000Y2585000D01*
X13975000Y2585000D02*
X13975000Y11385000D01*
X17775000Y2585000D02*
X17775000Y11385000D01*
X17775000Y2585000D02*
X13975000Y2585000D01*
X13975000Y11385000D02*
X17775000Y11385000D01*
D18*
X53594000Y25908000D02*
X53594000Y23622000D01*
X52070000Y23622000D02*
X52070000Y25908000D01*
X54356000Y20447000D02*
X54356000Y22733000D01*
X55880000Y22733000D02*
X55880000Y20447000D01*
D12*
X33060000Y40690000D02*
X25360000Y40690000D01*
X33060000Y38890000D02*
X33060000Y40690000D01*
X25360000Y38890000D02*
X25360000Y40690000D01*
X25360000Y33590000D02*
X25360000Y36290000D01*
X33060000Y33590000D02*
X33060000Y36290000D01*
X12065000Y30861000D02*
X12065000Y26289000D01*
X12065000Y26289000D02*
X11430000Y26289000D01*
X8255000Y27914600D02*
X12065000Y27914600D01*
X8255000Y27711400D02*
X12065000Y27711400D01*
X8890000Y30861000D02*
X8255000Y30861000D01*
X8255000Y30861000D02*
X8255000Y26289000D01*
X8255000Y26289000D02*
X8890000Y26289000D01*
X11430000Y30861000D02*
X12065000Y30861000D01*
X12065000Y37846000D02*
X12065000Y33274000D01*
X12065000Y33274000D02*
X11430000Y33274000D01*
X8255000Y34899600D02*
X12065000Y34899600D01*
X8255000Y34696400D02*
X12065000Y34696400D01*
X8890000Y37846000D02*
X8255000Y37846000D01*
X8255000Y37846000D02*
X8255000Y33274000D01*
X8255000Y33274000D02*
X8890000Y33274000D01*
X11430000Y37846000D02*
X12065000Y37846000D01*
X8255000Y17399000D02*
X8255000Y21971000D01*
X8255000Y21971000D02*
X8890000Y21971000D01*
X12065000Y20345400D02*
X8255000Y20345400D01*
X12065000Y20548600D02*
X8255000Y20548600D01*
X11430000Y17399000D02*
X12065000Y17399000D01*
X12065000Y17399000D02*
X12065000Y21971000D01*
X12065000Y21971000D02*
X11430000Y21971000D01*
X8890000Y17399000D02*
X8255000Y17399000D01*
X23844334Y10344095D02*
X23844334Y9772667D01*
X23806238Y9658381D01*
X23730048Y9582190D01*
X23615762Y9544095D01*
X23539572Y9544095D01*
X24225286Y9544095D02*
X24225286Y10344095D01*
X24530048Y10344095D01*
X24606239Y10306000D01*
X24644334Y10267905D01*
X24682429Y10191714D01*
X24682429Y10077429D01*
X24644334Y10001238D01*
X24606239Y9963143D01*
X24530048Y9925048D01*
X24225286Y9925048D01*
X25444334Y9544095D02*
X24987191Y9544095D01*
X25215762Y9544095D02*
X25215762Y10344095D01*
X25139572Y10229810D01*
X25063381Y10153619D01*
X24987191Y10115524D01*
D13*
X26940000Y8310619D02*
X26940000Y9310619D01*
X27320953Y9310619D01*
X27416191Y9263000D01*
X27463810Y9215381D01*
X27511429Y9120143D01*
X27511429Y8977286D01*
X27463810Y8882048D01*
X27416191Y8834429D01*
X27320953Y8786810D01*
X26940000Y8786810D01*
X27940000Y8310619D02*
X27940000Y9310619D01*
X28178095Y9310619D01*
X28320953Y9263000D01*
X28416191Y9167762D01*
X28463810Y9072524D01*
X28511429Y8882048D01*
X28511429Y8739190D01*
X28463810Y8548714D01*
X28416191Y8453476D01*
X28320953Y8358238D01*
X28178095Y8310619D01*
X27940000Y8310619D01*
X28940000Y8310619D02*
X28940000Y9310619D01*
X50593810Y11295000D02*
X50498572Y11342619D01*
X50355715Y11342619D01*
X50212857Y11295000D01*
X50117619Y11199762D01*
X50070000Y11104524D01*
X50022381Y10914048D01*
X50022381Y10771190D01*
X50070000Y10580714D01*
X50117619Y10485476D01*
X50212857Y10390238D01*
X50355715Y10342619D01*
X50450953Y10342619D01*
X50593810Y10390238D01*
X50641429Y10437857D01*
X50641429Y10771190D01*
X50450953Y10771190D01*
X51070000Y10342619D02*
X51070000Y11342619D01*
X51450953Y11342619D01*
X51546191Y11295000D01*
X51593810Y11247381D01*
X51641429Y11152143D01*
X51641429Y11009286D01*
X51593810Y10914048D01*
X51546191Y10866429D01*
X51450953Y10818810D01*
X51070000Y10818810D01*
X52070000Y10342619D02*
X52070000Y11342619D01*
X52736666Y11342619D02*
X52927143Y11342619D01*
X53022381Y11295000D01*
X53117619Y11199762D01*
X53165238Y11009286D01*
X53165238Y10675952D01*
X53117619Y10485476D01*
X53022381Y10390238D01*
X52927143Y10342619D01*
X52736666Y10342619D01*
X52641428Y10390238D01*
X52546190Y10485476D01*
X52498571Y10675952D01*
X52498571Y11009286D01*
X52546190Y11199762D01*
X52641428Y11295000D01*
X52736666Y11342619D01*
X54117619Y10342619D02*
X53546190Y10342619D01*
X53831904Y10342619D02*
X53831904Y11342619D01*
X53736666Y11199762D01*
X53641428Y11104524D01*
X53546190Y11056905D01*
X54745000Y25193810D02*
X54697381Y25098572D01*
X54697381Y24955715D01*
X54745000Y24812857D01*
X54840238Y24717619D01*
X54935476Y24670000D01*
X55125952Y24622381D01*
X55268810Y24622381D01*
X55459286Y24670000D01*
X55554524Y24717619D01*
X55649762Y24812857D01*
X55697381Y24955715D01*
X55697381Y25050953D01*
X55649762Y25193810D01*
X55602143Y25241429D01*
X55268810Y25241429D01*
X55268810Y25050953D01*
X55697381Y25670000D02*
X54697381Y25670000D01*
X54697381Y26050953D01*
X54745000Y26146191D01*
X54792619Y26193810D01*
X54887857Y26241429D01*
X55030714Y26241429D01*
X55125952Y26193810D01*
X55173571Y26146191D01*
X55221190Y26050953D01*
X55221190Y25670000D01*
X55697381Y26670000D02*
X54697381Y26670000D01*
X54697381Y27336666D02*
X54697381Y27527143D01*
X54745000Y27622381D01*
X54840238Y27717619D01*
X55030714Y27765238D01*
X55364048Y27765238D01*
X55554524Y27717619D01*
X55649762Y27622381D01*
X55697381Y27527143D01*
X55697381Y27336666D01*
X55649762Y27241428D01*
X55554524Y27146190D01*
X55364048Y27098571D01*
X55030714Y27098571D01*
X54840238Y27146190D01*
X54745000Y27241428D01*
X54697381Y27336666D01*
X54792619Y28146190D02*
X54745000Y28193809D01*
X54697381Y28289047D01*
X54697381Y28527143D01*
X54745000Y28622381D01*
X54792619Y28670000D01*
X54887857Y28717619D01*
X54983095Y28717619D01*
X55125952Y28670000D01*
X55697381Y28098571D01*
X55697381Y28717619D01*
X37893810Y30345000D02*
X37798572Y30392619D01*
X37655715Y30392619D01*
X37512857Y30345000D01*
X37417619Y30249762D01*
X37370000Y30154524D01*
X37322381Y29964048D01*
X37322381Y29821190D01*
X37370000Y29630714D01*
X37417619Y29535476D01*
X37512857Y29440238D01*
X37655715Y29392619D01*
X37750953Y29392619D01*
X37893810Y29440238D01*
X37941429Y29487857D01*
X37941429Y29821190D01*
X37750953Y29821190D01*
X38370000Y29392619D02*
X38370000Y30392619D01*
X38750953Y30392619D01*
X38846191Y30345000D01*
X38893810Y30297381D01*
X38941429Y30202143D01*
X38941429Y30059286D01*
X38893810Y29964048D01*
X38846191Y29916429D01*
X38750953Y29868810D01*
X38370000Y29868810D01*
X39370000Y29392619D02*
X39370000Y30392619D01*
X40036666Y30392619D02*
X40227143Y30392619D01*
X40322381Y30345000D01*
X40417619Y30249762D01*
X40465238Y30059286D01*
X40465238Y29725952D01*
X40417619Y29535476D01*
X40322381Y29440238D01*
X40227143Y29392619D01*
X40036666Y29392619D01*
X39941428Y29440238D01*
X39846190Y29535476D01*
X39798571Y29725952D01*
X39798571Y30059286D01*
X39846190Y30249762D01*
X39941428Y30345000D01*
X40036666Y30392619D01*
X40798571Y30392619D02*
X41417619Y30392619D01*
X41084285Y30011667D01*
X41227143Y30011667D01*
X41322381Y29964048D01*
X41370000Y29916429D01*
X41417619Y29821190D01*
X41417619Y29583095D01*
X41370000Y29487857D01*
X41322381Y29440238D01*
X41227143Y29392619D01*
X40941428Y29392619D01*
X40846190Y29440238D01*
X40798571Y29487857D01*
D12*
X13823905Y31731048D02*
X13023905Y31731048D01*
X13747714Y32569143D02*
X13785810Y32531048D01*
X13823905Y32416762D01*
X13823905Y32340572D01*
X13785810Y32226286D01*
X13709619Y32150095D01*
X13633429Y32112000D01*
X13481048Y32073905D01*
X13366762Y32073905D01*
X13214381Y32112000D01*
X13138190Y32150095D01*
X13062000Y32226286D01*
X13023905Y32340572D01*
X13023905Y32416762D01*
X13062000Y32531048D01*
X13100095Y32569143D01*
X13023905Y32835810D02*
X13023905Y33331048D01*
X13328667Y33064381D01*
X13328667Y33178667D01*
X13366762Y33254857D01*
X13404857Y33292953D01*
X13481048Y33331048D01*
X13671524Y33331048D01*
X13747714Y33292953D01*
X13785810Y33254857D01*
X13823905Y33178667D01*
X13823905Y32950095D01*
X13785810Y32873905D01*
X13747714Y32835810D01*
X25761905Y18904048D02*
X24961905Y18904048D01*
X25685714Y19742143D02*
X25723810Y19704048D01*
X25761905Y19589762D01*
X25761905Y19513572D01*
X25723810Y19399286D01*
X25647619Y19323095D01*
X25571429Y19285000D01*
X25419048Y19246905D01*
X25304762Y19246905D01*
X25152381Y19285000D01*
X25076190Y19323095D01*
X25000000Y19399286D01*
X24961905Y19513572D01*
X24961905Y19589762D01*
X25000000Y19704048D01*
X25038095Y19742143D01*
X25228571Y20427857D02*
X25761905Y20427857D01*
X24923810Y20237381D02*
X25495238Y20046905D01*
X25495238Y20542143D01*
D19*
X15775000Y25058714D02*
X15746429Y25030143D01*
X15660715Y25001571D01*
X15603572Y25001571D01*
X15517857Y25030143D01*
X15460715Y25087286D01*
X15432143Y25144429D01*
X15403572Y25258714D01*
X15403572Y25344429D01*
X15432143Y25458714D01*
X15460715Y25515857D01*
X15517857Y25573000D01*
X15603572Y25601571D01*
X15660715Y25601571D01*
X15746429Y25573000D01*
X15775000Y25544429D01*
X16346429Y25001571D02*
X16003572Y25001571D01*
X16175000Y25001571D02*
X16175000Y25601571D01*
X16117857Y25515857D01*
X16060715Y25458714D01*
X16003572Y25430143D01*
X22760000Y25058714D02*
X22731429Y25030143D01*
X22645715Y25001571D01*
X22588572Y25001571D01*
X22502857Y25030143D01*
X22445715Y25087286D01*
X22417143Y25144429D01*
X22388572Y25258714D01*
X22388572Y25344429D01*
X22417143Y25458714D01*
X22445715Y25515857D01*
X22502857Y25573000D01*
X22588572Y25601571D01*
X22645715Y25601571D01*
X22731429Y25573000D01*
X22760000Y25544429D01*
X22988572Y25544429D02*
X23017143Y25573000D01*
X23074286Y25601571D01*
X23217143Y25601571D01*
X23274286Y25573000D01*
X23302857Y25544429D01*
X23331429Y25487286D01*
X23331429Y25430143D01*
X23302857Y25344429D01*
X22960000Y25001571D01*
X23331429Y25001571D01*
X17613286Y12981000D02*
X17641857Y12952429D01*
X17670429Y12866715D01*
X17670429Y12809572D01*
X17641857Y12723857D01*
X17584714Y12666715D01*
X17527571Y12638143D01*
X17413286Y12609572D01*
X17327571Y12609572D01*
X17213286Y12638143D01*
X17156143Y12666715D01*
X17099000Y12723857D01*
X17070429Y12809572D01*
X17070429Y12866715D01*
X17099000Y12952429D01*
X17127571Y12981000D01*
X17070429Y13181000D02*
X17070429Y13552429D01*
X17299000Y13352429D01*
X17299000Y13438143D01*
X17327571Y13495286D01*
X17356143Y13523857D01*
X17413286Y13552429D01*
X17556143Y13552429D01*
X17613286Y13523857D01*
X17641857Y13495286D01*
X17670429Y13438143D01*
X17670429Y13266715D01*
X17641857Y13209572D01*
X17613286Y13181000D01*
X19585000Y25058714D02*
X19556429Y25030143D01*
X19470715Y25001571D01*
X19413572Y25001571D01*
X19327857Y25030143D01*
X19270715Y25087286D01*
X19242143Y25144429D01*
X19213572Y25258714D01*
X19213572Y25344429D01*
X19242143Y25458714D01*
X19270715Y25515857D01*
X19327857Y25573000D01*
X19413572Y25601571D01*
X19470715Y25601571D01*
X19556429Y25573000D01*
X19585000Y25544429D01*
X20099286Y25401571D02*
X20099286Y25001571D01*
X19956429Y25630143D02*
X19813572Y25201571D01*
X20185000Y25201571D01*
X21744000Y37123714D02*
X21715429Y37095143D01*
X21629715Y37066571D01*
X21572572Y37066571D01*
X21486857Y37095143D01*
X21429715Y37152286D01*
X21401143Y37209429D01*
X21372572Y37323714D01*
X21372572Y37409429D01*
X21401143Y37523714D01*
X21429715Y37580857D01*
X21486857Y37638000D01*
X21572572Y37666571D01*
X21629715Y37666571D01*
X21715429Y37638000D01*
X21744000Y37609429D01*
X22286857Y37666571D02*
X22001143Y37666571D01*
X21972572Y37380857D01*
X22001143Y37409429D01*
X22058286Y37438000D01*
X22201143Y37438000D01*
X22258286Y37409429D01*
X22286857Y37380857D01*
X22315429Y37323714D01*
X22315429Y37180857D01*
X22286857Y37123714D01*
X22258286Y37095143D01*
X22201143Y37066571D01*
X22058286Y37066571D01*
X22001143Y37095143D01*
X21972572Y37123714D01*
X24344286Y29110000D02*
X24372857Y29081429D01*
X24401429Y28995715D01*
X24401429Y28938572D01*
X24372857Y28852857D01*
X24315714Y28795715D01*
X24258571Y28767143D01*
X24144286Y28738572D01*
X24058571Y28738572D01*
X23944286Y28767143D01*
X23887143Y28795715D01*
X23830000Y28852857D01*
X23801429Y28938572D01*
X23801429Y28995715D01*
X23830000Y29081429D01*
X23858571Y29110000D01*
X23801429Y29624286D02*
X23801429Y29510000D01*
X23830000Y29452857D01*
X23858571Y29424286D01*
X23944286Y29367143D01*
X24058571Y29338572D01*
X24287143Y29338572D01*
X24344286Y29367143D01*
X24372857Y29395715D01*
X24401429Y29452857D01*
X24401429Y29567143D01*
X24372857Y29624286D01*
X24344286Y29652857D01*
X24287143Y29681429D01*
X24144286Y29681429D01*
X24087143Y29652857D01*
X24058571Y29624286D01*
X24030000Y29567143D01*
X24030000Y29452857D01*
X24058571Y29395715D01*
X24087143Y29367143D01*
X24144286Y29338572D01*
X52732000Y19343714D02*
X52703429Y19315143D01*
X52617715Y19286571D01*
X52560572Y19286571D01*
X52474857Y19315143D01*
X52417715Y19372286D01*
X52389143Y19429429D01*
X52360572Y19543714D01*
X52360572Y19629429D01*
X52389143Y19743714D01*
X52417715Y19800857D01*
X52474857Y19858000D01*
X52560572Y19886571D01*
X52617715Y19886571D01*
X52703429Y19858000D01*
X52732000Y19829429D01*
X52932000Y19886571D02*
X53332000Y19886571D01*
X53074857Y19286571D01*
X40032000Y19470714D02*
X40003429Y19442143D01*
X39917715Y19413571D01*
X39860572Y19413571D01*
X39774857Y19442143D01*
X39717715Y19499286D01*
X39689143Y19556429D01*
X39660572Y19670714D01*
X39660572Y19756429D01*
X39689143Y19870714D01*
X39717715Y19927857D01*
X39774857Y19985000D01*
X39860572Y20013571D01*
X39917715Y20013571D01*
X40003429Y19985000D01*
X40032000Y19956429D01*
X40374857Y19756429D02*
X40317715Y19785000D01*
X40289143Y19813571D01*
X40260572Y19870714D01*
X40260572Y19899286D01*
X40289143Y19956429D01*
X40317715Y19985000D01*
X40374857Y20013571D01*
X40489143Y20013571D01*
X40546286Y19985000D01*
X40574857Y19956429D01*
X40603429Y19899286D01*
X40603429Y19870714D01*
X40574857Y19813571D01*
X40546286Y19785000D01*
X40489143Y19756429D01*
X40374857Y19756429D01*
X40317715Y19727857D01*
X40289143Y19699286D01*
X40260572Y19642143D01*
X40260572Y19527857D01*
X40289143Y19470714D01*
X40317715Y19442143D01*
X40374857Y19413571D01*
X40489143Y19413571D01*
X40546286Y19442143D01*
X40574857Y19470714D01*
X40603429Y19527857D01*
X40603429Y19642143D01*
X40574857Y19699286D01*
X40546286Y19727857D01*
X40489143Y19756429D01*
X44918286Y26443000D02*
X44946857Y26414429D01*
X44975429Y26328715D01*
X44975429Y26271572D01*
X44946857Y26185857D01*
X44889714Y26128715D01*
X44832571Y26100143D01*
X44718286Y26071572D01*
X44632571Y26071572D01*
X44518286Y26100143D01*
X44461143Y26128715D01*
X44404000Y26185857D01*
X44375429Y26271572D01*
X44375429Y26328715D01*
X44404000Y26414429D01*
X44432571Y26443000D01*
X44975429Y26728715D02*
X44975429Y26843000D01*
X44946857Y26900143D01*
X44918286Y26928715D01*
X44832571Y26985857D01*
X44718286Y27014429D01*
X44489714Y27014429D01*
X44432571Y26985857D01*
X44404000Y26957286D01*
X44375429Y26900143D01*
X44375429Y26785857D01*
X44404000Y26728715D01*
X44432571Y26700143D01*
X44489714Y26671572D01*
X44632571Y26671572D01*
X44689714Y26700143D01*
X44718286Y26728715D01*
X44746857Y26785857D01*
X44746857Y26900143D01*
X44718286Y26957286D01*
X44689714Y26985857D01*
X44632571Y27014429D01*
X45842285Y11088714D02*
X45813714Y11060143D01*
X45728000Y11031571D01*
X45670857Y11031571D01*
X45585142Y11060143D01*
X45528000Y11117286D01*
X45499428Y11174429D01*
X45470857Y11288714D01*
X45470857Y11374429D01*
X45499428Y11488714D01*
X45528000Y11545857D01*
X45585142Y11603000D01*
X45670857Y11631571D01*
X45728000Y11631571D01*
X45813714Y11603000D01*
X45842285Y11574429D01*
X46413714Y11031571D02*
X46070857Y11031571D01*
X46242285Y11031571D02*
X46242285Y11631571D01*
X46185142Y11545857D01*
X46128000Y11488714D01*
X46070857Y11460143D01*
X46785143Y11631571D02*
X46842286Y11631571D01*
X46899429Y11603000D01*
X46928000Y11574429D01*
X46956571Y11517286D01*
X46985143Y11403000D01*
X46985143Y11260143D01*
X46956571Y11145857D01*
X46928000Y11088714D01*
X46899429Y11060143D01*
X46842286Y11031571D01*
X46785143Y11031571D01*
X46728000Y11060143D01*
X46699429Y11088714D01*
X46670857Y11145857D01*
X46642286Y11260143D01*
X46642286Y11403000D01*
X46670857Y11517286D01*
X46699429Y11574429D01*
X46728000Y11603000D01*
X46785143Y11631571D01*
X43810285Y11088714D02*
X43781714Y11060143D01*
X43696000Y11031571D01*
X43638857Y11031571D01*
X43553142Y11060143D01*
X43496000Y11117286D01*
X43467428Y11174429D01*
X43438857Y11288714D01*
X43438857Y11374429D01*
X43467428Y11488714D01*
X43496000Y11545857D01*
X43553142Y11603000D01*
X43638857Y11631571D01*
X43696000Y11631571D01*
X43781714Y11603000D01*
X43810285Y11574429D01*
X44381714Y11031571D02*
X44038857Y11031571D01*
X44210285Y11031571D02*
X44210285Y11631571D01*
X44153142Y11545857D01*
X44096000Y11488714D01*
X44038857Y11460143D01*
X44953143Y11031571D02*
X44610286Y11031571D01*
X44781714Y11031571D02*
X44781714Y11631571D01*
X44724571Y11545857D01*
X44667429Y11488714D01*
X44610286Y11460143D01*
X37841285Y19470714D02*
X37812714Y19442143D01*
X37727000Y19413571D01*
X37669857Y19413571D01*
X37584142Y19442143D01*
X37527000Y19499286D01*
X37498428Y19556429D01*
X37469857Y19670714D01*
X37469857Y19756429D01*
X37498428Y19870714D01*
X37527000Y19927857D01*
X37584142Y19985000D01*
X37669857Y20013571D01*
X37727000Y20013571D01*
X37812714Y19985000D01*
X37841285Y19956429D01*
X38412714Y19413571D02*
X38069857Y19413571D01*
X38241285Y19413571D02*
X38241285Y20013571D01*
X38184142Y19927857D01*
X38127000Y19870714D01*
X38069857Y19842143D01*
X38641286Y19956429D02*
X38669857Y19985000D01*
X38727000Y20013571D01*
X38869857Y20013571D01*
X38927000Y19985000D01*
X38955571Y19956429D01*
X38984143Y19899286D01*
X38984143Y19842143D01*
X38955571Y19756429D01*
X38612714Y19413571D01*
X38984143Y19413571D01*
X22947286Y2154285D02*
X22975857Y2125714D01*
X23004429Y2040000D01*
X23004429Y1982857D01*
X22975857Y1897142D01*
X22918714Y1840000D01*
X22861571Y1811428D01*
X22747286Y1782857D01*
X22661571Y1782857D01*
X22547286Y1811428D01*
X22490143Y1840000D01*
X22433000Y1897142D01*
X22404429Y1982857D01*
X22404429Y2040000D01*
X22433000Y2125714D01*
X22461571Y2154285D01*
X23004429Y2725714D02*
X23004429Y2382857D01*
X23004429Y2554285D02*
X22404429Y2554285D01*
X22490143Y2497142D01*
X22547286Y2440000D01*
X22575857Y2382857D01*
X22404429Y2925714D02*
X22404429Y3297143D01*
X22633000Y3097143D01*
X22633000Y3182857D01*
X22661571Y3240000D01*
X22690143Y3268571D01*
X22747286Y3297143D01*
X22890143Y3297143D01*
X22947286Y3268571D01*
X22975857Y3240000D01*
X23004429Y3182857D01*
X23004429Y3011429D01*
X22975857Y2954286D01*
X22947286Y2925714D01*
X33279782Y23370924D02*
X32855518Y23795188D01*
X32956533Y23896203D01*
X33037346Y23936610D01*
X33118157Y23936609D01*
X33178767Y23916406D01*
X33279781Y23855797D01*
X33340391Y23795188D01*
X33401000Y23694173D01*
X33421203Y23633563D01*
X33421203Y23552752D01*
X33380797Y23471939D01*
X33279782Y23370924D01*
X33603031Y24259858D02*
X33885874Y23977015D01*
X33340391Y24320468D02*
X33542422Y23916406D01*
X33805061Y24179045D01*
X35692782Y25783924D02*
X35268518Y26208188D01*
X35369533Y26309203D01*
X35450346Y26349610D01*
X35531157Y26349609D01*
X35591767Y26329406D01*
X35692781Y26268797D01*
X35753391Y26208188D01*
X35814000Y26107173D01*
X35834203Y26046563D01*
X35834203Y25965752D01*
X35793797Y25884939D01*
X35692782Y25783924D01*
X35894812Y26834482D02*
X35692782Y26632452D01*
X35874610Y26410219D01*
X35874609Y26450625D01*
X35894812Y26511234D01*
X35995828Y26612249D01*
X36056437Y26632452D01*
X36096843Y26632452D01*
X36157452Y26612249D01*
X36258468Y26511234D01*
X36278670Y26450624D01*
X36278670Y26410219D01*
X36258468Y26349609D01*
X36157452Y26248594D01*
X36096843Y26228391D01*
X36056437Y26228391D01*
X32958143Y27922571D02*
X32958143Y28522571D01*
X33101000Y28522571D01*
X33186715Y28494000D01*
X33243857Y28436857D01*
X33272429Y28379714D01*
X33301000Y28265429D01*
X33301000Y28179714D01*
X33272429Y28065429D01*
X33243857Y28008286D01*
X33186715Y27951143D01*
X33101000Y27922571D01*
X32958143Y27922571D01*
X33815286Y28522571D02*
X33701000Y28522571D01*
X33643857Y28494000D01*
X33615286Y28465429D01*
X33558143Y28379714D01*
X33529572Y28265429D01*
X33529572Y28036857D01*
X33558143Y27979714D01*
X33586715Y27951143D01*
X33643857Y27922571D01*
X33758143Y27922571D01*
X33815286Y27951143D01*
X33843857Y27979714D01*
X33872429Y28036857D01*
X33872429Y28179714D01*
X33843857Y28236857D01*
X33815286Y28265429D01*
X33758143Y28294000D01*
X33643857Y28294000D01*
X33586715Y28265429D01*
X33558143Y28236857D01*
X33529572Y28179714D01*
X31053143Y22334571D02*
X31053143Y22934571D01*
X31196000Y22934571D01*
X31281715Y22906000D01*
X31338857Y22848857D01*
X31367429Y22791714D01*
X31396000Y22677429D01*
X31396000Y22591714D01*
X31367429Y22477429D01*
X31338857Y22420286D01*
X31281715Y22363143D01*
X31196000Y22334571D01*
X31053143Y22334571D01*
X31596000Y22934571D02*
X31996000Y22934571D01*
X31738857Y22334571D01*
X31053143Y17635571D02*
X31053143Y18235571D01*
X31196000Y18235571D01*
X31281715Y18207000D01*
X31338857Y18149857D01*
X31367429Y18092714D01*
X31396000Y17978429D01*
X31396000Y17892714D01*
X31367429Y17778429D01*
X31338857Y17721286D01*
X31281715Y17664143D01*
X31196000Y17635571D01*
X31053143Y17635571D01*
X31738857Y17978429D02*
X31681715Y18007000D01*
X31653143Y18035571D01*
X31624572Y18092714D01*
X31624572Y18121286D01*
X31653143Y18178429D01*
X31681715Y18207000D01*
X31738857Y18235571D01*
X31853143Y18235571D01*
X31910286Y18207000D01*
X31938857Y18178429D01*
X31967429Y18121286D01*
X31967429Y18092714D01*
X31938857Y18035571D01*
X31910286Y18007000D01*
X31853143Y17978429D01*
X31738857Y17978429D01*
X31681715Y17949857D01*
X31653143Y17921286D01*
X31624572Y17864143D01*
X31624572Y17749857D01*
X31653143Y17692714D01*
X31681715Y17664143D01*
X31738857Y17635571D01*
X31853143Y17635571D01*
X31910286Y17664143D01*
X31938857Y17692714D01*
X31967429Y17749857D01*
X31967429Y17864143D01*
X31938857Y17921286D01*
X31910286Y17949857D01*
X31853143Y17978429D01*
X42064000Y11031571D02*
X41778286Y11031571D01*
X41778286Y11631571D01*
X42578286Y11031571D02*
X42235429Y11031571D01*
X42406857Y11031571D02*
X42406857Y11631571D01*
X42349714Y11545857D01*
X42292572Y11488714D01*
X42235429Y11460143D01*
X34444000Y15603571D02*
X34158286Y15603571D01*
X34158286Y16203571D01*
X34615429Y16146429D02*
X34644000Y16175000D01*
X34701143Y16203571D01*
X34844000Y16203571D01*
X34901143Y16175000D01*
X34929714Y16146429D01*
X34958286Y16089286D01*
X34958286Y16032143D01*
X34929714Y15946429D01*
X34586857Y15603571D01*
X34958286Y15603571D01*
X23004429Y5615000D02*
X23004429Y5329286D01*
X22404429Y5329286D01*
X22404429Y5757857D02*
X22404429Y6129286D01*
X22633000Y5929286D01*
X22633000Y6015000D01*
X22661571Y6072143D01*
X22690143Y6100714D01*
X22747286Y6129286D01*
X22890143Y6129286D01*
X22947286Y6100714D01*
X22975857Y6072143D01*
X23004429Y6015000D01*
X23004429Y5843572D01*
X22975857Y5786429D01*
X22947286Y5757857D01*
X12209429Y15267000D02*
X11923714Y15067000D01*
X12209429Y14924143D02*
X11609429Y14924143D01*
X11609429Y15152715D01*
X11638000Y15209857D01*
X11666571Y15238429D01*
X11723714Y15267000D01*
X11809429Y15267000D01*
X11866571Y15238429D01*
X11895143Y15209857D01*
X11923714Y15152715D01*
X11923714Y14924143D01*
X12209429Y15838429D02*
X12209429Y15495572D01*
X12209429Y15667000D02*
X11609429Y15667000D01*
X11695143Y15609857D01*
X11752286Y15552715D01*
X11780857Y15495572D01*
X12209429Y12600000D02*
X11923714Y12400000D01*
X12209429Y12257143D02*
X11609429Y12257143D01*
X11609429Y12485715D01*
X11638000Y12542857D01*
X11666571Y12571429D01*
X11723714Y12600000D01*
X11809429Y12600000D01*
X11866571Y12571429D01*
X11895143Y12542857D01*
X11923714Y12485715D01*
X11923714Y12257143D01*
X11666571Y12828572D02*
X11638000Y12857143D01*
X11609429Y12914286D01*
X11609429Y13057143D01*
X11638000Y13114286D01*
X11666571Y13142857D01*
X11723714Y13171429D01*
X11780857Y13171429D01*
X11866571Y13142857D01*
X12209429Y12800000D01*
X12209429Y13171429D01*
X12209429Y10060000D02*
X11923714Y9860000D01*
X12209429Y9717143D02*
X11609429Y9717143D01*
X11609429Y9945715D01*
X11638000Y10002857D01*
X11666571Y10031429D01*
X11723714Y10060000D01*
X11809429Y10060000D01*
X11866571Y10031429D01*
X11895143Y10002857D01*
X11923714Y9945715D01*
X11923714Y9717143D01*
X11609429Y10260000D02*
X11609429Y10631429D01*
X11838000Y10431429D01*
X11838000Y10517143D01*
X11866571Y10574286D01*
X11895143Y10602857D01*
X11952286Y10631429D01*
X12095143Y10631429D01*
X12152286Y10602857D01*
X12180857Y10574286D01*
X12209429Y10517143D01*
X12209429Y10345715D01*
X12180857Y10288572D01*
X12152286Y10260000D01*
X12209429Y7520000D02*
X11923714Y7320000D01*
X12209429Y7177143D02*
X11609429Y7177143D01*
X11609429Y7405715D01*
X11638000Y7462857D01*
X11666571Y7491429D01*
X11723714Y7520000D01*
X11809429Y7520000D01*
X11866571Y7491429D01*
X11895143Y7462857D01*
X11923714Y7405715D01*
X11923714Y7177143D01*
X11809429Y8034286D02*
X12209429Y8034286D01*
X11580857Y7891429D02*
X12009429Y7748572D01*
X12009429Y8120000D01*
X12209429Y4980000D02*
X11923714Y4780000D01*
X12209429Y4637143D02*
X11609429Y4637143D01*
X11609429Y4865715D01*
X11638000Y4922857D01*
X11666571Y4951429D01*
X11723714Y4980000D01*
X11809429Y4980000D01*
X11866571Y4951429D01*
X11895143Y4922857D01*
X11923714Y4865715D01*
X11923714Y4637143D01*
X11609429Y5522857D02*
X11609429Y5237143D01*
X11895143Y5208572D01*
X11866571Y5237143D01*
X11838000Y5294286D01*
X11838000Y5437143D01*
X11866571Y5494286D01*
X11895143Y5522857D01*
X11952286Y5551429D01*
X12095143Y5551429D01*
X12152286Y5522857D01*
X12180857Y5494286D01*
X12209429Y5437143D01*
X12209429Y5294286D01*
X12180857Y5237143D01*
X12152286Y5208572D01*
X12209429Y2440000D02*
X11923714Y2240000D01*
X12209429Y2097143D02*
X11609429Y2097143D01*
X11609429Y2325715D01*
X11638000Y2382857D01*
X11666571Y2411429D01*
X11723714Y2440000D01*
X11809429Y2440000D01*
X11866571Y2411429D01*
X11895143Y2382857D01*
X11923714Y2325715D01*
X11923714Y2097143D01*
X11609429Y2954286D02*
X11609429Y2840000D01*
X11638000Y2782857D01*
X11666571Y2754286D01*
X11752286Y2697143D01*
X11866571Y2668572D01*
X12095143Y2668572D01*
X12152286Y2697143D01*
X12180857Y2725715D01*
X12209429Y2782857D01*
X12209429Y2897143D01*
X12180857Y2954286D01*
X12152286Y2982857D01*
X12095143Y3011429D01*
X11952286Y3011429D01*
X11895143Y2982857D01*
X11866571Y2954286D01*
X11838000Y2897143D01*
X11838000Y2782857D01*
X11866571Y2725715D01*
X11895143Y2697143D01*
X11952286Y2668572D01*
X12209429Y24030000D02*
X11923714Y23830000D01*
X12209429Y23687143D02*
X11609429Y23687143D01*
X11609429Y23915715D01*
X11638000Y23972857D01*
X11666571Y24001429D01*
X11723714Y24030000D01*
X11809429Y24030000D01*
X11866571Y24001429D01*
X11895143Y23972857D01*
X11923714Y23915715D01*
X11923714Y23687143D01*
X11609429Y24230000D02*
X11609429Y24630000D01*
X12209429Y24372857D01*
X28592429Y18696000D02*
X28306714Y18496000D01*
X28592429Y18353143D02*
X27992429Y18353143D01*
X27992429Y18581715D01*
X28021000Y18638857D01*
X28049571Y18667429D01*
X28106714Y18696000D01*
X28192429Y18696000D01*
X28249571Y18667429D01*
X28278143Y18638857D01*
X28306714Y18581715D01*
X28306714Y18353143D01*
X28249571Y19038857D02*
X28221000Y18981715D01*
X28192429Y18953143D01*
X28135286Y18924572D01*
X28106714Y18924572D01*
X28049571Y18953143D01*
X28021000Y18981715D01*
X27992429Y19038857D01*
X27992429Y19153143D01*
X28021000Y19210286D01*
X28049571Y19238857D01*
X28106714Y19267429D01*
X28135286Y19267429D01*
X28192429Y19238857D01*
X28221000Y19210286D01*
X28249571Y19153143D01*
X28249571Y19038857D01*
X28278143Y18981715D01*
X28306714Y18953143D01*
X28363857Y18924572D01*
X28478143Y18924572D01*
X28535286Y18953143D01*
X28563857Y18981715D01*
X28592429Y19038857D01*
X28592429Y19153143D01*
X28563857Y19210286D01*
X28535286Y19238857D01*
X28478143Y19267429D01*
X28363857Y19267429D01*
X28306714Y19238857D01*
X28278143Y19210286D01*
X28249571Y19153143D01*
X40032000Y11031571D02*
X39832000Y11317286D01*
X39689143Y11031571D02*
X39689143Y11631571D01*
X39917715Y11631571D01*
X39974857Y11603000D01*
X40003429Y11574429D01*
X40032000Y11517286D01*
X40032000Y11431571D01*
X40003429Y11374429D01*
X39974857Y11345857D01*
X39917715Y11317286D01*
X39689143Y11317286D01*
X40317715Y11031571D02*
X40432000Y11031571D01*
X40489143Y11060143D01*
X40517715Y11088714D01*
X40574857Y11174429D01*
X40603429Y11288714D01*
X40603429Y11517286D01*
X40574857Y11574429D01*
X40546286Y11603000D01*
X40489143Y11631571D01*
X40374857Y11631571D01*
X40317715Y11603000D01*
X40289143Y11574429D01*
X40260572Y11517286D01*
X40260572Y11374429D01*
X40289143Y11317286D01*
X40317715Y11288714D01*
X40374857Y11260143D01*
X40489143Y11260143D01*
X40546286Y11288714D01*
X40574857Y11317286D01*
X40603429Y11374429D01*
X25649285Y25001571D02*
X25449285Y25287286D01*
X25306428Y25001571D02*
X25306428Y25601571D01*
X25535000Y25601571D01*
X25592142Y25573000D01*
X25620714Y25544429D01*
X25649285Y25487286D01*
X25649285Y25401571D01*
X25620714Y25344429D01*
X25592142Y25315857D01*
X25535000Y25287286D01*
X25306428Y25287286D01*
X26220714Y25001571D02*
X25877857Y25001571D01*
X26049285Y25001571D02*
X26049285Y25601571D01*
X25992142Y25515857D01*
X25935000Y25458714D01*
X25877857Y25430143D01*
X26592143Y25601571D02*
X26649286Y25601571D01*
X26706429Y25573000D01*
X26735000Y25544429D01*
X26763571Y25487286D01*
X26792143Y25373000D01*
X26792143Y25230143D01*
X26763571Y25115857D01*
X26735000Y25058714D01*
X26706429Y25030143D01*
X26649286Y25001571D01*
X26592143Y25001571D01*
X26535000Y25030143D01*
X26506429Y25058714D01*
X26477857Y25115857D01*
X26449286Y25230143D01*
X26449286Y25373000D01*
X26477857Y25487286D01*
X26506429Y25544429D01*
X26535000Y25573000D01*
X26592143Y25601571D01*
X34158285Y22334571D02*
X33958285Y22620286D01*
X33815428Y22334571D02*
X33815428Y22934571D01*
X34044000Y22934571D01*
X34101142Y22906000D01*
X34129714Y22877429D01*
X34158285Y22820286D01*
X34158285Y22734571D01*
X34129714Y22677429D01*
X34101142Y22648857D01*
X34044000Y22620286D01*
X33815428Y22620286D01*
X34729714Y22334571D02*
X34386857Y22334571D01*
X34558285Y22334571D02*
X34558285Y22934571D01*
X34501142Y22848857D01*
X34444000Y22791714D01*
X34386857Y22763143D01*
X35301143Y22334571D02*
X34958286Y22334571D01*
X35129714Y22334571D02*
X35129714Y22934571D01*
X35072571Y22848857D01*
X35015429Y22791714D01*
X34958286Y22763143D01*
X36593429Y18918285D02*
X36307714Y18718285D01*
X36593429Y18575428D02*
X35993429Y18575428D01*
X35993429Y18804000D01*
X36022000Y18861142D01*
X36050571Y18889714D01*
X36107714Y18918285D01*
X36193429Y18918285D01*
X36250571Y18889714D01*
X36279143Y18861142D01*
X36307714Y18804000D01*
X36307714Y18575428D01*
X36593429Y19489714D02*
X36593429Y19146857D01*
X36593429Y19318285D02*
X35993429Y19318285D01*
X36079143Y19261142D01*
X36136286Y19204000D01*
X36164857Y19146857D01*
X36050571Y19718286D02*
X36022000Y19746857D01*
X35993429Y19804000D01*
X35993429Y19946857D01*
X36022000Y20004000D01*
X36050571Y20032571D01*
X36107714Y20061143D01*
X36164857Y20061143D01*
X36250571Y20032571D01*
X36593429Y19689714D01*
X36593429Y20061143D01*
X28592429Y21458285D02*
X28306714Y21258285D01*
X28592429Y21115428D02*
X27992429Y21115428D01*
X27992429Y21344000D01*
X28021000Y21401142D01*
X28049571Y21429714D01*
X28106714Y21458285D01*
X28192429Y21458285D01*
X28249571Y21429714D01*
X28278143Y21401142D01*
X28306714Y21344000D01*
X28306714Y21115428D01*
X28592429Y22029714D02*
X28592429Y21686857D01*
X28592429Y21858285D02*
X27992429Y21858285D01*
X28078143Y21801142D01*
X28135286Y21744000D01*
X28163857Y21686857D01*
X27992429Y22229714D02*
X27992429Y22601143D01*
X28221000Y22401143D01*
X28221000Y22486857D01*
X28249571Y22544000D01*
X28278143Y22572571D01*
X28335286Y22601143D01*
X28478143Y22601143D01*
X28535286Y22572571D01*
X28563857Y22544000D01*
X28592429Y22486857D01*
X28592429Y22315429D01*
X28563857Y22258286D01*
X28535286Y22229714D01*
D12*
X49892048Y14751095D02*
X49892048Y15551095D01*
X50730143Y14827286D02*
X50692048Y14789190D01*
X50577762Y14751095D01*
X50501572Y14751095D01*
X50387286Y14789190D01*
X50311095Y14865381D01*
X50273000Y14941571D01*
X50234905Y15093952D01*
X50234905Y15208238D01*
X50273000Y15360619D01*
X50311095Y15436810D01*
X50387286Y15513000D01*
X50501572Y15551095D01*
X50577762Y15551095D01*
X50692048Y15513000D01*
X50730143Y15474905D01*
X51492048Y14751095D02*
X51034905Y14751095D01*
X51263476Y14751095D02*
X51263476Y15551095D01*
X51187286Y15436810D01*
X51111095Y15360619D01*
X51034905Y15322524D01*
X15094048Y908095D02*
X15094048Y1708095D01*
X15932143Y984286D02*
X15894048Y946190D01*
X15779762Y908095D01*
X15703572Y908095D01*
X15589286Y946190D01*
X15513095Y1022381D01*
X15475000Y1098571D01*
X15436905Y1250952D01*
X15436905Y1365238D01*
X15475000Y1517619D01*
X15513095Y1593810D01*
X15589286Y1670000D01*
X15703572Y1708095D01*
X15779762Y1708095D01*
X15894048Y1670000D01*
X15932143Y1631905D01*
X16236905Y1631905D02*
X16275000Y1670000D01*
X16351191Y1708095D01*
X16541667Y1708095D01*
X16617857Y1670000D01*
X16655953Y1631905D01*
X16694048Y1555714D01*
X16694048Y1479524D01*
X16655953Y1365238D01*
X16198810Y908095D01*
X16694048Y908095D01*
D19*
X52446285Y26271571D02*
X52246285Y26557286D01*
X52103428Y26271571D02*
X52103428Y26871571D01*
X52332000Y26871571D01*
X52389142Y26843000D01*
X52417714Y26814429D01*
X52446285Y26757286D01*
X52446285Y26671571D01*
X52417714Y26614429D01*
X52389142Y26585857D01*
X52332000Y26557286D01*
X52103428Y26557286D01*
X53017714Y26271571D02*
X52674857Y26271571D01*
X52846285Y26271571D02*
X52846285Y26871571D01*
X52789142Y26785857D01*
X52732000Y26728714D01*
X52674857Y26700143D01*
X53532000Y26671571D02*
X53532000Y26271571D01*
X53389143Y26900143D02*
X53246286Y26471571D01*
X53617714Y26471571D01*
X54732285Y19286571D02*
X54532285Y19572286D01*
X54389428Y19286571D02*
X54389428Y19886571D01*
X54618000Y19886571D01*
X54675142Y19858000D01*
X54703714Y19829429D01*
X54732285Y19772286D01*
X54732285Y19686571D01*
X54703714Y19629429D01*
X54675142Y19600857D01*
X54618000Y19572286D01*
X54389428Y19572286D01*
X55303714Y19286571D02*
X54960857Y19286571D01*
X55132285Y19286571D02*
X55132285Y19886571D01*
X55075142Y19800857D01*
X55018000Y19743714D01*
X54960857Y19715143D01*
X55846571Y19886571D02*
X55560857Y19886571D01*
X55532286Y19600857D01*
X55560857Y19629429D01*
X55618000Y19658000D01*
X55760857Y19658000D01*
X55818000Y19629429D01*
X55846571Y19600857D01*
X55875143Y19543714D01*
X55875143Y19400857D01*
X55846571Y19343714D01*
X55818000Y19315143D01*
X55760857Y19286571D01*
X55618000Y19286571D01*
X55560857Y19315143D01*
X55532286Y19343714D01*
X13032389Y28132143D02*
X12432389Y28132143D01*
X12432389Y28275000D01*
X12460960Y28360715D01*
X12518103Y28417857D01*
X12575246Y28446429D01*
X12689531Y28475000D01*
X12775246Y28475000D01*
X12889531Y28446429D01*
X12946674Y28417857D01*
X13003817Y28360715D01*
X13032389Y28275000D01*
X13032389Y28132143D01*
X13032389Y29046429D02*
X13032389Y28703572D01*
X13032389Y28875000D02*
X12432389Y28875000D01*
X12518103Y28817857D01*
X12575246Y28760715D01*
X12603817Y28703572D01*
X13032389Y35117143D02*
X12432389Y35117143D01*
X12432389Y35260000D01*
X12460960Y35345715D01*
X12518103Y35402857D01*
X12575246Y35431429D01*
X12689531Y35460000D01*
X12775246Y35460000D01*
X12889531Y35431429D01*
X12946674Y35402857D01*
X13003817Y35345715D01*
X13032389Y35260000D01*
X13032389Y35117143D01*
X12489531Y35688572D02*
X12460960Y35717143D01*
X12432389Y35774286D01*
X12432389Y35917143D01*
X12460960Y35974286D01*
X12489531Y36002857D01*
X12546674Y36031429D01*
X12603817Y36031429D01*
X12689531Y36002857D01*
X13032389Y35660000D01*
X13032389Y36031429D01*
X7830469Y19242143D02*
X7230469Y19242143D01*
X7230469Y19385000D01*
X7259040Y19470715D01*
X7316183Y19527857D01*
X7373326Y19556429D01*
X7487611Y19585000D01*
X7573326Y19585000D01*
X7687611Y19556429D01*
X7744754Y19527857D01*
X7801897Y19470715D01*
X7830469Y19385000D01*
X7830469Y19242143D01*
X7230469Y19785000D02*
X7230469Y20156429D01*
X7459040Y19956429D01*
X7459040Y20042143D01*
X7487611Y20099286D01*
X7516183Y20127857D01*
X7573326Y20156429D01*
X7716183Y20156429D01*
X7773326Y20127857D01*
X7801897Y20099286D01*
X7830469Y20042143D01*
X7830469Y19870715D01*
X7801897Y19813572D01*
X7773326Y19785000D01*
M02*
