%TF.FileFunction,Copper,L1,Top,Signal*%
%FSLAX46Y46*%
G04 Gerber Fmt 4.6, Leading zero omitted, Abs format (unit mm)*
G04 Created by KiCad (PCBNEW (2014-09-08 BZR 5122)-product) date Wed 17 Dec 2014 07:33:54 PM CET*
%MOMM*%
G01*
G04 APERTURE LIST*
%ADD10C,0.020000*%
%ADD11C,0.100000*%
%ADD12R,1.000000X1.000000*%
%ADD13R,1.727200X1.727200*%
%ADD14O,1.727200X1.727200*%
%ADD15C,1.506220*%
%ADD16R,1.200000X2.200000*%
%ADD17R,3.500000X2.200000*%
%ADD18C,5.000000*%
%ADD19R,1.524000X1.270000*%
%ADD20R,0.635000X1.143000*%
%ADD21R,1.143000X0.635000*%
%ADD22O,3.014980X1.506220*%
%ADD23R,1.100000X0.300000*%
%ADD24R,0.300000X1.100000*%
%ADD25R,5.200000X5.200000*%
%ADD26C,0.400000*%
%ADD27R,1.300000X0.600000*%
%ADD28R,0.500000X2.000000*%
%ADD29R,2.500000X2.200000*%
%ADD30R,2.199640X1.600200*%
%ADD31C,0.600000*%
%ADD32C,0.300000*%
%ADD33C,0.150000*%
%ADD34C,0.254000*%
G04 APERTURE END LIST*
D10*
D11*
X66040000Y0D02*
X0Y0D01*
X0Y40640000D02*
X66040000Y40640000D01*
X0Y40640000D02*
X0Y0D01*
X66040000Y0D02*
X66040000Y40640000D01*
D12*
X24511000Y11430000D03*
X23211000Y11430000D03*
X25811000Y11430000D03*
D13*
X25400000Y3810000D03*
D14*
X25400000Y6350000D03*
X27940000Y3810000D03*
X27940000Y6350000D03*
X30480000Y3810000D03*
X30480000Y6350000D03*
D15*
X40640000Y3810000D03*
X40640000Y6350000D03*
X43180000Y3810000D03*
X43180000Y6350000D03*
X45720000Y3810000D03*
X45720000Y6350000D03*
X48260000Y3810000D03*
X48260000Y6350000D03*
X50800000Y3810000D03*
X50800000Y6350000D03*
X62230000Y15240000D03*
X59690000Y15240000D03*
X62230000Y17780000D03*
X59690000Y17780000D03*
X62230000Y20320000D03*
X59690000Y20320000D03*
X62230000Y22860000D03*
X59690000Y22860000D03*
X62230000Y25400000D03*
X59690000Y25400000D03*
X50800000Y36830000D03*
X50800000Y34290000D03*
X48260000Y36830000D03*
X48260000Y34290000D03*
X45720000Y36830000D03*
X45720000Y34290000D03*
X43180000Y36830000D03*
X43180000Y34290000D03*
X40640000Y36830000D03*
X40640000Y34290000D03*
D16*
X15480000Y29285000D03*
X17780000Y29285000D03*
X20080000Y29285000D03*
D17*
X17780000Y35485000D03*
D18*
X3810000Y36830000D03*
X3810000Y3810000D03*
X62230000Y3810000D03*
X62230000Y36830000D03*
D19*
X14351000Y23495000D03*
X14351000Y20955000D03*
X14351000Y18415000D03*
X14351000Y15748000D03*
X23749000Y15875000D03*
X23749000Y18415000D03*
X23749000Y20955000D03*
X23749000Y23368000D03*
D20*
X15113000Y26670000D03*
X16637000Y26670000D03*
X22098000Y26670000D03*
X23622000Y26670000D03*
X18542000Y13081000D03*
X20066000Y13081000D03*
X20447000Y26670000D03*
X18923000Y26670000D03*
D21*
X21844000Y36449000D03*
X21844000Y34925000D03*
D20*
X26797000Y29210000D03*
X25273000Y29210000D03*
D21*
X52832000Y22352000D03*
X52832000Y20828000D03*
X40132000Y18796000D03*
X40132000Y17272000D03*
X45974000Y25781000D03*
X45974000Y27305000D03*
X46228000Y13970000D03*
X46228000Y12446000D03*
X44196000Y13970000D03*
X44196000Y12446000D03*
X38227000Y18796000D03*
X38227000Y17272000D03*
X21336000Y3302000D03*
X21336000Y1778000D03*
D10*
G36*
X32025790Y23724567D02*
X31217567Y24532790D01*
X31666580Y24981803D01*
X32474803Y24173580D01*
X32025790Y23724567D01*
X32025790Y23724567D01*
G37*
G36*
X33103420Y24802197D02*
X32295197Y25610420D01*
X32744210Y26059433D01*
X33552433Y25251210D01*
X33103420Y24802197D01*
X33103420Y24802197D01*
G37*
G36*
X35157210Y28472433D02*
X35965433Y27664210D01*
X35516420Y27215197D01*
X34708197Y28023420D01*
X35157210Y28472433D01*
X35157210Y28472433D01*
G37*
G36*
X34079580Y27394803D02*
X34887803Y26586580D01*
X34438790Y26137567D01*
X33630567Y26945790D01*
X34079580Y27394803D01*
X34079580Y27394803D01*
G37*
D20*
X34163000Y29591000D03*
X32639000Y29591000D03*
X32258000Y21336000D03*
X30734000Y21336000D03*
X32258000Y19304000D03*
X30734000Y19304000D03*
D21*
X42164000Y12446000D03*
X42164000Y13970000D03*
D20*
X33782000Y17272000D03*
X35306000Y17272000D03*
D21*
X21336000Y6477000D03*
X21336000Y4953000D03*
D20*
X10922000Y15240000D03*
X9398000Y15240000D03*
X10922000Y12700000D03*
X9398000Y12700000D03*
X10922000Y10160000D03*
X9398000Y10160000D03*
X10922000Y7620000D03*
X9398000Y7620000D03*
X10922000Y5080000D03*
X9398000Y5080000D03*
X10922000Y2540000D03*
X9398000Y2540000D03*
X10922000Y24130000D03*
X9398000Y24130000D03*
D21*
X26924000Y18034000D03*
X26924000Y19558000D03*
X40132000Y12446000D03*
X40132000Y13970000D03*
D20*
X25273000Y26670000D03*
X26797000Y26670000D03*
X35306000Y21336000D03*
X33782000Y21336000D03*
X35306000Y19304000D03*
X33782000Y19304000D03*
D21*
X26924000Y22606000D03*
X26924000Y21082000D03*
D22*
X3810000Y26670000D03*
X3810000Y24130000D03*
X3810000Y21590000D03*
X3810000Y19050000D03*
X3810000Y16510000D03*
X3810000Y13970000D03*
X3810000Y11430000D03*
X3810000Y8890000D03*
X3810000Y31750000D03*
X3810000Y29210000D03*
D23*
X50340000Y17820000D03*
X50340000Y18320000D03*
X50340000Y18820000D03*
X50340000Y19320000D03*
X50340000Y19820000D03*
X50340000Y20320000D03*
X50340000Y20820000D03*
X50340000Y21320000D03*
X50340000Y21820000D03*
X50340000Y22320000D03*
X50340000Y22820000D03*
D24*
X49490000Y23670000D03*
X48990000Y23670000D03*
X48490000Y23670000D03*
X47990000Y23670000D03*
X47490000Y23670000D03*
X46990000Y23670000D03*
X46490000Y23670000D03*
X45990000Y23670000D03*
X45490000Y23670000D03*
X44990000Y23670000D03*
X44490000Y23670000D03*
D23*
X43640000Y22820000D03*
X43640000Y22320000D03*
X43640000Y21820000D03*
X43640000Y21320000D03*
X43640000Y20820000D03*
X43640000Y20320000D03*
X43640000Y19820000D03*
X43640000Y19320000D03*
X43640000Y18820000D03*
X43640000Y18320000D03*
X43640000Y17820000D03*
D24*
X44490000Y16970000D03*
X44990000Y16970000D03*
X45490000Y16970000D03*
X45990000Y16970000D03*
X46490000Y16970000D03*
X46990000Y16970000D03*
X47490000Y16970000D03*
X47990000Y16970000D03*
X48490000Y16970000D03*
X48990000Y16970000D03*
X49490000Y16970000D03*
D25*
X46990000Y20320000D03*
D26*
X46990000Y18415000D03*
X45085000Y18415000D03*
X48895000Y18415000D03*
X48895000Y20320000D03*
X46990000Y20320000D03*
X45085000Y20320000D03*
X45085000Y22225000D03*
X48895000Y22225000D03*
X46990000Y22225000D03*
X48006000Y19304000D03*
X48006000Y21336000D03*
X45974000Y21336000D03*
X45974000Y19304000D03*
D27*
X13225000Y10795000D03*
X13225000Y9525000D03*
X13225000Y8255000D03*
X13225000Y6985000D03*
X13225000Y5715000D03*
X13225000Y4445000D03*
X13225000Y3175000D03*
X18525000Y3175000D03*
X18525000Y4445000D03*
X18525000Y6985000D03*
X18525000Y8255000D03*
X18525000Y9525000D03*
X18525000Y10795000D03*
X18525000Y5715000D03*
D21*
X52832000Y25527000D03*
X52832000Y24003000D03*
X55118000Y20828000D03*
X55118000Y22352000D03*
D28*
X29210000Y32040000D03*
X30810000Y32040000D03*
X30010000Y32040000D03*
X28410000Y32040000D03*
X27610000Y32040000D03*
D29*
X33410000Y32290000D03*
X25010000Y32290000D03*
X25010000Y37590000D03*
X33410000Y37590000D03*
D30*
X10160000Y30474920D03*
X10160000Y26675080D03*
X10160000Y37459920D03*
X10160000Y33660080D03*
X10160000Y17785080D03*
X10160000Y21584920D03*
D31*
X54991000Y36830000D03*
X62230000Y11049000D03*
X36449000Y3810000D03*
X21336000Y1016000D03*
X13208000Y2413000D03*
X20701000Y13081000D03*
X45212000Y12065000D03*
X27622500Y29210000D03*
X27622500Y26670000D03*
X17780000Y27559000D03*
X17399000Y26670000D03*
X18161000Y26670000D03*
X27622500Y30480000D03*
X21844000Y34036000D03*
X38227000Y16446500D03*
X40132000Y16446500D03*
X17780000Y37465000D03*
X25146000Y15875000D03*
X24384000Y26670000D03*
X34925000Y29591000D03*
X35864800Y28397200D03*
X31292800Y23825200D03*
X29972000Y21336000D03*
X29972000Y19304000D03*
X25654000Y22606000D03*
X45974000Y28067000D03*
X53975000Y20193000D03*
X31242000Y30353000D03*
X24384000Y35560000D03*
X42418000Y22352000D03*
X41656000Y22225000D03*
X45212000Y15875000D03*
X44450000Y14986000D03*
X21336000Y7239000D03*
X19812000Y10795000D03*
X10922000Y11430000D03*
X10922000Y6350000D03*
X10922000Y13970000D03*
X36449000Y17653000D03*
X38735000Y12446000D03*
X36449000Y16510000D03*
X47117000Y25908000D03*
X53975000Y21590000D03*
X51181000Y24892000D03*
D32*
X10160000Y33660080D02*
X12059920Y33660080D01*
X12700000Y33020000D02*
X12700000Y26675080D01*
X12059920Y33660080D02*
X12700000Y33020000D01*
X15113000Y26670000D02*
X15113000Y28918000D01*
X15113000Y28918000D02*
X15480000Y29285000D01*
X10160000Y26675080D02*
X12700000Y26675080D01*
X12700000Y26675080D02*
X15107920Y26675080D01*
X15107920Y26675080D02*
X15113000Y26670000D01*
X15278000Y29083000D02*
X15480000Y29285000D01*
X21336000Y1778000D02*
X21336000Y1016000D01*
X13225000Y3175000D02*
X13208000Y3158000D01*
X13208000Y3158000D02*
X13208000Y2413000D01*
X20066000Y13081000D02*
X20701000Y13081000D01*
X45212000Y12446000D02*
X45212000Y12065000D01*
X44196000Y12446000D02*
X45212000Y12446000D01*
X45212000Y12446000D02*
X46228000Y12446000D01*
X27622500Y29210000D02*
X27622500Y26670000D01*
X27622500Y26670000D02*
X26797000Y26670000D01*
X27622500Y29210000D02*
X27622500Y30480000D01*
X26797000Y29210000D02*
X27622500Y29210000D01*
X17780000Y26670000D02*
X17780000Y27559000D01*
X17780000Y27559000D02*
X17780000Y29285000D01*
X17399000Y26670000D02*
X17780000Y26670000D01*
X17780000Y26670000D02*
X18161000Y26670000D01*
X16637000Y26670000D02*
X17399000Y26670000D01*
X18161000Y26670000D02*
X18923000Y26670000D01*
X27609800Y32110680D02*
X27609800Y30492700D01*
X27609800Y30492700D02*
X27622500Y30480000D01*
X21844000Y34925000D02*
X21844000Y34036000D01*
X38227000Y17272000D02*
X38227000Y16446500D01*
X40132000Y17272000D02*
X40132000Y16446500D01*
X17780000Y35485000D02*
X17780000Y37465000D01*
X23749000Y15875000D02*
X25146000Y15875000D01*
X23622000Y26670000D02*
X24384000Y26670000D01*
X34163000Y29591000D02*
X34925000Y29591000D01*
X35336815Y27869215D02*
X35864800Y28397200D01*
X35336815Y27843815D02*
X35336815Y27869215D01*
X31820785Y24353185D02*
X31292800Y23825200D01*
X31846185Y24353185D02*
X31820785Y24353185D01*
X30734000Y21336000D02*
X29972000Y21336000D01*
X30734000Y19304000D02*
X29972000Y19304000D01*
X26924000Y22606000D02*
X25654000Y22606000D01*
X46990000Y20320000D02*
X46490000Y19820000D01*
X46490000Y19820000D02*
X46490000Y16970000D01*
X46990000Y20320000D02*
X47990000Y21320000D01*
X47990000Y21320000D02*
X50340000Y21320000D01*
X46990000Y20320000D02*
X46490000Y20820000D01*
X43640000Y19320000D02*
X45990000Y19320000D01*
X45990000Y19320000D02*
X46990000Y20320000D01*
X46490000Y20820000D02*
X46490000Y23670000D01*
X45974000Y27305000D02*
X45974000Y28067000D01*
X53340000Y20828000D02*
X53975000Y20193000D01*
X52832000Y20828000D02*
X53340000Y20828000D01*
X32004000Y29591000D02*
X30810200Y30784800D01*
X30810200Y30784800D02*
X30810200Y32110680D01*
X21844000Y36449000D02*
X21844000Y37211000D01*
X13964920Y37459920D02*
X10160000Y37459920D01*
X14732000Y38227000D02*
X13964920Y37459920D01*
X20828000Y38227000D02*
X14732000Y38227000D01*
X21844000Y37211000D02*
X20828000Y38227000D01*
X32639000Y29591000D02*
X32004000Y29591000D01*
X30810000Y30785000D02*
X31242000Y30353000D01*
X24384000Y35560000D02*
X23749000Y35560000D01*
X23749000Y35560000D02*
X22860000Y36449000D01*
X22860000Y36449000D02*
X21844000Y36449000D01*
X30810000Y32040000D02*
X30810000Y30785000D01*
X46228000Y14605000D02*
X46228000Y13970000D01*
X44196000Y13970000D02*
X46228000Y13970000D01*
X42164000Y13970000D02*
X44196000Y13970000D01*
X46990000Y16970000D02*
X46990000Y15820000D01*
X46990000Y15820000D02*
X46990000Y15367000D01*
X46990000Y15367000D02*
X46228000Y14605000D01*
X41795700Y21272500D02*
X42646600Y21272500D01*
X42694100Y21320000D02*
X43640000Y21320000D01*
X42646600Y21272500D02*
X42694100Y21320000D01*
X29972000Y32072580D02*
X30010100Y32110680D01*
X41795700Y21272500D02*
X41795700Y21272500D01*
X41795700Y21272500D02*
X41795700Y21272500D01*
X29667200Y30637480D02*
X29667200Y30327600D01*
X33756600Y26238200D02*
X38724798Y21270002D01*
X29667200Y30327600D02*
X33756600Y26238200D01*
X38724798Y21270002D02*
X41795700Y21270002D01*
X41795700Y21270002D02*
X41795700Y21272500D01*
X30010100Y30980380D02*
X29667200Y30637480D01*
X30010100Y32110680D02*
X30010100Y30980380D01*
X34259185Y26740785D02*
X33756600Y26238200D01*
X34259185Y26766185D02*
X34259185Y26740785D01*
X43640000Y20820000D02*
X42490000Y20820000D01*
X42490000Y20820000D02*
X38538402Y20820000D01*
X38538402Y20820000D02*
X33401000Y25957402D01*
X29217198Y32103482D02*
X29210000Y32110680D01*
X29217198Y32103482D02*
X29210000Y32110680D01*
X33401000Y25957402D02*
X29210000Y30148402D01*
X29210000Y30148402D02*
X29210000Y32110680D01*
X33425701Y25932701D02*
X33401000Y25908000D01*
X33401000Y25908000D02*
X33401000Y25957402D01*
X32923815Y25430815D02*
X33425701Y25932701D01*
X3810000Y31750000D02*
X6350000Y31750000D01*
X7625080Y30474920D02*
X10160000Y30474920D01*
X6350000Y31750000D02*
X7625080Y30474920D01*
D33*
X3810000Y24130000D02*
X6350000Y24130000D01*
X8503920Y17785080D02*
X10160000Y17785080D01*
X8001000Y18288000D02*
X8503920Y17785080D01*
X8001000Y22479000D02*
X8001000Y18288000D01*
X6350000Y24130000D02*
X8001000Y22479000D01*
X11943080Y17785080D02*
X12573000Y18415000D01*
X12573000Y18415000D02*
X14351000Y18415000D01*
X10160000Y17785080D02*
X11943080Y17785080D01*
X10160000Y21584920D02*
X10160000Y22352000D01*
X10160000Y22352000D02*
X10922000Y23114000D01*
X10922000Y23114000D02*
X10922000Y24130000D01*
X11943080Y21584920D02*
X12573000Y20955000D01*
X12573000Y20955000D02*
X14351000Y20955000D01*
X10160000Y21584920D02*
X11943080Y21584920D01*
X26289000Y15875000D02*
X26670000Y15875000D01*
X23749000Y18415000D02*
X26289000Y15875000D01*
X26670000Y17780000D02*
X26670000Y15875000D01*
X26924000Y18034000D02*
X26670000Y17780000D01*
X40640000Y15875000D02*
X26670000Y15875000D01*
X41275000Y16510000D02*
X40640000Y15875000D01*
X41275000Y17018000D02*
X41275000Y16510000D01*
X42577000Y18320000D02*
X41275000Y17018000D01*
X43640000Y18320000D02*
X42577000Y18320000D01*
X21971000Y9525000D02*
X23211000Y10765000D01*
X23211000Y10765000D02*
X23211000Y11430000D01*
X18525000Y9525000D02*
X21971000Y9525000D01*
X23211000Y12416000D02*
X24638000Y13843000D01*
X24638000Y13843000D02*
X25273000Y13843000D01*
X25273000Y13843000D02*
X26670000Y15240000D01*
X26670000Y15240000D02*
X26670000Y15875000D01*
X23211000Y11430000D02*
X23211000Y12416000D01*
X51522000Y17820000D02*
X51816000Y17526000D01*
X51816000Y17526000D02*
X51816000Y12573000D01*
X51816000Y12573000D02*
X46990000Y7747000D01*
X46990000Y7747000D02*
X46990000Y5080000D01*
X46990000Y5080000D02*
X48260000Y3810000D01*
X50340000Y17820000D02*
X51522000Y17820000D01*
X51530000Y18320000D02*
X52324000Y17526000D01*
X52324000Y17526000D02*
X52324000Y12065000D01*
X52324000Y12065000D02*
X48260000Y8001000D01*
X48260000Y8001000D02*
X48260000Y6350000D01*
X50340000Y18320000D02*
X51530000Y18320000D01*
X50340000Y18820000D02*
X51490000Y18820000D01*
X52832000Y5842000D02*
X52832000Y17526000D01*
X52832000Y5842000D02*
X50800000Y3810000D01*
X52832000Y17526000D02*
X51538000Y18820000D01*
X51538000Y18820000D02*
X51490000Y18820000D01*
X50340000Y19320000D02*
X51490000Y19320000D01*
X55626000Y15240000D02*
X59690000Y15240000D01*
X51546000Y19320000D02*
X55626000Y15240000D01*
X51490000Y19320000D02*
X51546000Y19320000D01*
X50340000Y19820000D02*
X51490000Y19820000D01*
X54864000Y16510000D02*
X60960000Y16510000D01*
X60960000Y16510000D02*
X62230000Y17780000D01*
X51554000Y19820000D02*
X54864000Y16510000D01*
X51490000Y19820000D02*
X51554000Y19820000D01*
X50340000Y20320000D02*
X51490000Y20320000D01*
X54102000Y17780000D02*
X59690000Y17780000D01*
X51562000Y20320000D02*
X54102000Y17780000D01*
X51490000Y20320000D02*
X51562000Y20320000D01*
X50340000Y20820000D02*
X51490000Y20820000D01*
X53340000Y19050000D02*
X60960000Y19050000D01*
X60960000Y19050000D02*
X62230000Y20320000D01*
X51570000Y20820000D02*
X53340000Y19050000D01*
X51490000Y20820000D02*
X51570000Y20820000D01*
X49490000Y24598000D02*
X51054000Y26162000D01*
X51054000Y26162000D02*
X56388000Y26162000D01*
X56388000Y26162000D02*
X59690000Y22860000D01*
X49490000Y23670000D02*
X49490000Y24598000D01*
X48990000Y24606000D02*
X51054000Y26670000D01*
X51054000Y26670000D02*
X60960000Y26670000D01*
X60960000Y26670000D02*
X62230000Y25400000D01*
X48990000Y23670000D02*
X48990000Y24606000D01*
X48490000Y24741000D02*
X50800000Y27051000D01*
X50800000Y27051000D02*
X50800000Y34290000D01*
X48490000Y23670000D02*
X48490000Y24741000D01*
X47990000Y24749000D02*
X49530000Y26289000D01*
X49530000Y26289000D02*
X49530000Y35560000D01*
X49530000Y35560000D02*
X48260000Y36830000D01*
X47990000Y23670000D02*
X47990000Y24749000D01*
X47490000Y23670000D02*
X47490000Y24820000D01*
X47490000Y24884000D02*
X48260000Y25654000D01*
X47490000Y24820000D02*
X47490000Y24884000D01*
X48260000Y25654000D02*
X48260000Y34290000D01*
X46990000Y23670000D02*
X46990000Y24820000D01*
X46990000Y25019000D02*
X47752000Y25781000D01*
X47752000Y25781000D02*
X47752000Y32639000D01*
X47752000Y32639000D02*
X46990000Y33401000D01*
X46990000Y33401000D02*
X46990000Y35560000D01*
X46990000Y24820000D02*
X46990000Y25019000D01*
X46990000Y35560000D02*
X45720000Y36830000D01*
X45720000Y33401000D02*
X44831000Y32512000D01*
X44831000Y32512000D02*
X44831000Y25527000D01*
X44831000Y25527000D02*
X45490000Y24868000D01*
X45490000Y24868000D02*
X45490000Y23670000D01*
X45720000Y34290000D02*
X45720000Y33401000D01*
X44990000Y24733000D02*
X44450000Y25273000D01*
X44450000Y25273000D02*
X44450000Y35560000D01*
X44450000Y35560000D02*
X43180000Y36830000D01*
X44990000Y23670000D02*
X44990000Y24733000D01*
X44490000Y24598000D02*
X43180000Y25908000D01*
X43180000Y25908000D02*
X43180000Y34290000D01*
X44490000Y23670000D02*
X44490000Y24598000D01*
X42712000Y22820000D02*
X41910000Y23622000D01*
X41910000Y23622000D02*
X41910000Y35560000D01*
X41910000Y35560000D02*
X40640000Y36830000D01*
X43640000Y22820000D02*
X42712000Y22820000D01*
X43640000Y22320000D02*
X42450000Y22320000D01*
X42450000Y22320000D02*
X42418000Y22352000D01*
X43640000Y21820000D02*
X42061000Y21820000D01*
X42061000Y21820000D02*
X41656000Y22225000D01*
X43640000Y20320000D02*
X42799000Y20320000D01*
X35941000Y21336000D02*
X35306000Y21336000D01*
X36195000Y21082000D02*
X35941000Y21336000D01*
X36195000Y20447000D02*
X36195000Y21082000D01*
X36830000Y19812000D02*
X36195000Y20447000D01*
X42291000Y19812000D02*
X36830000Y19812000D01*
X42799000Y20320000D02*
X42291000Y19812000D01*
X43640000Y19820000D02*
X42934000Y19820000D01*
X36195000Y19304000D02*
X35306000Y19304000D01*
X36322000Y19431000D02*
X36195000Y19304000D01*
X42545000Y19431000D02*
X36322000Y19431000D01*
X42934000Y19820000D02*
X42545000Y19431000D01*
X19177000Y4445000D02*
X19939000Y5207000D01*
X19939000Y5207000D02*
X19939000Y6985000D01*
X19939000Y6985000D02*
X21463000Y8509000D01*
X21463000Y8509000D02*
X23622000Y8509000D01*
X23622000Y8509000D02*
X25811000Y10698000D01*
X25811000Y10698000D02*
X25811000Y11430000D01*
X18525000Y4445000D02*
X19177000Y4445000D01*
X42585000Y17820000D02*
X41783000Y17018000D01*
X41783000Y17018000D02*
X41783000Y16510000D01*
X41783000Y16510000D02*
X40767000Y15494000D01*
X40767000Y15494000D02*
X28194000Y15494000D01*
X28194000Y15494000D02*
X25811000Y13111000D01*
X25811000Y13111000D02*
X25811000Y11430000D01*
X43640000Y17820000D02*
X42585000Y17820000D01*
X25400000Y3810000D02*
X26670000Y5080000D01*
X44490000Y16423000D02*
X44490000Y16970000D01*
X43180000Y15113000D02*
X44490000Y16423000D01*
X28575000Y15113000D02*
X43180000Y15113000D01*
X26670000Y13208000D02*
X28575000Y15113000D01*
X26670000Y5080000D02*
X26670000Y13208000D01*
X30480000Y3810000D02*
X38100000Y11430000D01*
X39243000Y13970000D02*
X40132000Y13970000D01*
X38100000Y12827000D02*
X39243000Y13970000D01*
X38100000Y11430000D02*
X38100000Y12827000D01*
X44990000Y16415000D02*
X43307000Y14732000D01*
X43307000Y14732000D02*
X40386000Y14732000D01*
X40386000Y14732000D02*
X40132000Y14478000D01*
X40132000Y14478000D02*
X40132000Y13970000D01*
X44990000Y16970000D02*
X44990000Y16415000D01*
X45490000Y16153000D02*
X45490000Y16970000D01*
X45212000Y15875000D02*
X45490000Y16153000D01*
X44450000Y14986000D02*
X45212000Y14986000D01*
X45212000Y14986000D02*
X45339000Y14986000D01*
X45339000Y14986000D02*
X45990000Y15637000D01*
X45990000Y15637000D02*
X45990000Y16970000D01*
X40640000Y8255000D02*
X43434000Y11049000D01*
X43434000Y11049000D02*
X46863000Y11049000D01*
X46863000Y11049000D02*
X47490000Y11676000D01*
X40640000Y8255000D02*
X40640000Y6350000D01*
X40640000Y6604000D02*
X40640000Y6350000D01*
X47490000Y16970000D02*
X47490000Y15820000D01*
X47490000Y11676000D02*
X47490000Y15820000D01*
X41910000Y5080000D02*
X43180000Y3810000D01*
X47990000Y16970000D02*
X47990000Y15820000D01*
X47990000Y11541000D02*
X46863000Y10414000D01*
X46863000Y10414000D02*
X44450000Y10414000D01*
X44450000Y10414000D02*
X41910000Y7874000D01*
X41910000Y7874000D02*
X41910000Y5080000D01*
X47990000Y15820000D02*
X47990000Y11541000D01*
X43180000Y7874000D02*
X45085000Y9779000D01*
X45085000Y9779000D02*
X46863000Y9779000D01*
X46863000Y9779000D02*
X48490000Y11406000D01*
X43180000Y7874000D02*
X43180000Y6350000D01*
X43180000Y5969000D02*
X43180000Y6350000D01*
X48490000Y16970000D02*
X48490000Y15820000D01*
X48490000Y11406000D02*
X48490000Y15820000D01*
X44450000Y5080000D02*
X44450000Y8128000D01*
X44450000Y8128000D02*
X45593000Y9271000D01*
X45593000Y9271000D02*
X46990000Y9271000D01*
X46990000Y9271000D02*
X48990000Y11271000D01*
X44450000Y5080000D02*
X45720000Y3810000D01*
X48990000Y16970000D02*
X48990000Y15820000D01*
X48990000Y11271000D02*
X48990000Y15820000D01*
X49490000Y16970000D02*
X49490000Y15820000D01*
X45720000Y8128000D02*
X46228000Y8636000D01*
X46228000Y8636000D02*
X46990000Y8636000D01*
X46990000Y8636000D02*
X49490000Y11136000D01*
X49490000Y11136000D02*
X49490000Y15820000D01*
X45720000Y8128000D02*
X45720000Y6350000D01*
X45720000Y6350000D02*
X45720000Y6985000D01*
X3810000Y26670000D02*
X5715000Y26670000D01*
X8255000Y24130000D02*
X9398000Y24130000D01*
X5715000Y26670000D02*
X8255000Y24130000D01*
X3810000Y21590000D02*
X6477000Y21590000D01*
X8763000Y15240000D02*
X9398000Y15240000D01*
X7493000Y16510000D02*
X8763000Y15240000D01*
X7493000Y20574000D02*
X7493000Y16510000D01*
X6477000Y21590000D02*
X7493000Y20574000D01*
X3810000Y19050000D02*
X5969000Y19050000D01*
X8509000Y12700000D02*
X9398000Y12700000D01*
X7112000Y14097000D02*
X8509000Y12700000D01*
X7112000Y17907000D02*
X7112000Y14097000D01*
X5969000Y19050000D02*
X7112000Y17907000D01*
X3810000Y16510000D02*
X5461000Y16510000D01*
X8509000Y10160000D02*
X9398000Y10160000D01*
X6604000Y12065000D02*
X8509000Y10160000D01*
X6604000Y15367000D02*
X6604000Y12065000D01*
X5461000Y16510000D02*
X6604000Y15367000D01*
X9525000Y10160000D02*
X9710420Y10160000D01*
X3810000Y13970000D02*
X5461000Y13970000D01*
X8636000Y7620000D02*
X9398000Y7620000D01*
X6223000Y10033000D02*
X8636000Y7620000D01*
X6223000Y13208000D02*
X6223000Y10033000D01*
X5461000Y13970000D02*
X6223000Y13208000D01*
X3810000Y11430000D02*
X5207000Y11430000D01*
X5207000Y11430000D02*
X5842000Y10795000D01*
X5842000Y10795000D02*
X5842000Y7874000D01*
X5842000Y7874000D02*
X8636000Y5080000D01*
X8636000Y5080000D02*
X9398000Y5080000D01*
X3810000Y8890000D02*
X4064000Y8890000D01*
X4064000Y8890000D02*
X8382000Y4572000D01*
X8382000Y4572000D02*
X8382000Y2921000D01*
X8382000Y2921000D02*
X8763000Y2540000D01*
X8763000Y2540000D02*
X9398000Y2540000D01*
X18525000Y8255000D02*
X17272000Y8255000D01*
X14732000Y10795000D02*
X13225000Y10795000D01*
X17272000Y8255000D02*
X14732000Y10795000D01*
X18525000Y5715000D02*
X17399000Y5715000D01*
X14859000Y8255000D02*
X13225000Y8255000D01*
X17399000Y5715000D02*
X14859000Y8255000D01*
X23876000Y21082000D02*
X23749000Y20955000D01*
X26924000Y21082000D02*
X23876000Y21082000D01*
X18525000Y3175000D02*
X17399000Y3175000D01*
X14859000Y5715000D02*
X13225000Y5715000D01*
X17399000Y3175000D02*
X14859000Y5715000D01*
X24759920Y32209740D02*
X24759920Y30739080D01*
X24759920Y30739080D02*
X25273000Y30226000D01*
X25273000Y29210000D02*
X25273000Y26670000D01*
X25273000Y30226000D02*
X25273000Y29210000D01*
D32*
X40640000Y2159000D02*
X23749000Y2159000D01*
X22606000Y3302000D02*
X21336000Y3302000D01*
X23749000Y2159000D02*
X22606000Y3302000D01*
X21336000Y4953000D02*
X21336000Y3302000D01*
X62230000Y15240000D02*
X63881000Y15240000D01*
X63881000Y15240000D02*
X63754000Y15240000D01*
X63754000Y15240000D02*
X63881000Y15240000D01*
X40640000Y2159000D02*
X51181000Y2159000D01*
X51181000Y2159000D02*
X63881000Y14859000D01*
X63881000Y14859000D02*
X63881000Y15240000D01*
X53086000Y36830000D02*
X50800000Y36830000D01*
X63881000Y15240000D02*
X63881000Y26035000D01*
X63881000Y26035000D02*
X53086000Y36830000D01*
X40640000Y2159000D02*
X40640000Y3810000D01*
D33*
X33782000Y21336000D02*
X32258000Y21336000D01*
X33782000Y19304000D02*
X32258000Y19304000D01*
D32*
X21336000Y7239000D02*
X21336000Y6477000D01*
X18525000Y10795000D02*
X19812000Y10795000D01*
X18542000Y13081000D02*
X18542000Y10812000D01*
X18542000Y10812000D02*
X18525000Y10795000D01*
X18542000Y13081000D02*
X18542000Y20637500D01*
X18542000Y20637500D02*
X21272500Y23368000D01*
X10922000Y10160000D02*
X10922000Y11430000D01*
X10922000Y5080000D02*
X10922000Y6350000D01*
X10922000Y13970000D02*
X10922000Y15240000D01*
X21272500Y26670000D02*
X21272500Y23368000D01*
X21272500Y28092500D02*
X21272500Y26670000D01*
X20080000Y29285000D02*
X21272500Y28092500D01*
X21209000Y26670000D02*
X21272500Y26670000D01*
X21272500Y26670000D02*
X21209000Y26670000D01*
X20447000Y26670000D02*
X21272500Y26670000D01*
X22098000Y26670000D02*
X21272500Y26670000D01*
X21336000Y23368000D02*
X21272500Y23368000D01*
X21272500Y23368000D02*
X21336000Y23368000D01*
X23749000Y23368000D02*
X21272500Y23368000D01*
X25527000Y23368000D02*
X25781000Y23622000D01*
X25781000Y23622000D02*
X28321000Y23622000D01*
X28321000Y23622000D02*
X29083000Y22860000D01*
X29083000Y19558000D02*
X29083000Y18923000D01*
X29083000Y22860000D02*
X29083000Y19558000D01*
X29083000Y18923000D02*
X30734000Y17272000D01*
X30734000Y17272000D02*
X33782000Y17272000D01*
X23749000Y23368000D02*
X25527000Y23368000D01*
X28956000Y19558000D02*
X29083000Y19558000D01*
X29083000Y19558000D02*
X28956000Y19558000D01*
X26924000Y19558000D02*
X29083000Y19558000D01*
D33*
X13225000Y9525000D02*
X12319000Y9525000D01*
X11684000Y12700000D02*
X10922000Y12700000D01*
X11938000Y12446000D02*
X11684000Y12700000D01*
X11938000Y9906000D02*
X11938000Y12446000D01*
X12319000Y9525000D02*
X11938000Y9906000D01*
X13225000Y6985000D02*
X12319000Y6985000D01*
X11684000Y7620000D02*
X10922000Y7620000D01*
X12319000Y6985000D02*
X11684000Y7620000D01*
X13225000Y4445000D02*
X12192000Y4445000D01*
X11430000Y2540000D02*
X10922000Y2540000D01*
X11811000Y2921000D02*
X11430000Y2540000D01*
X11811000Y4064000D02*
X11811000Y2921000D01*
X12192000Y4445000D02*
X11811000Y4064000D01*
X19304000Y6985000D02*
X21336000Y9017000D01*
X21336000Y9017000D02*
X22733000Y9017000D01*
X22733000Y9017000D02*
X24511000Y10795000D01*
X24511000Y10795000D02*
X24511000Y11430000D01*
X18525000Y6985000D02*
X19304000Y6985000D01*
X59563000Y20320000D02*
X59690000Y20320000D01*
X59055000Y20320000D02*
X59690000Y20320000D01*
X51403000Y22320000D02*
X52070000Y22987000D01*
X50340000Y22320000D02*
X51403000Y22320000D01*
X55118000Y22987000D02*
X56388000Y22987000D01*
X54610000Y22987000D02*
X55118000Y22987000D01*
X52070000Y22987000D02*
X54610000Y22987000D01*
X56388000Y22987000D02*
X59055000Y20320000D01*
X55118000Y22352000D02*
X55118000Y22987000D01*
X51268000Y22820000D02*
X51816000Y23368000D01*
X52832000Y23368000D02*
X57023000Y23368000D01*
X51816000Y23368000D02*
X52832000Y23368000D01*
X57023000Y23368000D02*
X58801000Y21590000D01*
X58801000Y21590000D02*
X60960000Y21590000D01*
X60960000Y21590000D02*
X62230000Y22860000D01*
X50340000Y22820000D02*
X51268000Y22820000D01*
X52832000Y24003000D02*
X52832000Y23368000D01*
D32*
X40132000Y12446000D02*
X38735000Y12446000D01*
X43640000Y18820000D02*
X42490000Y18820000D01*
X41275000Y18820000D02*
X40156000Y18820000D01*
X42490000Y18820000D02*
X41275000Y18820000D01*
X36449000Y17272000D02*
X36449000Y16510000D01*
X40156000Y18820000D02*
X40132000Y18796000D01*
X40132000Y18796000D02*
X38227000Y18796000D01*
X42164000Y12446000D02*
X41148000Y12446000D01*
X41148000Y12446000D02*
X40132000Y12446000D01*
X36322000Y17272000D02*
X36449000Y17272000D01*
X35306000Y17272000D02*
X36449000Y17272000D01*
X36449000Y17653000D02*
X37592000Y18796000D01*
X37592000Y18796000D02*
X38227000Y18796000D01*
X36449000Y17272000D02*
X36449000Y17653000D01*
X36322000Y17272000D02*
X36449000Y17272000D01*
X45990000Y25765000D02*
X45974000Y25781000D01*
X45990000Y23670000D02*
X45990000Y25765000D01*
X46990000Y25781000D02*
X47117000Y25908000D01*
X45974000Y25781000D02*
X46990000Y25781000D01*
X51665000Y21820000D02*
X50340000Y21820000D01*
X52197000Y22352000D02*
X51665000Y21820000D01*
X52832000Y22352000D02*
X52197000Y22352000D01*
X53975000Y21971000D02*
X53594000Y22352000D01*
X53594000Y22352000D02*
X52832000Y22352000D01*
X53975000Y21590000D02*
X53975000Y21971000D01*
X53975000Y21209000D02*
X54356000Y20828000D01*
X54356000Y20828000D02*
X55118000Y20828000D01*
X53975000Y21590000D02*
X53975000Y21209000D01*
X51816000Y25527000D02*
X51181000Y24892000D01*
X52832000Y25527000D02*
X51816000Y25527000D01*
D34*
G36*
X28406000Y20235000D02*
X27881290Y20235000D01*
X27796290Y20320000D01*
X27942269Y20465979D01*
X28022500Y20659673D01*
X28022500Y20869327D01*
X28022500Y21504327D01*
X27942269Y21698022D01*
X27872658Y21767633D01*
X28033827Y21928802D01*
X28130500Y22162191D01*
X28130500Y22320250D01*
X27971750Y22479000D01*
X27051000Y22479000D01*
X27051000Y22459000D01*
X26797000Y22459000D01*
X26797000Y22479000D01*
X25876250Y22479000D01*
X25717500Y22320250D01*
X25717500Y22162191D01*
X25814173Y21928802D01*
X25975341Y21767633D01*
X25905731Y21698021D01*
X25899923Y21684000D01*
X25038000Y21684000D01*
X25038000Y21694827D01*
X24957769Y21888522D01*
X24809521Y22036769D01*
X24615827Y22117000D01*
X24406173Y22117000D01*
X22882173Y22117000D01*
X22688478Y22036769D01*
X22540231Y21888521D01*
X22460000Y21694827D01*
X22460000Y21485173D01*
X22460000Y20215173D01*
X22540231Y20021478D01*
X22688479Y19873231D01*
X22882173Y19793000D01*
X23091827Y19793000D01*
X24615827Y19793000D01*
X24809522Y19873231D01*
X24957769Y20021479D01*
X25038000Y20215173D01*
X25038000Y20424827D01*
X25038000Y20480000D01*
X25899922Y20480000D01*
X25905731Y20465978D01*
X26051709Y20320001D01*
X25905731Y20174021D01*
X25825500Y19980327D01*
X25825500Y19770673D01*
X25825500Y19135673D01*
X25905731Y18941978D01*
X26051709Y18796001D01*
X25905731Y18650021D01*
X25825500Y18456327D01*
X25825500Y18246673D01*
X25825500Y17611673D01*
X25905731Y17417978D01*
X26053979Y17269731D01*
X26068000Y17263924D01*
X26068000Y16947357D01*
X25038000Y17977357D01*
X25038000Y19154827D01*
X24957769Y19348522D01*
X24809521Y19496769D01*
X24615827Y19577000D01*
X24406173Y19577000D01*
X22882173Y19577000D01*
X22688478Y19496769D01*
X22540231Y19348521D01*
X22460000Y19154827D01*
X22460000Y18945173D01*
X22460000Y17675173D01*
X22540231Y17481478D01*
X22688479Y17333231D01*
X22882173Y17253000D01*
X23091827Y17253000D01*
X24059643Y17253000D01*
X24167643Y17145000D01*
X24034750Y17145000D01*
X23876000Y16986250D01*
X23876000Y16002000D01*
X24987250Y16002000D01*
X25146000Y16160750D01*
X25146000Y16166644D01*
X25863321Y15449322D01*
X25863322Y15449322D01*
X25962018Y15383375D01*
X25146000Y14567357D01*
X25146000Y15113691D01*
X25146000Y15589250D01*
X24987250Y15748000D01*
X23876000Y15748000D01*
X23876000Y14763750D01*
X24034750Y14605000D01*
X24384691Y14605000D01*
X24637310Y14605000D01*
X24870699Y14701673D01*
X25049327Y14880302D01*
X25146000Y15113691D01*
X25146000Y14567357D01*
X25023643Y14445000D01*
X24638000Y14445000D01*
X24407625Y14399175D01*
X24212322Y14268678D01*
X23622000Y13678356D01*
X23622000Y14763750D01*
X23622000Y15748000D01*
X23622000Y16002000D01*
X23622000Y16986250D01*
X23463250Y17145000D01*
X23113309Y17145000D01*
X22860690Y17145000D01*
X22627301Y17048327D01*
X22448673Y16869698D01*
X22352000Y16636309D01*
X22352000Y16160750D01*
X22510750Y16002000D01*
X23622000Y16002000D01*
X23622000Y15748000D01*
X22510750Y15748000D01*
X22352000Y15589250D01*
X22352000Y15113691D01*
X22448673Y14880302D01*
X22627301Y14701673D01*
X22860690Y14605000D01*
X23113309Y14605000D01*
X23463250Y14605000D01*
X23622000Y14763750D01*
X23622000Y13678356D01*
X22785322Y12841678D01*
X22654825Y12646375D01*
X22617155Y12457000D01*
X22606173Y12457000D01*
X22412478Y12376769D01*
X22264231Y12228521D01*
X22184000Y12034827D01*
X22184000Y11825173D01*
X22184000Y10825173D01*
X22253069Y10658426D01*
X21721644Y10127000D01*
X21018500Y10127000D01*
X21018500Y12383190D01*
X21018500Y12635809D01*
X21018500Y12795250D01*
X21018500Y13366750D01*
X21018500Y13526191D01*
X21018500Y13778810D01*
X20921827Y14012199D01*
X20743198Y14190827D01*
X20509809Y14287500D01*
X20351750Y14287500D01*
X20193000Y14128750D01*
X20193000Y13208000D01*
X20859750Y13208000D01*
X21018500Y13366750D01*
X21018500Y12795250D01*
X20859750Y12954000D01*
X20193000Y12954000D01*
X20193000Y12033250D01*
X20351750Y11874500D01*
X20509809Y11874500D01*
X20743198Y11971173D01*
X20921827Y12149801D01*
X21018500Y12383190D01*
X21018500Y10127000D01*
X20313409Y10127000D01*
X20512688Y10325930D01*
X20638856Y10629778D01*
X20639143Y10958779D01*
X20513505Y11262846D01*
X20281070Y11495688D01*
X19977222Y11621856D01*
X19648221Y11622143D01*
X19463623Y11545869D01*
X19279827Y11622000D01*
X19219000Y11622000D01*
X19219000Y12123710D01*
X19227632Y12132342D01*
X19388802Y11971173D01*
X19622191Y11874500D01*
X19780250Y11874500D01*
X19939000Y12033250D01*
X19939000Y12954000D01*
X19919000Y12954000D01*
X19919000Y13208000D01*
X19939000Y13208000D01*
X19939000Y14128750D01*
X19780250Y14287500D01*
X19622191Y14287500D01*
X19388802Y14190827D01*
X19227632Y14029659D01*
X19219000Y14038291D01*
X19219000Y20357078D01*
X21552922Y22691000D01*
X22460000Y22691000D01*
X22460000Y22628173D01*
X22540231Y22434478D01*
X22688479Y22286231D01*
X22882173Y22206000D01*
X23091827Y22206000D01*
X24615827Y22206000D01*
X24809522Y22286231D01*
X24957769Y22434479D01*
X25038000Y22628173D01*
X25038000Y22691000D01*
X25527000Y22691000D01*
X25786076Y22742534D01*
X25786077Y22742534D01*
X25834416Y22774834D01*
X25876250Y22733000D01*
X26797000Y22733000D01*
X26797000Y22753000D01*
X27051000Y22753000D01*
X27051000Y22733000D01*
X27971750Y22733000D01*
X28112164Y22873414D01*
X28406000Y22579578D01*
X28406000Y20235000D01*
X28406000Y20235000D01*
G37*
X28406000Y20235000D02*
X27881290Y20235000D01*
X27796290Y20320000D01*
X27942269Y20465979D01*
X28022500Y20659673D01*
X28022500Y20869327D01*
X28022500Y21504327D01*
X27942269Y21698022D01*
X27872658Y21767633D01*
X28033827Y21928802D01*
X28130500Y22162191D01*
X28130500Y22320250D01*
X27971750Y22479000D01*
X27051000Y22479000D01*
X27051000Y22459000D01*
X26797000Y22459000D01*
X26797000Y22479000D01*
X25876250Y22479000D01*
X25717500Y22320250D01*
X25717500Y22162191D01*
X25814173Y21928802D01*
X25975341Y21767633D01*
X25905731Y21698021D01*
X25899923Y21684000D01*
X25038000Y21684000D01*
X25038000Y21694827D01*
X24957769Y21888522D01*
X24809521Y22036769D01*
X24615827Y22117000D01*
X24406173Y22117000D01*
X22882173Y22117000D01*
X22688478Y22036769D01*
X22540231Y21888521D01*
X22460000Y21694827D01*
X22460000Y21485173D01*
X22460000Y20215173D01*
X22540231Y20021478D01*
X22688479Y19873231D01*
X22882173Y19793000D01*
X23091827Y19793000D01*
X24615827Y19793000D01*
X24809522Y19873231D01*
X24957769Y20021479D01*
X25038000Y20215173D01*
X25038000Y20424827D01*
X25038000Y20480000D01*
X25899922Y20480000D01*
X25905731Y20465978D01*
X26051709Y20320001D01*
X25905731Y20174021D01*
X25825500Y19980327D01*
X25825500Y19770673D01*
X25825500Y19135673D01*
X25905731Y18941978D01*
X26051709Y18796001D01*
X25905731Y18650021D01*
X25825500Y18456327D01*
X25825500Y18246673D01*
X25825500Y17611673D01*
X25905731Y17417978D01*
X26053979Y17269731D01*
X26068000Y17263924D01*
X26068000Y16947357D01*
X25038000Y17977357D01*
X25038000Y19154827D01*
X24957769Y19348522D01*
X24809521Y19496769D01*
X24615827Y19577000D01*
X24406173Y19577000D01*
X22882173Y19577000D01*
X22688478Y19496769D01*
X22540231Y19348521D01*
X22460000Y19154827D01*
X22460000Y18945173D01*
X22460000Y17675173D01*
X22540231Y17481478D01*
X22688479Y17333231D01*
X22882173Y17253000D01*
X23091827Y17253000D01*
X24059643Y17253000D01*
X24167643Y17145000D01*
X24034750Y17145000D01*
X23876000Y16986250D01*
X23876000Y16002000D01*
X24987250Y16002000D01*
X25146000Y16160750D01*
X25146000Y16166644D01*
X25863321Y15449322D01*
X25863322Y15449322D01*
X25962018Y15383375D01*
X25146000Y14567357D01*
X25146000Y15113691D01*
X25146000Y15589250D01*
X24987250Y15748000D01*
X23876000Y15748000D01*
X23876000Y14763750D01*
X24034750Y14605000D01*
X24384691Y14605000D01*
X24637310Y14605000D01*
X24870699Y14701673D01*
X25049327Y14880302D01*
X25146000Y15113691D01*
X25146000Y14567357D01*
X25023643Y14445000D01*
X24638000Y14445000D01*
X24407625Y14399175D01*
X24212322Y14268678D01*
X23622000Y13678356D01*
X23622000Y14763750D01*
X23622000Y15748000D01*
X23622000Y16002000D01*
X23622000Y16986250D01*
X23463250Y17145000D01*
X23113309Y17145000D01*
X22860690Y17145000D01*
X22627301Y17048327D01*
X22448673Y16869698D01*
X22352000Y16636309D01*
X22352000Y16160750D01*
X22510750Y16002000D01*
X23622000Y16002000D01*
X23622000Y15748000D01*
X22510750Y15748000D01*
X22352000Y15589250D01*
X22352000Y15113691D01*
X22448673Y14880302D01*
X22627301Y14701673D01*
X22860690Y14605000D01*
X23113309Y14605000D01*
X23463250Y14605000D01*
X23622000Y14763750D01*
X23622000Y13678356D01*
X22785322Y12841678D01*
X22654825Y12646375D01*
X22617155Y12457000D01*
X22606173Y12457000D01*
X22412478Y12376769D01*
X22264231Y12228521D01*
X22184000Y12034827D01*
X22184000Y11825173D01*
X22184000Y10825173D01*
X22253069Y10658426D01*
X21721644Y10127000D01*
X21018500Y10127000D01*
X21018500Y12383190D01*
X21018500Y12635809D01*
X21018500Y12795250D01*
X21018500Y13366750D01*
X21018500Y13526191D01*
X21018500Y13778810D01*
X20921827Y14012199D01*
X20743198Y14190827D01*
X20509809Y14287500D01*
X20351750Y14287500D01*
X20193000Y14128750D01*
X20193000Y13208000D01*
X20859750Y13208000D01*
X21018500Y13366750D01*
X21018500Y12795250D01*
X20859750Y12954000D01*
X20193000Y12954000D01*
X20193000Y12033250D01*
X20351750Y11874500D01*
X20509809Y11874500D01*
X20743198Y11971173D01*
X20921827Y12149801D01*
X21018500Y12383190D01*
X21018500Y10127000D01*
X20313409Y10127000D01*
X20512688Y10325930D01*
X20638856Y10629778D01*
X20639143Y10958779D01*
X20513505Y11262846D01*
X20281070Y11495688D01*
X19977222Y11621856D01*
X19648221Y11622143D01*
X19463623Y11545869D01*
X19279827Y11622000D01*
X19219000Y11622000D01*
X19219000Y12123710D01*
X19227632Y12132342D01*
X19388802Y11971173D01*
X19622191Y11874500D01*
X19780250Y11874500D01*
X19939000Y12033250D01*
X19939000Y12954000D01*
X19919000Y12954000D01*
X19919000Y13208000D01*
X19939000Y13208000D01*
X19939000Y14128750D01*
X19780250Y14287500D01*
X19622191Y14287500D01*
X19388802Y14190827D01*
X19227632Y14029659D01*
X19219000Y14038291D01*
X19219000Y20357078D01*
X21552922Y22691000D01*
X22460000Y22691000D01*
X22460000Y22628173D01*
X22540231Y22434478D01*
X22688479Y22286231D01*
X22882173Y22206000D01*
X23091827Y22206000D01*
X24615827Y22206000D01*
X24809522Y22286231D01*
X24957769Y22434479D01*
X25038000Y22628173D01*
X25038000Y22691000D01*
X25527000Y22691000D01*
X25786076Y22742534D01*
X25786077Y22742534D01*
X25834416Y22774834D01*
X25876250Y22733000D01*
X26797000Y22733000D01*
X26797000Y22753000D01*
X27051000Y22753000D01*
X27051000Y22733000D01*
X27971750Y22733000D01*
X28112164Y22873414D01*
X28406000Y22579578D01*
X28406000Y20235000D01*
G36*
X38989913Y14511000D02*
X38817322Y14395678D01*
X37674322Y13252678D01*
X37543825Y13057375D01*
X37498000Y12827000D01*
X37498000Y11679357D01*
X31934958Y6116315D01*
X31934958Y6709026D01*
X31762688Y7124947D01*
X31368490Y7556821D01*
X30839027Y7804968D01*
X30607000Y7684469D01*
X30607000Y6477000D01*
X31813817Y6477000D01*
X31934958Y6709026D01*
X31934958Y6116315D01*
X31891964Y6073321D01*
X31813817Y6223000D01*
X30607000Y6223000D01*
X30607000Y6203000D01*
X30353000Y6203000D01*
X30353000Y6223000D01*
X30333000Y6223000D01*
X30333000Y6477000D01*
X30353000Y6477000D01*
X30353000Y7684469D01*
X30120973Y7804968D01*
X29591510Y7556821D01*
X29197312Y7124947D01*
X29156157Y7025585D01*
X28950546Y7333303D01*
X28499403Y7634747D01*
X27967243Y7740600D01*
X27912757Y7740600D01*
X27380597Y7634747D01*
X27272000Y7562185D01*
X27272000Y12958644D01*
X28824356Y14511000D01*
X38989913Y14511000D01*
X38989913Y14511000D01*
G37*
X38989913Y14511000D02*
X38817322Y14395678D01*
X37674322Y13252678D01*
X37543825Y13057375D01*
X37498000Y12827000D01*
X37498000Y11679357D01*
X31934958Y6116315D01*
X31934958Y6709026D01*
X31762688Y7124947D01*
X31368490Y7556821D01*
X30839027Y7804968D01*
X30607000Y7684469D01*
X30607000Y6477000D01*
X31813817Y6477000D01*
X31934958Y6709026D01*
X31934958Y6116315D01*
X31891964Y6073321D01*
X31813817Y6223000D01*
X30607000Y6223000D01*
X30607000Y6203000D01*
X30353000Y6203000D01*
X30353000Y6223000D01*
X30333000Y6223000D01*
X30333000Y6477000D01*
X30353000Y6477000D01*
X30353000Y7684469D01*
X30120973Y7804968D01*
X29591510Y7556821D01*
X29197312Y7124947D01*
X29156157Y7025585D01*
X28950546Y7333303D01*
X28499403Y7634747D01*
X27967243Y7740600D01*
X27912757Y7740600D01*
X27380597Y7634747D01*
X27272000Y7562185D01*
X27272000Y12958644D01*
X28824356Y14511000D01*
X38989913Y14511000D01*
G36*
X40279000Y17145000D02*
X40259000Y17145000D01*
X40259000Y17125000D01*
X40005000Y17125000D01*
X40005000Y17145000D01*
X39274750Y17145000D01*
X39084250Y17145000D01*
X38354000Y17145000D01*
X38354000Y17125000D01*
X38100000Y17125000D01*
X38100000Y17145000D01*
X38080000Y17145000D01*
X38080000Y17399000D01*
X38100000Y17399000D01*
X38100000Y17419000D01*
X38354000Y17419000D01*
X38354000Y17399000D01*
X39084250Y17399000D01*
X39274750Y17399000D01*
X40005000Y17399000D01*
X40005000Y17419000D01*
X40259000Y17419000D01*
X40259000Y17399000D01*
X40279000Y17399000D01*
X40279000Y17145000D01*
X40279000Y17145000D01*
G37*
X40279000Y17145000D02*
X40259000Y17145000D01*
X40259000Y17125000D01*
X40005000Y17125000D01*
X40005000Y17145000D01*
X39274750Y17145000D01*
X39084250Y17145000D01*
X38354000Y17145000D01*
X38354000Y17125000D01*
X38100000Y17125000D01*
X38100000Y17145000D01*
X38080000Y17145000D01*
X38080000Y17399000D01*
X38100000Y17399000D01*
X38100000Y17419000D01*
X38354000Y17419000D01*
X38354000Y17399000D01*
X39084250Y17399000D01*
X39274750Y17399000D01*
X40005000Y17399000D01*
X40005000Y17419000D01*
X40259000Y17419000D01*
X40259000Y17399000D01*
X40279000Y17399000D01*
X40279000Y17145000D01*
G36*
X43242138Y11612836D02*
X43203625Y11605175D01*
X43008322Y11474678D01*
X40214322Y8680678D01*
X40083825Y8485375D01*
X40038000Y8255000D01*
X40038000Y7486340D01*
X39915823Y7435857D01*
X39555408Y7076071D01*
X39360113Y6605747D01*
X39359668Y6096487D01*
X39554143Y5625823D01*
X39913929Y5265408D01*
X40360960Y5079785D01*
X39915823Y4895857D01*
X39555408Y4536071D01*
X39360113Y4065747D01*
X39359668Y3556487D01*
X39554143Y3085823D01*
X39803530Y2836000D01*
X31496762Y2836000D01*
X31791990Y3277840D01*
X31897843Y3810000D01*
X31803856Y4282501D01*
X38525678Y11004321D01*
X38525678Y11004322D01*
X38656175Y11199624D01*
X38656175Y11199625D01*
X38663777Y11237847D01*
X38701999Y11430000D01*
X38702000Y11430000D01*
X38702000Y11619029D01*
X38898779Y11618857D01*
X39200276Y11743434D01*
X39261979Y11681731D01*
X39455673Y11601500D01*
X39665327Y11601500D01*
X40808327Y11601500D01*
X41002022Y11681731D01*
X41089290Y11769000D01*
X41148000Y11769000D01*
X41206709Y11769000D01*
X41293979Y11681731D01*
X41487673Y11601500D01*
X41697327Y11601500D01*
X42840327Y11601500D01*
X43034022Y11681731D01*
X43103632Y11751343D01*
X43242138Y11612836D01*
X43242138Y11612836D01*
G37*
X43242138Y11612836D02*
X43203625Y11605175D01*
X43008322Y11474678D01*
X40214322Y8680678D01*
X40083825Y8485375D01*
X40038000Y8255000D01*
X40038000Y7486340D01*
X39915823Y7435857D01*
X39555408Y7076071D01*
X39360113Y6605747D01*
X39359668Y6096487D01*
X39554143Y5625823D01*
X39913929Y5265408D01*
X40360960Y5079785D01*
X39915823Y4895857D01*
X39555408Y4536071D01*
X39360113Y4065747D01*
X39359668Y3556487D01*
X39554143Y3085823D01*
X39803530Y2836000D01*
X31496762Y2836000D01*
X31791990Y3277840D01*
X31897843Y3810000D01*
X31803856Y4282501D01*
X38525678Y11004321D01*
X38525678Y11004322D01*
X38656175Y11199624D01*
X38656175Y11199625D01*
X38663777Y11237847D01*
X38701999Y11430000D01*
X38702000Y11430000D01*
X38702000Y11619029D01*
X38898779Y11618857D01*
X39200276Y11743434D01*
X39261979Y11681731D01*
X39455673Y11601500D01*
X39665327Y11601500D01*
X40808327Y11601500D01*
X41002022Y11681731D01*
X41089290Y11769000D01*
X41148000Y11769000D01*
X41206709Y11769000D01*
X41293979Y11681731D01*
X41487673Y11601500D01*
X41697327Y11601500D01*
X42840327Y11601500D01*
X43034022Y11681731D01*
X43103632Y11751343D01*
X43242138Y11612836D01*
G36*
X46375000Y12319000D02*
X46355000Y12319000D01*
X46355000Y12299000D01*
X46101000Y12299000D01*
X46101000Y12319000D01*
X45243750Y12319000D01*
X45180250Y12319000D01*
X44323000Y12319000D01*
X44323000Y12299000D01*
X44069000Y12299000D01*
X44069000Y12319000D01*
X44049000Y12319000D01*
X44049000Y12573000D01*
X44069000Y12573000D01*
X44069000Y12593000D01*
X44323000Y12593000D01*
X44323000Y12573000D01*
X45180250Y12573000D01*
X45243750Y12573000D01*
X46101000Y12573000D01*
X46101000Y12593000D01*
X46355000Y12593000D01*
X46355000Y12573000D01*
X46375000Y12573000D01*
X46375000Y12319000D01*
X46375000Y12319000D01*
G37*
X46375000Y12319000D02*
X46355000Y12319000D01*
X46355000Y12299000D01*
X46101000Y12299000D01*
X46101000Y12319000D01*
X45243750Y12319000D01*
X45180250Y12319000D01*
X44323000Y12319000D01*
X44323000Y12299000D01*
X44069000Y12299000D01*
X44069000Y12319000D01*
X44049000Y12319000D01*
X44049000Y12573000D01*
X44069000Y12573000D01*
X44069000Y12593000D01*
X44323000Y12593000D01*
X44323000Y12573000D01*
X45180250Y12573000D01*
X45243750Y12573000D01*
X46101000Y12573000D01*
X46101000Y12593000D01*
X46355000Y12593000D01*
X46355000Y12573000D01*
X46375000Y12573000D01*
X46375000Y12319000D01*
G36*
X47150000Y27822443D02*
X47083827Y27982198D01*
X46905199Y28160827D01*
X46671810Y28257500D01*
X46419191Y28257500D01*
X46259750Y28257500D01*
X46101000Y28098750D01*
X46101000Y27432000D01*
X46121000Y27432000D01*
X46121000Y27178000D01*
X46101000Y27178000D01*
X46101000Y27158000D01*
X45847000Y27158000D01*
X45847000Y27178000D01*
X45827000Y27178000D01*
X45827000Y27432000D01*
X45847000Y27432000D01*
X45847000Y28098750D01*
X45688250Y28257500D01*
X45528809Y28257500D01*
X45433000Y28257500D01*
X45433000Y32262644D01*
X46145678Y32975322D01*
X46243039Y33121035D01*
X46428450Y33197645D01*
X46433825Y33170625D01*
X46564322Y32975322D01*
X47150000Y32389644D01*
X47150000Y27822443D01*
X47150000Y27822443D01*
G37*
X47150000Y27822443D02*
X47083827Y27982198D01*
X46905199Y28160827D01*
X46671810Y28257500D01*
X46419191Y28257500D01*
X46259750Y28257500D01*
X46101000Y28098750D01*
X46101000Y27432000D01*
X46121000Y27432000D01*
X46121000Y27178000D01*
X46101000Y27178000D01*
X46101000Y27158000D01*
X45847000Y27158000D01*
X45847000Y27178000D01*
X45827000Y27178000D01*
X45827000Y27432000D01*
X45847000Y27432000D01*
X45847000Y28098750D01*
X45688250Y28257500D01*
X45528809Y28257500D01*
X45433000Y28257500D01*
X45433000Y32262644D01*
X46145678Y32975322D01*
X46243039Y33121035D01*
X46428450Y33197645D01*
X46433825Y33170625D01*
X46564322Y32975322D01*
X47150000Y32389644D01*
X47150000Y27822443D01*
G36*
X52230000Y6091356D02*
X52154513Y6015870D01*
X52200296Y6144428D01*
X52172373Y6695946D01*
X52015035Y7075793D01*
X51773772Y7144166D01*
X51594166Y6964561D01*
X51594166Y7323772D01*
X51525793Y7565035D01*
X51005572Y7750296D01*
X50454054Y7722373D01*
X50074207Y7565035D01*
X50005834Y7323772D01*
X50800000Y6529605D01*
X51594166Y7323772D01*
X51594166Y6964561D01*
X50979605Y6350000D01*
X50993747Y6335858D01*
X50814142Y6156253D01*
X50800000Y6170395D01*
X50005834Y5376228D01*
X50074207Y5134965D01*
X50385882Y5023972D01*
X50075823Y4895857D01*
X49715408Y4536071D01*
X49529784Y4089040D01*
X49345857Y4534177D01*
X48986071Y4894592D01*
X48539039Y5080216D01*
X48984177Y5264143D01*
X49344592Y5623929D01*
X49464984Y5913867D01*
X49584965Y5624207D01*
X49826228Y5555834D01*
X50620395Y6350000D01*
X49826228Y7144166D01*
X49584965Y7075793D01*
X49473971Y6764118D01*
X49345857Y7074177D01*
X48986071Y7434592D01*
X48862000Y7486111D01*
X48862000Y7751644D01*
X52230000Y11119644D01*
X52230000Y6091356D01*
X52230000Y6091356D01*
G37*
X52230000Y6091356D02*
X52154513Y6015870D01*
X52200296Y6144428D01*
X52172373Y6695946D01*
X52015035Y7075793D01*
X51773772Y7144166D01*
X51594166Y6964561D01*
X51594166Y7323772D01*
X51525793Y7565035D01*
X51005572Y7750296D01*
X50454054Y7722373D01*
X50074207Y7565035D01*
X50005834Y7323772D01*
X50800000Y6529605D01*
X51594166Y7323772D01*
X51594166Y6964561D01*
X50979605Y6350000D01*
X50993747Y6335858D01*
X50814142Y6156253D01*
X50800000Y6170395D01*
X50005834Y5376228D01*
X50074207Y5134965D01*
X50385882Y5023972D01*
X50075823Y4895857D01*
X49715408Y4536071D01*
X49529784Y4089040D01*
X49345857Y4534177D01*
X48986071Y4894592D01*
X48539039Y5080216D01*
X48984177Y5264143D01*
X49344592Y5623929D01*
X49464984Y5913867D01*
X49584965Y5624207D01*
X49826228Y5555834D01*
X50620395Y6350000D01*
X49826228Y7144166D01*
X49584965Y7075793D01*
X49473971Y6764118D01*
X49345857Y7074177D01*
X48986071Y7434592D01*
X48862000Y7486111D01*
X48862000Y7751644D01*
X52230000Y11119644D01*
X52230000Y6091356D01*
G36*
X52979000Y20701000D02*
X52959000Y20701000D01*
X52959000Y20681000D01*
X52705000Y20681000D01*
X52705000Y20701000D01*
X52685000Y20701000D01*
X52685000Y20955000D01*
X52705000Y20955000D01*
X52705000Y20975000D01*
X52959000Y20975000D01*
X52959000Y20955000D01*
X52979000Y20955000D01*
X52979000Y20701000D01*
X52979000Y20701000D01*
G37*
X52979000Y20701000D02*
X52959000Y20701000D01*
X52959000Y20681000D01*
X52705000Y20681000D01*
X52705000Y20701000D01*
X52685000Y20701000D01*
X52685000Y20955000D01*
X52705000Y20955000D01*
X52705000Y20975000D01*
X52959000Y20975000D01*
X52959000Y20955000D01*
X52979000Y20955000D01*
X52979000Y20701000D01*
G36*
X58580931Y19652000D02*
X53589356Y19652000D01*
X53365856Y19875500D01*
X53529810Y19875500D01*
X53763199Y19972173D01*
X53941827Y20150802D01*
X53992230Y20272488D01*
X54096923Y20202534D01*
X54096924Y20202534D01*
X54112217Y20199492D01*
X54247979Y20063731D01*
X54441673Y19983500D01*
X54651327Y19983500D01*
X55794327Y19983500D01*
X55988022Y20063731D01*
X56136269Y20211979D01*
X56216500Y20405673D01*
X56216500Y20615327D01*
X56216500Y21250327D01*
X56136269Y21444022D01*
X55990290Y21590000D01*
X56136269Y21735979D01*
X56216500Y21929673D01*
X56216500Y22139327D01*
X56216500Y22307144D01*
X58409709Y20113934D01*
X58409668Y20066487D01*
X58580931Y19652000D01*
X58580931Y19652000D01*
G37*
X58580931Y19652000D02*
X53589356Y19652000D01*
X53365856Y19875500D01*
X53529810Y19875500D01*
X53763199Y19972173D01*
X53941827Y20150802D01*
X53992230Y20272488D01*
X54096923Y20202534D01*
X54096924Y20202534D01*
X54112217Y20199492D01*
X54247979Y20063731D01*
X54441673Y19983500D01*
X54651327Y19983500D01*
X55794327Y19983500D01*
X55988022Y20063731D01*
X56136269Y20211979D01*
X56216500Y20405673D01*
X56216500Y20615327D01*
X56216500Y21250327D01*
X56136269Y21444022D01*
X55990290Y21590000D01*
X56136269Y21735979D01*
X56216500Y21929673D01*
X56216500Y22139327D01*
X56216500Y22307144D01*
X58409709Y20113934D01*
X58409668Y20066487D01*
X58580931Y19652000D01*
G36*
X61950960Y24129785D02*
X61505823Y23945857D01*
X61145408Y23586071D01*
X60959784Y23139040D01*
X60775857Y23584177D01*
X60416071Y23944592D01*
X60126133Y24064985D01*
X60415793Y24184965D01*
X60484166Y24426228D01*
X59690000Y25220395D01*
X59675857Y25206253D01*
X59496252Y25385858D01*
X59510395Y25400000D01*
X59496252Y25414143D01*
X59675857Y25593748D01*
X59690000Y25579605D01*
X59704142Y25593748D01*
X59883747Y25414143D01*
X59869605Y25400000D01*
X60663772Y24605834D01*
X60905035Y24674207D01*
X61016028Y24985883D01*
X61144143Y24675823D01*
X61503929Y24315408D01*
X61950960Y24129785D01*
X61950960Y24129785D01*
G37*
X61950960Y24129785D02*
X61505823Y23945857D01*
X61145408Y23586071D01*
X60959784Y23139040D01*
X60775857Y23584177D01*
X60416071Y23944592D01*
X60126133Y24064985D01*
X60415793Y24184965D01*
X60484166Y24426228D01*
X59690000Y25220395D01*
X59675857Y25206253D01*
X59496252Y25385858D01*
X59510395Y25400000D01*
X59496252Y25414143D01*
X59675857Y25593748D01*
X59690000Y25579605D01*
X59704142Y25593748D01*
X59883747Y25414143D01*
X59869605Y25400000D01*
X60663772Y24605834D01*
X60905035Y24674207D01*
X61016028Y24985883D01*
X61144143Y24675823D01*
X61503929Y24315408D01*
X61950960Y24129785D01*
G36*
X65463000Y577000D02*
X65365294Y577000D01*
X65365294Y3187892D01*
X65365294Y36207892D01*
X65364705Y37455072D01*
X64888564Y38604579D01*
X64465880Y38886275D01*
X64286275Y38706670D01*
X64286275Y39065880D01*
X64004579Y39488564D01*
X62852108Y39965294D01*
X61604928Y39964705D01*
X60455421Y39488564D01*
X60173725Y39065880D01*
X62230000Y37009605D01*
X64286275Y39065880D01*
X64286275Y38706670D01*
X62409605Y36830000D01*
X64465880Y34773725D01*
X64888564Y35055421D01*
X65365294Y36207892D01*
X65365294Y3187892D01*
X65364705Y4435072D01*
X64888564Y5584579D01*
X64465880Y5866275D01*
X64286275Y5686670D01*
X64286275Y6045880D01*
X64004579Y6468564D01*
X62852108Y6945294D01*
X61604928Y6944705D01*
X60455421Y6468564D01*
X60173725Y6045880D01*
X62230000Y3989605D01*
X64286275Y6045880D01*
X64286275Y5686670D01*
X62409605Y3810000D01*
X64465880Y1753725D01*
X64888564Y2035421D01*
X65365294Y3187892D01*
X65365294Y577000D01*
X64286275Y577000D01*
X64286275Y1574120D01*
X62230000Y3630395D01*
X62050395Y3450790D01*
X62050395Y3810000D01*
X59994120Y5866275D01*
X59571436Y5584579D01*
X59094706Y4432108D01*
X59095295Y3184928D01*
X59571436Y2035421D01*
X59994120Y1753725D01*
X62050395Y3810000D01*
X62050395Y3450790D01*
X60173725Y1574120D01*
X60455421Y1151436D01*
X61607892Y674706D01*
X62855072Y675295D01*
X64004579Y1151436D01*
X64286275Y1574120D01*
X64286275Y577000D01*
X22542500Y577000D01*
X22542500Y1334191D01*
X22542500Y1492250D01*
X22383750Y1651000D01*
X21463000Y1651000D01*
X21463000Y984250D01*
X21621750Y825500D01*
X21781191Y825500D01*
X22033810Y825500D01*
X22267199Y922173D01*
X22445827Y1100802D01*
X22542500Y1334191D01*
X22542500Y577000D01*
X21209000Y577000D01*
X21209000Y984250D01*
X21209000Y1651000D01*
X20288250Y1651000D01*
X20129500Y1492250D01*
X20129500Y1334191D01*
X20226173Y1100802D01*
X20404801Y922173D01*
X20638190Y825500D01*
X20890809Y825500D01*
X21050250Y825500D01*
X21209000Y984250D01*
X21209000Y577000D01*
X14510000Y577000D01*
X14510000Y2748691D01*
X14510000Y2889250D01*
X14351250Y3048000D01*
X13352000Y3048000D01*
X13352000Y2398750D01*
X13510750Y2240000D01*
X13748691Y2240000D01*
X14001310Y2240000D01*
X14234699Y2336673D01*
X14413327Y2515302D01*
X14510000Y2748691D01*
X14510000Y577000D01*
X6945294Y577000D01*
X5866275Y577000D01*
X5866275Y1574120D01*
X3810000Y3630395D01*
X3630395Y3450790D01*
X3630395Y3810000D01*
X1574120Y5866275D01*
X1151436Y5584579D01*
X674706Y4432108D01*
X675295Y3184928D01*
X1151436Y2035421D01*
X1574120Y1753725D01*
X3630395Y3810000D01*
X3630395Y3450790D01*
X1753725Y1574120D01*
X2035421Y1151436D01*
X3187892Y674706D01*
X4435072Y675295D01*
X5584579Y1151436D01*
X5866275Y1574120D01*
X5866275Y577000D01*
X577000Y577000D01*
X577000Y40063000D01*
X25000000Y40063000D01*
X25000000Y39217000D01*
X23655173Y39217000D01*
X23461478Y39136769D01*
X23313231Y38988521D01*
X23233000Y38794827D01*
X23233000Y38585173D01*
X23233000Y36998345D01*
X23119077Y37074466D01*
X22860000Y37126000D01*
X22801290Y37126000D01*
X22714021Y37213269D01*
X22520327Y37293500D01*
X22504589Y37293500D01*
X22469466Y37470076D01*
X22469466Y37470077D01*
X22322711Y37689711D01*
X21306711Y38705711D01*
X21087077Y38852466D01*
X20828000Y38904000D01*
X14732000Y38904000D01*
X14472923Y38852466D01*
X14253289Y38705711D01*
X13684498Y38136920D01*
X11786820Y38136920D01*
X11786820Y38364847D01*
X11706589Y38558542D01*
X11558341Y38706789D01*
X11364647Y38787020D01*
X11154993Y38787020D01*
X8955353Y38787020D01*
X8761658Y38706789D01*
X8613411Y38558541D01*
X8533180Y38364847D01*
X8533180Y38155193D01*
X8533180Y36554993D01*
X8613411Y36361298D01*
X8761659Y36213051D01*
X8955353Y36132820D01*
X9165007Y36132820D01*
X11364647Y36132820D01*
X11558342Y36213051D01*
X11706589Y36361299D01*
X11786820Y36554993D01*
X11786820Y36764647D01*
X11786820Y36782920D01*
X13964920Y36782920D01*
X14223996Y36834454D01*
X14223997Y36834454D01*
X14443631Y36981209D01*
X15012422Y37550000D01*
X20547578Y37550000D01*
X20929143Y37168435D01*
X20825731Y37065021D01*
X20745500Y36871327D01*
X20745500Y36661673D01*
X20745500Y36026673D01*
X20825731Y35832978D01*
X20895341Y35763368D01*
X20734173Y35602198D01*
X20637500Y35368809D01*
X20637500Y35210750D01*
X20796250Y35052000D01*
X21717000Y35052000D01*
X21717000Y35072000D01*
X21971000Y35072000D01*
X21971000Y35052000D01*
X22891750Y35052000D01*
X23050500Y35210750D01*
X23050500Y35301078D01*
X23270289Y35081289D01*
X23489923Y34934534D01*
X23489924Y34934534D01*
X23749000Y34883000D01*
X23891283Y34883000D01*
X23914930Y34859312D01*
X24218778Y34733144D01*
X24547779Y34732857D01*
X24851846Y34858495D01*
X25000000Y35006391D01*
X25000000Y33917000D01*
X23655173Y33917000D01*
X23461478Y33836769D01*
X23313231Y33688521D01*
X23233000Y33494827D01*
X23233000Y33285173D01*
X23233000Y31085173D01*
X23313231Y30891478D01*
X23461479Y30743231D01*
X23655173Y30663000D01*
X23864827Y30663000D01*
X24173053Y30663000D01*
X24203745Y30508705D01*
X24334242Y30313402D01*
X24538176Y30109468D01*
X24508731Y30080021D01*
X24428500Y29886327D01*
X24428500Y29676673D01*
X24428500Y28533673D01*
X24508731Y28339978D01*
X24656979Y28191731D01*
X24671000Y28185924D01*
X24671000Y27694078D01*
X24656978Y27688269D01*
X24508731Y27540021D01*
X24505949Y27533306D01*
X24477827Y27601199D01*
X24299198Y27779827D01*
X24065809Y27876500D01*
X23907750Y27876500D01*
X23749000Y27717750D01*
X23749000Y26797000D01*
X23769000Y26797000D01*
X23769000Y26543000D01*
X23749000Y26543000D01*
X23749000Y25622250D01*
X23907750Y25463500D01*
X24065809Y25463500D01*
X24299198Y25560173D01*
X24477827Y25738801D01*
X24505949Y25806694D01*
X24508731Y25799978D01*
X24656979Y25651731D01*
X24850673Y25571500D01*
X25060327Y25571500D01*
X25695327Y25571500D01*
X25889022Y25651731D01*
X25958632Y25721342D01*
X26119802Y25560173D01*
X26353191Y25463500D01*
X26511250Y25463500D01*
X26670000Y25622250D01*
X26670000Y26543000D01*
X26650000Y26543000D01*
X26650000Y26797000D01*
X26670000Y26797000D01*
X26670000Y27717750D01*
X26511250Y27876500D01*
X26353191Y27876500D01*
X26119802Y27779827D01*
X25958632Y27618659D01*
X25889021Y27688269D01*
X25875000Y27694077D01*
X25875000Y28185923D01*
X25889022Y28191731D01*
X25958632Y28261342D01*
X26119802Y28100173D01*
X26353191Y28003500D01*
X26511250Y28003500D01*
X26670000Y28162250D01*
X26670000Y29083000D01*
X26650000Y29083000D01*
X26650000Y29337000D01*
X26670000Y29337000D01*
X26670000Y30257750D01*
X26511250Y30416500D01*
X26353191Y30416500D01*
X26119802Y30319827D01*
X25958632Y30158659D01*
X25889021Y30228269D01*
X25873249Y30234802D01*
X25829175Y30456375D01*
X25698678Y30651678D01*
X25687356Y30663000D01*
X26364827Y30663000D01*
X26558522Y30743231D01*
X26706769Y30891479D01*
X26725000Y30935493D01*
X26725000Y30913690D01*
X26821673Y30680301D01*
X27000302Y30501673D01*
X27205927Y30416500D01*
X27082750Y30416500D01*
X26924000Y30257750D01*
X26924000Y29337000D01*
X27590750Y29337000D01*
X27749500Y29495750D01*
X27749500Y29655191D01*
X27749500Y29907810D01*
X27652827Y30141199D01*
X27474198Y30319827D01*
X27268572Y30405000D01*
X27326250Y30405000D01*
X27485000Y30563750D01*
X27485000Y31913000D01*
X27463000Y31913000D01*
X27463000Y32167000D01*
X27485000Y32167000D01*
X27485000Y32187000D01*
X27633000Y32187000D01*
X27633000Y30935173D01*
X27713231Y30741478D01*
X27735000Y30719710D01*
X27735000Y30563750D01*
X27893750Y30405000D01*
X27986309Y30405000D01*
X28219698Y30501673D01*
X28231025Y30513000D01*
X28264827Y30513000D01*
X28533000Y30513000D01*
X28533000Y30148402D01*
X28584534Y29889325D01*
X28731289Y29669691D01*
X32170233Y26230747D01*
X31848428Y25908942D01*
X31768197Y25715247D01*
X31768197Y25616803D01*
X31540270Y25616802D01*
X31306881Y25520130D01*
X31195116Y25408365D01*
X31195116Y25183859D01*
X31846185Y24532790D01*
X31860327Y24546933D01*
X32039932Y24367328D01*
X32025790Y24353185D01*
X32676859Y23702116D01*
X32901365Y23702116D01*
X33013130Y23813881D01*
X33109802Y24047270D01*
X33109802Y24275197D01*
X33208247Y24275197D01*
X33401942Y24355428D01*
X33550189Y24503676D01*
X33723746Y24677234D01*
X37986979Y20414000D01*
X37079356Y20414000D01*
X36797000Y20696357D01*
X36797000Y21082000D01*
X36758777Y21274154D01*
X36751175Y21312375D01*
X36751175Y21312376D01*
X36620678Y21507678D01*
X36366678Y21761678D01*
X36171375Y21892175D01*
X36150500Y21896328D01*
X36150500Y22012327D01*
X36070269Y22206022D01*
X35922021Y22354269D01*
X35728327Y22434500D01*
X35518673Y22434500D01*
X34883673Y22434500D01*
X34689978Y22354269D01*
X34544000Y22208291D01*
X34398021Y22354269D01*
X34204327Y22434500D01*
X33994673Y22434500D01*
X33359673Y22434500D01*
X33165978Y22354269D01*
X33020000Y22208291D01*
X32874021Y22354269D01*
X32680327Y22434500D01*
X32497254Y22434500D01*
X32497254Y23298005D01*
X32497254Y23522511D01*
X31846185Y24173580D01*
X31666580Y23993975D01*
X31666580Y24353185D01*
X31015511Y25004254D01*
X30791005Y25004254D01*
X30679240Y24892489D01*
X30582568Y24659100D01*
X30582567Y24406481D01*
X30679240Y24173092D01*
X30857868Y23994463D01*
X30970610Y23881722D01*
X31195116Y23881722D01*
X31666580Y24353185D01*
X31666580Y23993975D01*
X31374722Y23702116D01*
X31374722Y23477610D01*
X31487463Y23364868D01*
X31666092Y23186240D01*
X31899481Y23089567D01*
X32152100Y23089568D01*
X32385489Y23186240D01*
X32497254Y23298005D01*
X32497254Y22434500D01*
X32470673Y22434500D01*
X31835673Y22434500D01*
X31641978Y22354269D01*
X31572367Y22284659D01*
X31411198Y22445827D01*
X31177809Y22542500D01*
X31019750Y22542500D01*
X30861000Y22383750D01*
X30861000Y21463000D01*
X30881000Y21463000D01*
X30881000Y21209000D01*
X30861000Y21209000D01*
X30861000Y20351750D01*
X30861000Y20288250D01*
X30861000Y19431000D01*
X30881000Y19431000D01*
X30881000Y19177000D01*
X30861000Y19177000D01*
X30861000Y19157000D01*
X30607000Y19157000D01*
X30607000Y19177000D01*
X30607000Y19431000D01*
X30607000Y20288250D01*
X30607000Y20351750D01*
X30607000Y21209000D01*
X30607000Y21463000D01*
X30607000Y22383750D01*
X30448250Y22542500D01*
X30290191Y22542500D01*
X30056802Y22445827D01*
X29878173Y22267199D01*
X29781500Y22033810D01*
X29781500Y21781191D01*
X29781500Y21621750D01*
X29940250Y21463000D01*
X30607000Y21463000D01*
X30607000Y21209000D01*
X29940250Y21209000D01*
X29781500Y21050250D01*
X29781500Y20890809D01*
X29781500Y20638190D01*
X29878173Y20404801D01*
X29962974Y20320000D01*
X29878173Y20235199D01*
X29781500Y20001810D01*
X29781500Y19749191D01*
X29781500Y19589750D01*
X29940250Y19431000D01*
X30607000Y19431000D01*
X30607000Y19177000D01*
X29940250Y19177000D01*
X29863336Y19100087D01*
X29760000Y19203423D01*
X29760000Y19558000D01*
X29760000Y22860000D01*
X29708467Y23119076D01*
X29708466Y23119077D01*
X29561711Y23338711D01*
X28799711Y24100711D01*
X28580077Y24247466D01*
X28321000Y24299000D01*
X27749500Y24299000D01*
X27749500Y25972190D01*
X27749500Y26224809D01*
X27749500Y26384250D01*
X27749500Y26955750D01*
X27749500Y27115191D01*
X27749500Y27367810D01*
X27749500Y28512190D01*
X27749500Y28764809D01*
X27749500Y28924250D01*
X27590750Y29083000D01*
X26924000Y29083000D01*
X26924000Y28162250D01*
X27082750Y28003500D01*
X27240809Y28003500D01*
X27474198Y28100173D01*
X27652827Y28278801D01*
X27749500Y28512190D01*
X27749500Y27367810D01*
X27652827Y27601199D01*
X27474198Y27779827D01*
X27240809Y27876500D01*
X27082750Y27876500D01*
X26924000Y27717750D01*
X26924000Y26797000D01*
X27590750Y26797000D01*
X27749500Y26955750D01*
X27749500Y26384250D01*
X27590750Y26543000D01*
X26924000Y26543000D01*
X26924000Y25622250D01*
X27082750Y25463500D01*
X27240809Y25463500D01*
X27474198Y25560173D01*
X27652827Y25738801D01*
X27749500Y25972190D01*
X27749500Y24299000D01*
X25781000Y24299000D01*
X25521923Y24247466D01*
X25302289Y24100711D01*
X25246578Y24045000D01*
X25038000Y24045000D01*
X25038000Y24107827D01*
X24957769Y24301522D01*
X24809521Y24449769D01*
X24615827Y24530000D01*
X24406173Y24530000D01*
X22882173Y24530000D01*
X22688478Y24449769D01*
X22540231Y24301521D01*
X22460000Y24107827D01*
X22460000Y24045000D01*
X21949500Y24045000D01*
X21949500Y25571500D01*
X22520327Y25571500D01*
X22714022Y25651731D01*
X22783632Y25721342D01*
X22944802Y25560173D01*
X23178191Y25463500D01*
X23336250Y25463500D01*
X23495000Y25622250D01*
X23495000Y26543000D01*
X23475000Y26543000D01*
X23475000Y26797000D01*
X23495000Y26797000D01*
X23495000Y27717750D01*
X23336250Y27876500D01*
X23178191Y27876500D01*
X23050500Y27823609D01*
X23050500Y34481191D01*
X23050500Y34639250D01*
X22891750Y34798000D01*
X21971000Y34798000D01*
X21971000Y34131250D01*
X22129750Y33972500D01*
X22289191Y33972500D01*
X22541810Y33972500D01*
X22775199Y34069173D01*
X22953827Y34247802D01*
X23050500Y34481191D01*
X23050500Y27823609D01*
X22944802Y27779827D01*
X22783632Y27618659D01*
X22714021Y27688269D01*
X22520327Y27768500D01*
X22310673Y27768500D01*
X21949500Y27768500D01*
X21949500Y28092500D01*
X21897967Y28351576D01*
X21897966Y28351577D01*
X21751212Y28571211D01*
X21717000Y28605423D01*
X21717000Y34131250D01*
X21717000Y34798000D01*
X20796250Y34798000D01*
X20637500Y34639250D01*
X20637500Y34481191D01*
X20734173Y34247802D01*
X20912801Y34069173D01*
X21146190Y33972500D01*
X21398809Y33972500D01*
X21558250Y33972500D01*
X21717000Y34131250D01*
X21717000Y28605423D01*
X21207000Y29115423D01*
X21207000Y30489827D01*
X21126769Y30683522D01*
X20978521Y30831769D01*
X20784827Y30912000D01*
X20575173Y30912000D01*
X20165000Y30912000D01*
X20165000Y34258690D01*
X20165000Y34511309D01*
X20165000Y35199250D01*
X20165000Y35770750D01*
X20165000Y36458691D01*
X20165000Y36711310D01*
X20068327Y36944699D01*
X19889698Y37123327D01*
X19656309Y37220000D01*
X18065750Y37220000D01*
X17907000Y37061250D01*
X17907000Y35612000D01*
X20006250Y35612000D01*
X20165000Y35770750D01*
X20165000Y35199250D01*
X20006250Y35358000D01*
X17907000Y35358000D01*
X17907000Y33908750D01*
X18065750Y33750000D01*
X19656309Y33750000D01*
X19889698Y33846673D01*
X20068327Y34025301D01*
X20165000Y34258690D01*
X20165000Y30912000D01*
X19375173Y30912000D01*
X19181478Y30831769D01*
X19033231Y30683521D01*
X18988449Y30575409D01*
X18918327Y30744699D01*
X18739698Y30923327D01*
X18506309Y31020000D01*
X18065750Y31020000D01*
X17907000Y30861250D01*
X17907000Y29412000D01*
X17927000Y29412000D01*
X17927000Y29158000D01*
X17907000Y29158000D01*
X17907000Y27708750D01*
X18051760Y27563990D01*
X17970500Y27367810D01*
X17970500Y27115191D01*
X17970500Y26955750D01*
X18129250Y26797000D01*
X18796000Y26797000D01*
X18796000Y26817000D01*
X19050000Y26817000D01*
X19050000Y26797000D01*
X19070000Y26797000D01*
X19070000Y26543000D01*
X19050000Y26543000D01*
X19050000Y25622250D01*
X19208750Y25463500D01*
X19366809Y25463500D01*
X19600198Y25560173D01*
X19761367Y25721342D01*
X19830979Y25651731D01*
X20024673Y25571500D01*
X20234327Y25571500D01*
X20595500Y25571500D01*
X20595500Y23648422D01*
X18796000Y21848922D01*
X18796000Y25622250D01*
X18796000Y26543000D01*
X18129250Y26543000D01*
X17970500Y26384250D01*
X17970500Y26224809D01*
X17970500Y25972190D01*
X18067173Y25738801D01*
X18245802Y25560173D01*
X18479191Y25463500D01*
X18637250Y25463500D01*
X18796000Y25622250D01*
X18796000Y21848922D01*
X18063289Y21116211D01*
X17916534Y20896577D01*
X17865000Y20637500D01*
X17865000Y14038291D01*
X17777731Y13951021D01*
X17697500Y13757327D01*
X17697500Y13547673D01*
X17697500Y12404673D01*
X17777731Y12210978D01*
X17865000Y12123710D01*
X17865000Y11622000D01*
X17770173Y11622000D01*
X17653000Y11573466D01*
X17653000Y27708750D01*
X17653000Y29158000D01*
X17633000Y29158000D01*
X17633000Y29412000D01*
X17653000Y29412000D01*
X17653000Y30861250D01*
X17653000Y33908750D01*
X17653000Y35358000D01*
X17653000Y35612000D01*
X17653000Y37061250D01*
X17494250Y37220000D01*
X15903691Y37220000D01*
X15670302Y37123327D01*
X15491673Y36944699D01*
X15395000Y36711310D01*
X15395000Y36458691D01*
X15395000Y35770750D01*
X15553750Y35612000D01*
X17653000Y35612000D01*
X17653000Y35358000D01*
X15553750Y35358000D01*
X15395000Y35199250D01*
X15395000Y34511309D01*
X15395000Y34258690D01*
X15491673Y34025301D01*
X15670302Y33846673D01*
X15903691Y33750000D01*
X17494250Y33750000D01*
X17653000Y33908750D01*
X17653000Y30861250D01*
X17494250Y31020000D01*
X17053691Y31020000D01*
X16820302Y30923327D01*
X16641673Y30744699D01*
X16571550Y30575410D01*
X16526769Y30683522D01*
X16378521Y30831769D01*
X16184827Y30912000D01*
X15975173Y30912000D01*
X14775173Y30912000D01*
X14581478Y30831769D01*
X14433231Y30683521D01*
X14353000Y30489827D01*
X14353000Y30280173D01*
X14353000Y28080173D01*
X14433231Y27886478D01*
X14436000Y27883710D01*
X14436000Y27627291D01*
X14348731Y27540021D01*
X14270882Y27352080D01*
X13377000Y27352080D01*
X13377000Y33020000D01*
X13325466Y33279076D01*
X13325466Y33279077D01*
X13178711Y33498711D01*
X12538631Y34138791D01*
X12318997Y34285546D01*
X12059920Y34337080D01*
X11786820Y34337080D01*
X11786820Y34565007D01*
X11706589Y34758702D01*
X11558341Y34906949D01*
X11364647Y34987180D01*
X11154993Y34987180D01*
X8955353Y34987180D01*
X8761658Y34906949D01*
X8613411Y34758701D01*
X8533180Y34565007D01*
X8533180Y34355353D01*
X8533180Y32755153D01*
X8613411Y32561458D01*
X8761659Y32413211D01*
X8955353Y32332980D01*
X9165007Y32332980D01*
X11364647Y32332980D01*
X11558342Y32413211D01*
X11706589Y32561459D01*
X11786820Y32755153D01*
X11786820Y32964807D01*
X11786820Y32975758D01*
X12023000Y32739578D01*
X12023000Y27352080D01*
X11786820Y27352080D01*
X11786820Y27580007D01*
X11786820Y29569993D01*
X11786820Y29779647D01*
X11786820Y31379847D01*
X11706589Y31573542D01*
X11558341Y31721789D01*
X11364647Y31802020D01*
X11154993Y31802020D01*
X8955353Y31802020D01*
X8761658Y31721789D01*
X8613411Y31573541D01*
X8533180Y31379847D01*
X8533180Y31170193D01*
X8533180Y31151920D01*
X7905502Y31151920D01*
X6945294Y32112128D01*
X6945294Y36207892D01*
X6944705Y37455072D01*
X6468564Y38604579D01*
X6045880Y38886275D01*
X5866275Y38706670D01*
X5866275Y39065880D01*
X5584579Y39488564D01*
X4432108Y39965294D01*
X3184928Y39964705D01*
X2035421Y39488564D01*
X1753725Y39065880D01*
X3810000Y37009605D01*
X5866275Y39065880D01*
X5866275Y38706670D01*
X3989605Y36830000D01*
X6045880Y34773725D01*
X6468564Y35055421D01*
X6945294Y36207892D01*
X6945294Y32112128D01*
X6828711Y32228711D01*
X6609077Y32375466D01*
X6350000Y32427000D01*
X5866275Y32427000D01*
X5866275Y34594120D01*
X3810000Y36650395D01*
X3630395Y36470790D01*
X3630395Y36830000D01*
X1574120Y38886275D01*
X1151436Y38604579D01*
X674706Y37452108D01*
X675295Y36204928D01*
X1151436Y35055421D01*
X1574120Y34773725D01*
X3630395Y36830000D01*
X3630395Y36470790D01*
X1753725Y34594120D01*
X2035421Y34171436D01*
X3187892Y33694706D01*
X4435072Y33695295D01*
X5584579Y34171436D01*
X5866275Y34594120D01*
X5866275Y32427000D01*
X5661873Y32427000D01*
X5509412Y32655174D01*
X5094115Y32932667D01*
X4604238Y33030110D01*
X3015762Y33030110D01*
X2525885Y32932667D01*
X2110588Y32655174D01*
X1833095Y32239877D01*
X1735652Y31750000D01*
X1833095Y31260123D01*
X2110588Y30844826D01*
X2525885Y30567333D01*
X2704471Y30531810D01*
X2407081Y30443846D01*
X1984276Y30101740D01*
X1724573Y29623875D01*
X1710217Y29551674D01*
X1832838Y29337000D01*
X3683000Y29337000D01*
X3683000Y29357000D01*
X3937000Y29357000D01*
X3937000Y29337000D01*
X5787162Y29337000D01*
X5909783Y29551674D01*
X5895427Y29623875D01*
X5635724Y30101740D01*
X5212919Y30443846D01*
X4915528Y30531810D01*
X5094115Y30567333D01*
X5509412Y30844826D01*
X5661873Y31073000D01*
X6069577Y31073000D01*
X7146368Y29996209D01*
X7146369Y29996209D01*
X7256186Y29922832D01*
X7366003Y29849454D01*
X7366004Y29849454D01*
X7625080Y29797920D01*
X8533180Y29797920D01*
X8533180Y29569993D01*
X8613411Y29376298D01*
X8761659Y29228051D01*
X8955353Y29147820D01*
X9165007Y29147820D01*
X11364647Y29147820D01*
X11558342Y29228051D01*
X11706589Y29376299D01*
X11786820Y29569993D01*
X11786820Y27580007D01*
X11706589Y27773702D01*
X11558341Y27921949D01*
X11364647Y28002180D01*
X11154993Y28002180D01*
X8955353Y28002180D01*
X8761658Y27921949D01*
X8613411Y27773701D01*
X8533180Y27580007D01*
X8533180Y27370353D01*
X8533180Y25770153D01*
X8613411Y25576458D01*
X8761659Y25428211D01*
X8955353Y25347980D01*
X9165007Y25347980D01*
X11364647Y25347980D01*
X11558342Y25428211D01*
X11706589Y25576459D01*
X11786820Y25770153D01*
X11786820Y25979807D01*
X11786820Y25998080D01*
X12700000Y25998080D01*
X14268500Y25998080D01*
X14268500Y25993673D01*
X14348731Y25799978D01*
X14496979Y25651731D01*
X14690673Y25571500D01*
X14900327Y25571500D01*
X15535327Y25571500D01*
X15729022Y25651731D01*
X15798632Y25721342D01*
X15959802Y25560173D01*
X16193191Y25463500D01*
X16351250Y25463500D01*
X16510000Y25622250D01*
X16510000Y26543000D01*
X16490000Y26543000D01*
X16490000Y26797000D01*
X16510000Y26797000D01*
X16510000Y26817000D01*
X16764000Y26817000D01*
X16764000Y26797000D01*
X17430750Y26797000D01*
X17589500Y26955750D01*
X17589500Y27115191D01*
X17589500Y27367810D01*
X17508239Y27563990D01*
X17653000Y27708750D01*
X17653000Y11573466D01*
X17589500Y11547163D01*
X17589500Y25972190D01*
X17589500Y26224809D01*
X17589500Y26384250D01*
X17430750Y26543000D01*
X16764000Y26543000D01*
X16764000Y25622250D01*
X16922750Y25463500D01*
X17080809Y25463500D01*
X17314198Y25560173D01*
X17492827Y25738801D01*
X17589500Y25972190D01*
X17589500Y11547163D01*
X17576478Y11541769D01*
X17428231Y11393521D01*
X17348000Y11199827D01*
X17348000Y10990173D01*
X17348000Y10390173D01*
X17428231Y10196478D01*
X17464709Y10160000D01*
X17428231Y10123521D01*
X17348000Y9929827D01*
X17348000Y9720173D01*
X17348000Y9120173D01*
X17411509Y8966848D01*
X15640000Y10738357D01*
X15640000Y15008173D01*
X15640000Y15217827D01*
X15640000Y16487827D01*
X15559769Y16681522D01*
X15411521Y16829769D01*
X15217827Y16910000D01*
X15008173Y16910000D01*
X13484173Y16910000D01*
X13290478Y16829769D01*
X13142231Y16681521D01*
X13062000Y16487827D01*
X13062000Y16278173D01*
X13062000Y15008173D01*
X13142231Y14814478D01*
X13290479Y14666231D01*
X13484173Y14586000D01*
X13693827Y14586000D01*
X15217827Y14586000D01*
X15411522Y14666231D01*
X15559769Y14814479D01*
X15640000Y15008173D01*
X15640000Y10738357D01*
X15157678Y11220678D01*
X14962375Y11351175D01*
X14732000Y11397000D01*
X14318290Y11397000D01*
X14173521Y11541769D01*
X13979827Y11622000D01*
X13770173Y11622000D01*
X12540000Y11622000D01*
X12540000Y12446000D01*
X12501777Y12638154D01*
X12494175Y12676375D01*
X12494175Y12676376D01*
X12363678Y12871678D01*
X12109678Y13125678D01*
X11914375Y13256175D01*
X11766500Y13285590D01*
X11766500Y13376327D01*
X11686269Y13570022D01*
X11661614Y13594677D01*
X11748856Y13804778D01*
X11749143Y14133779D01*
X11661699Y14345410D01*
X11686269Y14369979D01*
X11766500Y14563673D01*
X11766500Y14773327D01*
X11766500Y15916327D01*
X11686269Y16110022D01*
X11538021Y16258269D01*
X11344327Y16338500D01*
X11134673Y16338500D01*
X10499673Y16338500D01*
X10305978Y16258269D01*
X10160000Y16112291D01*
X10014021Y16258269D01*
X9820327Y16338500D01*
X9610673Y16338500D01*
X8975673Y16338500D01*
X8781978Y16258269D01*
X8689032Y16165324D01*
X8095000Y16759356D01*
X8095000Y17348205D01*
X8273544Y17228905D01*
X8273545Y17228905D01*
X8311766Y17221303D01*
X8503920Y17183080D01*
X8533180Y17183080D01*
X8533180Y16880153D01*
X8613411Y16686458D01*
X8761659Y16538211D01*
X8955353Y16457980D01*
X9165007Y16457980D01*
X11364647Y16457980D01*
X11558342Y16538211D01*
X11706589Y16686459D01*
X11786820Y16880153D01*
X11786820Y17089807D01*
X11786820Y17183080D01*
X11943080Y17183080D01*
X12173455Y17228905D01*
X12368758Y17359402D01*
X12822356Y17813000D01*
X13062000Y17813000D01*
X13062000Y17675173D01*
X13142231Y17481478D01*
X13290479Y17333231D01*
X13484173Y17253000D01*
X13693827Y17253000D01*
X15217827Y17253000D01*
X15411522Y17333231D01*
X15559769Y17481479D01*
X15640000Y17675173D01*
X15640000Y17884827D01*
X15640000Y19154827D01*
X15559769Y19348522D01*
X15411521Y19496769D01*
X15217827Y19577000D01*
X15008173Y19577000D01*
X13484173Y19577000D01*
X13290478Y19496769D01*
X13142231Y19348521D01*
X13062000Y19154827D01*
X13062000Y19017000D01*
X12573000Y19017000D01*
X12380846Y18978778D01*
X12342624Y18971175D01*
X12147321Y18840678D01*
X11786820Y18480177D01*
X11786820Y18690007D01*
X11706589Y18883702D01*
X11558341Y19031949D01*
X11364647Y19112180D01*
X11154993Y19112180D01*
X8955353Y19112180D01*
X8761658Y19031949D01*
X8613411Y18883701D01*
X8603000Y18858567D01*
X8603000Y20511433D01*
X8613411Y20486298D01*
X8761659Y20338051D01*
X8955353Y20257820D01*
X9165007Y20257820D01*
X11364647Y20257820D01*
X11558342Y20338051D01*
X11706589Y20486299D01*
X11786820Y20679993D01*
X11786820Y20889647D01*
X11786820Y20889824D01*
X12147321Y20529322D01*
X12147322Y20529322D01*
X12342624Y20398825D01*
X12342625Y20398825D01*
X12380846Y20391223D01*
X12573000Y20353000D01*
X13062000Y20353000D01*
X13062000Y20215173D01*
X13142231Y20021478D01*
X13290479Y19873231D01*
X13484173Y19793000D01*
X13693827Y19793000D01*
X15217827Y19793000D01*
X15411522Y19873231D01*
X15559769Y20021479D01*
X15640000Y20215173D01*
X15640000Y20424827D01*
X15640000Y21694827D01*
X15640000Y22755173D01*
X15640000Y22964827D01*
X15640000Y24234827D01*
X15559769Y24428522D01*
X15411521Y24576769D01*
X15217827Y24657000D01*
X15008173Y24657000D01*
X13484173Y24657000D01*
X13290478Y24576769D01*
X13142231Y24428521D01*
X13062000Y24234827D01*
X13062000Y24025173D01*
X13062000Y22755173D01*
X13142231Y22561478D01*
X13290479Y22413231D01*
X13484173Y22333000D01*
X13693827Y22333000D01*
X15217827Y22333000D01*
X15411522Y22413231D01*
X15559769Y22561479D01*
X15640000Y22755173D01*
X15640000Y21694827D01*
X15559769Y21888522D01*
X15411521Y22036769D01*
X15217827Y22117000D01*
X15008173Y22117000D01*
X13484173Y22117000D01*
X13290478Y22036769D01*
X13142231Y21888521D01*
X13062000Y21694827D01*
X13062000Y21557000D01*
X12822356Y21557000D01*
X12368758Y22010598D01*
X12173455Y22141095D01*
X11943080Y22186920D01*
X11786820Y22186920D01*
X11786820Y22489847D01*
X11706589Y22683542D01*
X11558341Y22831789D01*
X11468425Y22869034D01*
X11478175Y22883625D01*
X11522249Y23105198D01*
X11538022Y23111731D01*
X11686269Y23259979D01*
X11766500Y23453673D01*
X11766500Y23663327D01*
X11766500Y24806327D01*
X11686269Y25000022D01*
X11538021Y25148269D01*
X11344327Y25228500D01*
X11134673Y25228500D01*
X10499673Y25228500D01*
X10305978Y25148269D01*
X10160000Y25002291D01*
X10014021Y25148269D01*
X9820327Y25228500D01*
X9610673Y25228500D01*
X8975673Y25228500D01*
X8781978Y25148269D01*
X8633731Y25000021D01*
X8553500Y24806327D01*
X8553500Y24732000D01*
X8504356Y24732000D01*
X6140678Y27095678D01*
X5945375Y27226175D01*
X5715000Y27272000D01*
X5711986Y27272000D01*
X5509412Y27575174D01*
X5094115Y27852667D01*
X4915528Y27888191D01*
X5212919Y27976154D01*
X5635724Y28318260D01*
X5895427Y28796125D01*
X5909783Y28868326D01*
X5787162Y29083000D01*
X3937000Y29083000D01*
X3937000Y29063000D01*
X3683000Y29063000D01*
X3683000Y29083000D01*
X1832838Y29083000D01*
X1710217Y28868326D01*
X1724573Y28796125D01*
X1984276Y28318260D01*
X2407081Y27976154D01*
X2704471Y27888191D01*
X2525885Y27852667D01*
X2110588Y27575174D01*
X1833095Y27159877D01*
X1735652Y26670000D01*
X1833095Y26180123D01*
X2110588Y25764826D01*
X2525885Y25487333D01*
X2964935Y25400000D01*
X2525885Y25312667D01*
X2110588Y25035174D01*
X1833095Y24619877D01*
X1735652Y24130000D01*
X1833095Y23640123D01*
X2110588Y23224826D01*
X2525885Y22947333D01*
X2964935Y22860000D01*
X2525885Y22772667D01*
X2110588Y22495174D01*
X1833095Y22079877D01*
X1735652Y21590000D01*
X1833095Y21100123D01*
X2110588Y20684826D01*
X2525885Y20407333D01*
X2964935Y20320000D01*
X2525885Y20232667D01*
X2110588Y19955174D01*
X1833095Y19539877D01*
X1735652Y19050000D01*
X1833095Y18560123D01*
X2110588Y18144826D01*
X2525885Y17867333D01*
X2964935Y17780000D01*
X2525885Y17692667D01*
X2110588Y17415174D01*
X1833095Y16999877D01*
X1735652Y16510000D01*
X1833095Y16020123D01*
X2110588Y15604826D01*
X2525885Y15327333D01*
X2964935Y15240000D01*
X2525885Y15152667D01*
X2110588Y14875174D01*
X1833095Y14459877D01*
X1735652Y13970000D01*
X1833095Y13480123D01*
X2110588Y13064826D01*
X2525885Y12787333D01*
X2964935Y12700000D01*
X2525885Y12612667D01*
X2110588Y12335174D01*
X1833095Y11919877D01*
X1735652Y11430000D01*
X1833095Y10940123D01*
X2110588Y10524826D01*
X2525885Y10247333D01*
X2964935Y10160000D01*
X2525885Y10072667D01*
X2110588Y9795174D01*
X1833095Y9379877D01*
X1735652Y8890000D01*
X1833095Y8400123D01*
X2110588Y7984826D01*
X2525885Y7707333D01*
X3015762Y7609890D01*
X4492754Y7609890D01*
X5961518Y6141126D01*
X5866273Y6045882D01*
X5584579Y6468564D01*
X4432108Y6945294D01*
X3184928Y6944705D01*
X2035421Y6468564D01*
X1753725Y6045880D01*
X3810000Y3989605D01*
X3824142Y4003748D01*
X4003747Y3824143D01*
X3989605Y3810000D01*
X6045880Y1753725D01*
X6468564Y2035421D01*
X6945294Y3187892D01*
X6944705Y4435072D01*
X6468564Y5584579D01*
X6045881Y5866274D01*
X6141126Y5961518D01*
X7780000Y4322644D01*
X7780000Y2921000D01*
X7825825Y2690625D01*
X7956322Y2495322D01*
X8337321Y2114322D01*
X8337322Y2114322D01*
X8532624Y1983825D01*
X8532625Y1983825D01*
X8553500Y1979673D01*
X8553500Y1863673D01*
X8633731Y1669978D01*
X8781979Y1521731D01*
X8975673Y1441500D01*
X9185327Y1441500D01*
X9820327Y1441500D01*
X10014022Y1521731D01*
X10159999Y1667710D01*
X10305979Y1521731D01*
X10499673Y1441500D01*
X10709327Y1441500D01*
X11344327Y1441500D01*
X11538022Y1521731D01*
X11686269Y1669979D01*
X11766500Y1863673D01*
X11766500Y2054736D01*
X11855678Y2114322D01*
X12146665Y2405309D01*
X12215301Y2336673D01*
X12448690Y2240000D01*
X12701309Y2240000D01*
X12939250Y2240000D01*
X13098000Y2398750D01*
X13098000Y3048000D01*
X13078000Y3048000D01*
X13078000Y3302000D01*
X13098000Y3302000D01*
X13098000Y3322000D01*
X13352000Y3322000D01*
X13352000Y3302000D01*
X14351250Y3302000D01*
X14510000Y3460750D01*
X14510000Y3601309D01*
X14413327Y3834698D01*
X14345135Y3902891D01*
X14402000Y4040173D01*
X14402000Y4249827D01*
X14402000Y4849827D01*
X14321769Y5043522D01*
X14285290Y5080001D01*
X14318290Y5113000D01*
X14609643Y5113000D01*
X16973321Y2749322D01*
X16973322Y2749322D01*
X17168624Y2618825D01*
X17168625Y2618825D01*
X17206846Y2611223D01*
X17399000Y2573000D01*
X17431709Y2573000D01*
X17576479Y2428231D01*
X17770173Y2348000D01*
X17979827Y2348000D01*
X19279827Y2348000D01*
X19473522Y2428231D01*
X19621769Y2576479D01*
X19702000Y2770173D01*
X19702000Y2979827D01*
X19702000Y3579827D01*
X19621769Y3773522D01*
X19585290Y3810001D01*
X19621769Y3846479D01*
X19702000Y4040173D01*
X19702000Y4118644D01*
X20237500Y4654144D01*
X20237500Y4530673D01*
X20317731Y4336978D01*
X20465979Y4188731D01*
X20613803Y4127501D01*
X20465978Y4066269D01*
X20317731Y3918021D01*
X20237500Y3724327D01*
X20237500Y3514673D01*
X20237500Y2879673D01*
X20317731Y2685978D01*
X20387341Y2616368D01*
X20226173Y2455198D01*
X20129500Y2221809D01*
X20129500Y2063750D01*
X20288250Y1905000D01*
X21209000Y1905000D01*
X21209000Y1925000D01*
X21463000Y1925000D01*
X21463000Y1905000D01*
X22383750Y1905000D01*
X22542500Y2063750D01*
X22542500Y2221809D01*
X22445827Y2455198D01*
X22284658Y2616368D01*
X22293290Y2625000D01*
X22325578Y2625000D01*
X23270289Y1680289D01*
X23489923Y1533534D01*
X23489924Y1533534D01*
X23749000Y1482000D01*
X40640000Y1482000D01*
X51181000Y1482000D01*
X51440076Y1533534D01*
X51440077Y1533534D01*
X51659711Y1680289D01*
X64359711Y14380289D01*
X64506466Y14599923D01*
X64506466Y14599924D01*
X64557999Y14859000D01*
X64558000Y14859000D01*
X64558000Y15240000D01*
X64558000Y26035000D01*
X64506466Y26294076D01*
X64506466Y26294077D01*
X64433088Y26403894D01*
X64359711Y26513711D01*
X64359711Y26513712D01*
X64286275Y26587148D01*
X64286275Y34594120D01*
X62230000Y36650395D01*
X62050395Y36470790D01*
X62050395Y36830000D01*
X59994120Y38886275D01*
X59571436Y38604579D01*
X59094706Y37452108D01*
X59095295Y36204928D01*
X59571436Y35055421D01*
X59994120Y34773725D01*
X62050395Y36830000D01*
X62050395Y36470790D01*
X60173725Y34594120D01*
X60455421Y34171436D01*
X61607892Y33694706D01*
X62855072Y33695295D01*
X64004579Y34171436D01*
X64286275Y34594120D01*
X64286275Y26587148D01*
X53564711Y37308711D01*
X53345077Y37455466D01*
X53086000Y37507000D01*
X51905350Y37507000D01*
X51885857Y37554177D01*
X51526071Y37914592D01*
X51055747Y38109887D01*
X50546487Y38110332D01*
X50075823Y37915857D01*
X49715408Y37556071D01*
X49529784Y37109040D01*
X49345857Y37554177D01*
X48986071Y37914592D01*
X48515747Y38109887D01*
X48006487Y38110332D01*
X47535823Y37915857D01*
X47175408Y37556071D01*
X46989784Y37109040D01*
X46805857Y37554177D01*
X46446071Y37914592D01*
X45975747Y38109887D01*
X45466487Y38110332D01*
X44995823Y37915857D01*
X44635408Y37556071D01*
X44449784Y37109040D01*
X44265857Y37554177D01*
X43906071Y37914592D01*
X43435747Y38109887D01*
X42926487Y38110332D01*
X42455823Y37915857D01*
X42095408Y37556071D01*
X41909784Y37109040D01*
X41725857Y37554177D01*
X41366071Y37914592D01*
X40895747Y38109887D01*
X40386487Y38110332D01*
X39915823Y37915857D01*
X39555408Y37556071D01*
X39360113Y37085747D01*
X39359668Y36576487D01*
X39554143Y36105823D01*
X39913929Y35745408D01*
X40203866Y35625016D01*
X39914207Y35505035D01*
X39845834Y35263772D01*
X40640000Y34469605D01*
X40654142Y34483748D01*
X40833747Y34304143D01*
X40819605Y34290000D01*
X40833747Y34275858D01*
X40654142Y34096253D01*
X40640000Y34110395D01*
X40460395Y33930790D01*
X40460395Y34290000D01*
X39666228Y35084166D01*
X39424965Y35015793D01*
X39239704Y34495572D01*
X39267627Y33944054D01*
X39424965Y33564207D01*
X39666228Y33495834D01*
X40460395Y34290000D01*
X40460395Y33930790D01*
X39845834Y33316228D01*
X39914207Y33074965D01*
X40434428Y32889704D01*
X40985946Y32917627D01*
X41308000Y33051027D01*
X41308000Y23622000D01*
X41353825Y23391625D01*
X41484322Y23196322D01*
X41628619Y23052025D01*
X41492221Y23052143D01*
X41188154Y22926505D01*
X40955312Y22694070D01*
X40829144Y22390222D01*
X40828857Y22061221D01*
X40876051Y21947002D01*
X39005219Y21947002D01*
X36600433Y24351789D01*
X36600433Y27790519D01*
X36503760Y28023908D01*
X36325132Y28202537D01*
X36212390Y28315278D01*
X35987884Y28315278D01*
X35516420Y27843815D01*
X36167489Y27192746D01*
X36391995Y27192746D01*
X36503760Y27304511D01*
X36600432Y27537900D01*
X36600433Y27790519D01*
X36600433Y24351789D01*
X34999367Y25952855D01*
X35334572Y26288058D01*
X35414803Y26481753D01*
X35414803Y26580198D01*
X35642730Y26580198D01*
X35876119Y26676870D01*
X35987884Y26788635D01*
X35987884Y27013141D01*
X35336815Y27664210D01*
X35322672Y27650068D01*
X35143067Y27829673D01*
X35157210Y27843815D01*
X35143067Y27857958D01*
X35322672Y28037563D01*
X35336815Y28023420D01*
X35808278Y28494884D01*
X35808278Y28719390D01*
X35695537Y28832132D01*
X35516908Y29010760D01*
X35283519Y29107433D01*
X35115500Y29107433D01*
X35115500Y29145809D01*
X35115500Y29305250D01*
X34956750Y29464000D01*
X34290000Y29464000D01*
X34290000Y28543250D01*
X34338366Y28494884D01*
X34281635Y28494884D01*
X34169870Y28383119D01*
X34073198Y28149730D01*
X34073197Y27921803D01*
X33974753Y27921803D01*
X33781058Y27841572D01*
X33632811Y27693324D01*
X33445854Y27506368D01*
X32459722Y28492500D01*
X33061327Y28492500D01*
X33255022Y28572731D01*
X33324632Y28642342D01*
X33485802Y28481173D01*
X33719191Y28384500D01*
X33877250Y28384500D01*
X34036000Y28543250D01*
X34036000Y29464000D01*
X34016000Y29464000D01*
X34016000Y29718000D01*
X34036000Y29718000D01*
X34036000Y29738000D01*
X34290000Y29738000D01*
X34290000Y29718000D01*
X34956750Y29718000D01*
X35115500Y29876750D01*
X35115500Y30036191D01*
X35115500Y30288810D01*
X35018827Y30522199D01*
X34844870Y30696155D01*
X34958522Y30743231D01*
X35106769Y30891479D01*
X35187000Y31085173D01*
X35187000Y31294827D01*
X35187000Y33494827D01*
X35106769Y33688522D01*
X34958521Y33836769D01*
X34764827Y33917000D01*
X34555173Y33917000D01*
X33420000Y33917000D01*
X33420000Y35963000D01*
X34764827Y35963000D01*
X34958522Y36043231D01*
X35106769Y36191479D01*
X35187000Y36385173D01*
X35187000Y36594827D01*
X35187000Y38794827D01*
X35106769Y38988522D01*
X34958521Y39136769D01*
X34764827Y39217000D01*
X34555173Y39217000D01*
X33420000Y39217000D01*
X33420000Y40063000D01*
X65463000Y40063000D01*
X65463000Y577000D01*
X65463000Y577000D01*
G37*
X65463000Y577000D02*
X65365294Y577000D01*
X65365294Y3187892D01*
X65365294Y36207892D01*
X65364705Y37455072D01*
X64888564Y38604579D01*
X64465880Y38886275D01*
X64286275Y38706670D01*
X64286275Y39065880D01*
X64004579Y39488564D01*
X62852108Y39965294D01*
X61604928Y39964705D01*
X60455421Y39488564D01*
X60173725Y39065880D01*
X62230000Y37009605D01*
X64286275Y39065880D01*
X64286275Y38706670D01*
X62409605Y36830000D01*
X64465880Y34773725D01*
X64888564Y35055421D01*
X65365294Y36207892D01*
X65365294Y3187892D01*
X65364705Y4435072D01*
X64888564Y5584579D01*
X64465880Y5866275D01*
X64286275Y5686670D01*
X64286275Y6045880D01*
X64004579Y6468564D01*
X62852108Y6945294D01*
X61604928Y6944705D01*
X60455421Y6468564D01*
X60173725Y6045880D01*
X62230000Y3989605D01*
X64286275Y6045880D01*
X64286275Y5686670D01*
X62409605Y3810000D01*
X64465880Y1753725D01*
X64888564Y2035421D01*
X65365294Y3187892D01*
X65365294Y577000D01*
X64286275Y577000D01*
X64286275Y1574120D01*
X62230000Y3630395D01*
X62050395Y3450790D01*
X62050395Y3810000D01*
X59994120Y5866275D01*
X59571436Y5584579D01*
X59094706Y4432108D01*
X59095295Y3184928D01*
X59571436Y2035421D01*
X59994120Y1753725D01*
X62050395Y3810000D01*
X62050395Y3450790D01*
X60173725Y1574120D01*
X60455421Y1151436D01*
X61607892Y674706D01*
X62855072Y675295D01*
X64004579Y1151436D01*
X64286275Y1574120D01*
X64286275Y577000D01*
X22542500Y577000D01*
X22542500Y1334191D01*
X22542500Y1492250D01*
X22383750Y1651000D01*
X21463000Y1651000D01*
X21463000Y984250D01*
X21621750Y825500D01*
X21781191Y825500D01*
X22033810Y825500D01*
X22267199Y922173D01*
X22445827Y1100802D01*
X22542500Y1334191D01*
X22542500Y577000D01*
X21209000Y577000D01*
X21209000Y984250D01*
X21209000Y1651000D01*
X20288250Y1651000D01*
X20129500Y1492250D01*
X20129500Y1334191D01*
X20226173Y1100802D01*
X20404801Y922173D01*
X20638190Y825500D01*
X20890809Y825500D01*
X21050250Y825500D01*
X21209000Y984250D01*
X21209000Y577000D01*
X14510000Y577000D01*
X14510000Y2748691D01*
X14510000Y2889250D01*
X14351250Y3048000D01*
X13352000Y3048000D01*
X13352000Y2398750D01*
X13510750Y2240000D01*
X13748691Y2240000D01*
X14001310Y2240000D01*
X14234699Y2336673D01*
X14413327Y2515302D01*
X14510000Y2748691D01*
X14510000Y577000D01*
X6945294Y577000D01*
X5866275Y577000D01*
X5866275Y1574120D01*
X3810000Y3630395D01*
X3630395Y3450790D01*
X3630395Y3810000D01*
X1574120Y5866275D01*
X1151436Y5584579D01*
X674706Y4432108D01*
X675295Y3184928D01*
X1151436Y2035421D01*
X1574120Y1753725D01*
X3630395Y3810000D01*
X3630395Y3450790D01*
X1753725Y1574120D01*
X2035421Y1151436D01*
X3187892Y674706D01*
X4435072Y675295D01*
X5584579Y1151436D01*
X5866275Y1574120D01*
X5866275Y577000D01*
X577000Y577000D01*
X577000Y40063000D01*
X25000000Y40063000D01*
X25000000Y39217000D01*
X23655173Y39217000D01*
X23461478Y39136769D01*
X23313231Y38988521D01*
X23233000Y38794827D01*
X23233000Y38585173D01*
X23233000Y36998345D01*
X23119077Y37074466D01*
X22860000Y37126000D01*
X22801290Y37126000D01*
X22714021Y37213269D01*
X22520327Y37293500D01*
X22504589Y37293500D01*
X22469466Y37470076D01*
X22469466Y37470077D01*
X22322711Y37689711D01*
X21306711Y38705711D01*
X21087077Y38852466D01*
X20828000Y38904000D01*
X14732000Y38904000D01*
X14472923Y38852466D01*
X14253289Y38705711D01*
X13684498Y38136920D01*
X11786820Y38136920D01*
X11786820Y38364847D01*
X11706589Y38558542D01*
X11558341Y38706789D01*
X11364647Y38787020D01*
X11154993Y38787020D01*
X8955353Y38787020D01*
X8761658Y38706789D01*
X8613411Y38558541D01*
X8533180Y38364847D01*
X8533180Y38155193D01*
X8533180Y36554993D01*
X8613411Y36361298D01*
X8761659Y36213051D01*
X8955353Y36132820D01*
X9165007Y36132820D01*
X11364647Y36132820D01*
X11558342Y36213051D01*
X11706589Y36361299D01*
X11786820Y36554993D01*
X11786820Y36764647D01*
X11786820Y36782920D01*
X13964920Y36782920D01*
X14223996Y36834454D01*
X14223997Y36834454D01*
X14443631Y36981209D01*
X15012422Y37550000D01*
X20547578Y37550000D01*
X20929143Y37168435D01*
X20825731Y37065021D01*
X20745500Y36871327D01*
X20745500Y36661673D01*
X20745500Y36026673D01*
X20825731Y35832978D01*
X20895341Y35763368D01*
X20734173Y35602198D01*
X20637500Y35368809D01*
X20637500Y35210750D01*
X20796250Y35052000D01*
X21717000Y35052000D01*
X21717000Y35072000D01*
X21971000Y35072000D01*
X21971000Y35052000D01*
X22891750Y35052000D01*
X23050500Y35210750D01*
X23050500Y35301078D01*
X23270289Y35081289D01*
X23489923Y34934534D01*
X23489924Y34934534D01*
X23749000Y34883000D01*
X23891283Y34883000D01*
X23914930Y34859312D01*
X24218778Y34733144D01*
X24547779Y34732857D01*
X24851846Y34858495D01*
X25000000Y35006391D01*
X25000000Y33917000D01*
X23655173Y33917000D01*
X23461478Y33836769D01*
X23313231Y33688521D01*
X23233000Y33494827D01*
X23233000Y33285173D01*
X23233000Y31085173D01*
X23313231Y30891478D01*
X23461479Y30743231D01*
X23655173Y30663000D01*
X23864827Y30663000D01*
X24173053Y30663000D01*
X24203745Y30508705D01*
X24334242Y30313402D01*
X24538176Y30109468D01*
X24508731Y30080021D01*
X24428500Y29886327D01*
X24428500Y29676673D01*
X24428500Y28533673D01*
X24508731Y28339978D01*
X24656979Y28191731D01*
X24671000Y28185924D01*
X24671000Y27694078D01*
X24656978Y27688269D01*
X24508731Y27540021D01*
X24505949Y27533306D01*
X24477827Y27601199D01*
X24299198Y27779827D01*
X24065809Y27876500D01*
X23907750Y27876500D01*
X23749000Y27717750D01*
X23749000Y26797000D01*
X23769000Y26797000D01*
X23769000Y26543000D01*
X23749000Y26543000D01*
X23749000Y25622250D01*
X23907750Y25463500D01*
X24065809Y25463500D01*
X24299198Y25560173D01*
X24477827Y25738801D01*
X24505949Y25806694D01*
X24508731Y25799978D01*
X24656979Y25651731D01*
X24850673Y25571500D01*
X25060327Y25571500D01*
X25695327Y25571500D01*
X25889022Y25651731D01*
X25958632Y25721342D01*
X26119802Y25560173D01*
X26353191Y25463500D01*
X26511250Y25463500D01*
X26670000Y25622250D01*
X26670000Y26543000D01*
X26650000Y26543000D01*
X26650000Y26797000D01*
X26670000Y26797000D01*
X26670000Y27717750D01*
X26511250Y27876500D01*
X26353191Y27876500D01*
X26119802Y27779827D01*
X25958632Y27618659D01*
X25889021Y27688269D01*
X25875000Y27694077D01*
X25875000Y28185923D01*
X25889022Y28191731D01*
X25958632Y28261342D01*
X26119802Y28100173D01*
X26353191Y28003500D01*
X26511250Y28003500D01*
X26670000Y28162250D01*
X26670000Y29083000D01*
X26650000Y29083000D01*
X26650000Y29337000D01*
X26670000Y29337000D01*
X26670000Y30257750D01*
X26511250Y30416500D01*
X26353191Y30416500D01*
X26119802Y30319827D01*
X25958632Y30158659D01*
X25889021Y30228269D01*
X25873249Y30234802D01*
X25829175Y30456375D01*
X25698678Y30651678D01*
X25687356Y30663000D01*
X26364827Y30663000D01*
X26558522Y30743231D01*
X26706769Y30891479D01*
X26725000Y30935493D01*
X26725000Y30913690D01*
X26821673Y30680301D01*
X27000302Y30501673D01*
X27205927Y30416500D01*
X27082750Y30416500D01*
X26924000Y30257750D01*
X26924000Y29337000D01*
X27590750Y29337000D01*
X27749500Y29495750D01*
X27749500Y29655191D01*
X27749500Y29907810D01*
X27652827Y30141199D01*
X27474198Y30319827D01*
X27268572Y30405000D01*
X27326250Y30405000D01*
X27485000Y30563750D01*
X27485000Y31913000D01*
X27463000Y31913000D01*
X27463000Y32167000D01*
X27485000Y32167000D01*
X27485000Y32187000D01*
X27633000Y32187000D01*
X27633000Y30935173D01*
X27713231Y30741478D01*
X27735000Y30719710D01*
X27735000Y30563750D01*
X27893750Y30405000D01*
X27986309Y30405000D01*
X28219698Y30501673D01*
X28231025Y30513000D01*
X28264827Y30513000D01*
X28533000Y30513000D01*
X28533000Y30148402D01*
X28584534Y29889325D01*
X28731289Y29669691D01*
X32170233Y26230747D01*
X31848428Y25908942D01*
X31768197Y25715247D01*
X31768197Y25616803D01*
X31540270Y25616802D01*
X31306881Y25520130D01*
X31195116Y25408365D01*
X31195116Y25183859D01*
X31846185Y24532790D01*
X31860327Y24546933D01*
X32039932Y24367328D01*
X32025790Y24353185D01*
X32676859Y23702116D01*
X32901365Y23702116D01*
X33013130Y23813881D01*
X33109802Y24047270D01*
X33109802Y24275197D01*
X33208247Y24275197D01*
X33401942Y24355428D01*
X33550189Y24503676D01*
X33723746Y24677234D01*
X37986979Y20414000D01*
X37079356Y20414000D01*
X36797000Y20696357D01*
X36797000Y21082000D01*
X36758777Y21274154D01*
X36751175Y21312375D01*
X36751175Y21312376D01*
X36620678Y21507678D01*
X36366678Y21761678D01*
X36171375Y21892175D01*
X36150500Y21896328D01*
X36150500Y22012327D01*
X36070269Y22206022D01*
X35922021Y22354269D01*
X35728327Y22434500D01*
X35518673Y22434500D01*
X34883673Y22434500D01*
X34689978Y22354269D01*
X34544000Y22208291D01*
X34398021Y22354269D01*
X34204327Y22434500D01*
X33994673Y22434500D01*
X33359673Y22434500D01*
X33165978Y22354269D01*
X33020000Y22208291D01*
X32874021Y22354269D01*
X32680327Y22434500D01*
X32497254Y22434500D01*
X32497254Y23298005D01*
X32497254Y23522511D01*
X31846185Y24173580D01*
X31666580Y23993975D01*
X31666580Y24353185D01*
X31015511Y25004254D01*
X30791005Y25004254D01*
X30679240Y24892489D01*
X30582568Y24659100D01*
X30582567Y24406481D01*
X30679240Y24173092D01*
X30857868Y23994463D01*
X30970610Y23881722D01*
X31195116Y23881722D01*
X31666580Y24353185D01*
X31666580Y23993975D01*
X31374722Y23702116D01*
X31374722Y23477610D01*
X31487463Y23364868D01*
X31666092Y23186240D01*
X31899481Y23089567D01*
X32152100Y23089568D01*
X32385489Y23186240D01*
X32497254Y23298005D01*
X32497254Y22434500D01*
X32470673Y22434500D01*
X31835673Y22434500D01*
X31641978Y22354269D01*
X31572367Y22284659D01*
X31411198Y22445827D01*
X31177809Y22542500D01*
X31019750Y22542500D01*
X30861000Y22383750D01*
X30861000Y21463000D01*
X30881000Y21463000D01*
X30881000Y21209000D01*
X30861000Y21209000D01*
X30861000Y20351750D01*
X30861000Y20288250D01*
X30861000Y19431000D01*
X30881000Y19431000D01*
X30881000Y19177000D01*
X30861000Y19177000D01*
X30861000Y19157000D01*
X30607000Y19157000D01*
X30607000Y19177000D01*
X30607000Y19431000D01*
X30607000Y20288250D01*
X30607000Y20351750D01*
X30607000Y21209000D01*
X30607000Y21463000D01*
X30607000Y22383750D01*
X30448250Y22542500D01*
X30290191Y22542500D01*
X30056802Y22445827D01*
X29878173Y22267199D01*
X29781500Y22033810D01*
X29781500Y21781191D01*
X29781500Y21621750D01*
X29940250Y21463000D01*
X30607000Y21463000D01*
X30607000Y21209000D01*
X29940250Y21209000D01*
X29781500Y21050250D01*
X29781500Y20890809D01*
X29781500Y20638190D01*
X29878173Y20404801D01*
X29962974Y20320000D01*
X29878173Y20235199D01*
X29781500Y20001810D01*
X29781500Y19749191D01*
X29781500Y19589750D01*
X29940250Y19431000D01*
X30607000Y19431000D01*
X30607000Y19177000D01*
X29940250Y19177000D01*
X29863336Y19100087D01*
X29760000Y19203423D01*
X29760000Y19558000D01*
X29760000Y22860000D01*
X29708467Y23119076D01*
X29708466Y23119077D01*
X29561711Y23338711D01*
X28799711Y24100711D01*
X28580077Y24247466D01*
X28321000Y24299000D01*
X27749500Y24299000D01*
X27749500Y25972190D01*
X27749500Y26224809D01*
X27749500Y26384250D01*
X27749500Y26955750D01*
X27749500Y27115191D01*
X27749500Y27367810D01*
X27749500Y28512190D01*
X27749500Y28764809D01*
X27749500Y28924250D01*
X27590750Y29083000D01*
X26924000Y29083000D01*
X26924000Y28162250D01*
X27082750Y28003500D01*
X27240809Y28003500D01*
X27474198Y28100173D01*
X27652827Y28278801D01*
X27749500Y28512190D01*
X27749500Y27367810D01*
X27652827Y27601199D01*
X27474198Y27779827D01*
X27240809Y27876500D01*
X27082750Y27876500D01*
X26924000Y27717750D01*
X26924000Y26797000D01*
X27590750Y26797000D01*
X27749500Y26955750D01*
X27749500Y26384250D01*
X27590750Y26543000D01*
X26924000Y26543000D01*
X26924000Y25622250D01*
X27082750Y25463500D01*
X27240809Y25463500D01*
X27474198Y25560173D01*
X27652827Y25738801D01*
X27749500Y25972190D01*
X27749500Y24299000D01*
X25781000Y24299000D01*
X25521923Y24247466D01*
X25302289Y24100711D01*
X25246578Y24045000D01*
X25038000Y24045000D01*
X25038000Y24107827D01*
X24957769Y24301522D01*
X24809521Y24449769D01*
X24615827Y24530000D01*
X24406173Y24530000D01*
X22882173Y24530000D01*
X22688478Y24449769D01*
X22540231Y24301521D01*
X22460000Y24107827D01*
X22460000Y24045000D01*
X21949500Y24045000D01*
X21949500Y25571500D01*
X22520327Y25571500D01*
X22714022Y25651731D01*
X22783632Y25721342D01*
X22944802Y25560173D01*
X23178191Y25463500D01*
X23336250Y25463500D01*
X23495000Y25622250D01*
X23495000Y26543000D01*
X23475000Y26543000D01*
X23475000Y26797000D01*
X23495000Y26797000D01*
X23495000Y27717750D01*
X23336250Y27876500D01*
X23178191Y27876500D01*
X23050500Y27823609D01*
X23050500Y34481191D01*
X23050500Y34639250D01*
X22891750Y34798000D01*
X21971000Y34798000D01*
X21971000Y34131250D01*
X22129750Y33972500D01*
X22289191Y33972500D01*
X22541810Y33972500D01*
X22775199Y34069173D01*
X22953827Y34247802D01*
X23050500Y34481191D01*
X23050500Y27823609D01*
X22944802Y27779827D01*
X22783632Y27618659D01*
X22714021Y27688269D01*
X22520327Y27768500D01*
X22310673Y27768500D01*
X21949500Y27768500D01*
X21949500Y28092500D01*
X21897967Y28351576D01*
X21897966Y28351577D01*
X21751212Y28571211D01*
X21717000Y28605423D01*
X21717000Y34131250D01*
X21717000Y34798000D01*
X20796250Y34798000D01*
X20637500Y34639250D01*
X20637500Y34481191D01*
X20734173Y34247802D01*
X20912801Y34069173D01*
X21146190Y33972500D01*
X21398809Y33972500D01*
X21558250Y33972500D01*
X21717000Y34131250D01*
X21717000Y28605423D01*
X21207000Y29115423D01*
X21207000Y30489827D01*
X21126769Y30683522D01*
X20978521Y30831769D01*
X20784827Y30912000D01*
X20575173Y30912000D01*
X20165000Y30912000D01*
X20165000Y34258690D01*
X20165000Y34511309D01*
X20165000Y35199250D01*
X20165000Y35770750D01*
X20165000Y36458691D01*
X20165000Y36711310D01*
X20068327Y36944699D01*
X19889698Y37123327D01*
X19656309Y37220000D01*
X18065750Y37220000D01*
X17907000Y37061250D01*
X17907000Y35612000D01*
X20006250Y35612000D01*
X20165000Y35770750D01*
X20165000Y35199250D01*
X20006250Y35358000D01*
X17907000Y35358000D01*
X17907000Y33908750D01*
X18065750Y33750000D01*
X19656309Y33750000D01*
X19889698Y33846673D01*
X20068327Y34025301D01*
X20165000Y34258690D01*
X20165000Y30912000D01*
X19375173Y30912000D01*
X19181478Y30831769D01*
X19033231Y30683521D01*
X18988449Y30575409D01*
X18918327Y30744699D01*
X18739698Y30923327D01*
X18506309Y31020000D01*
X18065750Y31020000D01*
X17907000Y30861250D01*
X17907000Y29412000D01*
X17927000Y29412000D01*
X17927000Y29158000D01*
X17907000Y29158000D01*
X17907000Y27708750D01*
X18051760Y27563990D01*
X17970500Y27367810D01*
X17970500Y27115191D01*
X17970500Y26955750D01*
X18129250Y26797000D01*
X18796000Y26797000D01*
X18796000Y26817000D01*
X19050000Y26817000D01*
X19050000Y26797000D01*
X19070000Y26797000D01*
X19070000Y26543000D01*
X19050000Y26543000D01*
X19050000Y25622250D01*
X19208750Y25463500D01*
X19366809Y25463500D01*
X19600198Y25560173D01*
X19761367Y25721342D01*
X19830979Y25651731D01*
X20024673Y25571500D01*
X20234327Y25571500D01*
X20595500Y25571500D01*
X20595500Y23648422D01*
X18796000Y21848922D01*
X18796000Y25622250D01*
X18796000Y26543000D01*
X18129250Y26543000D01*
X17970500Y26384250D01*
X17970500Y26224809D01*
X17970500Y25972190D01*
X18067173Y25738801D01*
X18245802Y25560173D01*
X18479191Y25463500D01*
X18637250Y25463500D01*
X18796000Y25622250D01*
X18796000Y21848922D01*
X18063289Y21116211D01*
X17916534Y20896577D01*
X17865000Y20637500D01*
X17865000Y14038291D01*
X17777731Y13951021D01*
X17697500Y13757327D01*
X17697500Y13547673D01*
X17697500Y12404673D01*
X17777731Y12210978D01*
X17865000Y12123710D01*
X17865000Y11622000D01*
X17770173Y11622000D01*
X17653000Y11573466D01*
X17653000Y27708750D01*
X17653000Y29158000D01*
X17633000Y29158000D01*
X17633000Y29412000D01*
X17653000Y29412000D01*
X17653000Y30861250D01*
X17653000Y33908750D01*
X17653000Y35358000D01*
X17653000Y35612000D01*
X17653000Y37061250D01*
X17494250Y37220000D01*
X15903691Y37220000D01*
X15670302Y37123327D01*
X15491673Y36944699D01*
X15395000Y36711310D01*
X15395000Y36458691D01*
X15395000Y35770750D01*
X15553750Y35612000D01*
X17653000Y35612000D01*
X17653000Y35358000D01*
X15553750Y35358000D01*
X15395000Y35199250D01*
X15395000Y34511309D01*
X15395000Y34258690D01*
X15491673Y34025301D01*
X15670302Y33846673D01*
X15903691Y33750000D01*
X17494250Y33750000D01*
X17653000Y33908750D01*
X17653000Y30861250D01*
X17494250Y31020000D01*
X17053691Y31020000D01*
X16820302Y30923327D01*
X16641673Y30744699D01*
X16571550Y30575410D01*
X16526769Y30683522D01*
X16378521Y30831769D01*
X16184827Y30912000D01*
X15975173Y30912000D01*
X14775173Y30912000D01*
X14581478Y30831769D01*
X14433231Y30683521D01*
X14353000Y30489827D01*
X14353000Y30280173D01*
X14353000Y28080173D01*
X14433231Y27886478D01*
X14436000Y27883710D01*
X14436000Y27627291D01*
X14348731Y27540021D01*
X14270882Y27352080D01*
X13377000Y27352080D01*
X13377000Y33020000D01*
X13325466Y33279076D01*
X13325466Y33279077D01*
X13178711Y33498711D01*
X12538631Y34138791D01*
X12318997Y34285546D01*
X12059920Y34337080D01*
X11786820Y34337080D01*
X11786820Y34565007D01*
X11706589Y34758702D01*
X11558341Y34906949D01*
X11364647Y34987180D01*
X11154993Y34987180D01*
X8955353Y34987180D01*
X8761658Y34906949D01*
X8613411Y34758701D01*
X8533180Y34565007D01*
X8533180Y34355353D01*
X8533180Y32755153D01*
X8613411Y32561458D01*
X8761659Y32413211D01*
X8955353Y32332980D01*
X9165007Y32332980D01*
X11364647Y32332980D01*
X11558342Y32413211D01*
X11706589Y32561459D01*
X11786820Y32755153D01*
X11786820Y32964807D01*
X11786820Y32975758D01*
X12023000Y32739578D01*
X12023000Y27352080D01*
X11786820Y27352080D01*
X11786820Y27580007D01*
X11786820Y29569993D01*
X11786820Y29779647D01*
X11786820Y31379847D01*
X11706589Y31573542D01*
X11558341Y31721789D01*
X11364647Y31802020D01*
X11154993Y31802020D01*
X8955353Y31802020D01*
X8761658Y31721789D01*
X8613411Y31573541D01*
X8533180Y31379847D01*
X8533180Y31170193D01*
X8533180Y31151920D01*
X7905502Y31151920D01*
X6945294Y32112128D01*
X6945294Y36207892D01*
X6944705Y37455072D01*
X6468564Y38604579D01*
X6045880Y38886275D01*
X5866275Y38706670D01*
X5866275Y39065880D01*
X5584579Y39488564D01*
X4432108Y39965294D01*
X3184928Y39964705D01*
X2035421Y39488564D01*
X1753725Y39065880D01*
X3810000Y37009605D01*
X5866275Y39065880D01*
X5866275Y38706670D01*
X3989605Y36830000D01*
X6045880Y34773725D01*
X6468564Y35055421D01*
X6945294Y36207892D01*
X6945294Y32112128D01*
X6828711Y32228711D01*
X6609077Y32375466D01*
X6350000Y32427000D01*
X5866275Y32427000D01*
X5866275Y34594120D01*
X3810000Y36650395D01*
X3630395Y36470790D01*
X3630395Y36830000D01*
X1574120Y38886275D01*
X1151436Y38604579D01*
X674706Y37452108D01*
X675295Y36204928D01*
X1151436Y35055421D01*
X1574120Y34773725D01*
X3630395Y36830000D01*
X3630395Y36470790D01*
X1753725Y34594120D01*
X2035421Y34171436D01*
X3187892Y33694706D01*
X4435072Y33695295D01*
X5584579Y34171436D01*
X5866275Y34594120D01*
X5866275Y32427000D01*
X5661873Y32427000D01*
X5509412Y32655174D01*
X5094115Y32932667D01*
X4604238Y33030110D01*
X3015762Y33030110D01*
X2525885Y32932667D01*
X2110588Y32655174D01*
X1833095Y32239877D01*
X1735652Y31750000D01*
X1833095Y31260123D01*
X2110588Y30844826D01*
X2525885Y30567333D01*
X2704471Y30531810D01*
X2407081Y30443846D01*
X1984276Y30101740D01*
X1724573Y29623875D01*
X1710217Y29551674D01*
X1832838Y29337000D01*
X3683000Y29337000D01*
X3683000Y29357000D01*
X3937000Y29357000D01*
X3937000Y29337000D01*
X5787162Y29337000D01*
X5909783Y29551674D01*
X5895427Y29623875D01*
X5635724Y30101740D01*
X5212919Y30443846D01*
X4915528Y30531810D01*
X5094115Y30567333D01*
X5509412Y30844826D01*
X5661873Y31073000D01*
X6069577Y31073000D01*
X7146368Y29996209D01*
X7146369Y29996209D01*
X7256186Y29922832D01*
X7366003Y29849454D01*
X7366004Y29849454D01*
X7625080Y29797920D01*
X8533180Y29797920D01*
X8533180Y29569993D01*
X8613411Y29376298D01*
X8761659Y29228051D01*
X8955353Y29147820D01*
X9165007Y29147820D01*
X11364647Y29147820D01*
X11558342Y29228051D01*
X11706589Y29376299D01*
X11786820Y29569993D01*
X11786820Y27580007D01*
X11706589Y27773702D01*
X11558341Y27921949D01*
X11364647Y28002180D01*
X11154993Y28002180D01*
X8955353Y28002180D01*
X8761658Y27921949D01*
X8613411Y27773701D01*
X8533180Y27580007D01*
X8533180Y27370353D01*
X8533180Y25770153D01*
X8613411Y25576458D01*
X8761659Y25428211D01*
X8955353Y25347980D01*
X9165007Y25347980D01*
X11364647Y25347980D01*
X11558342Y25428211D01*
X11706589Y25576459D01*
X11786820Y25770153D01*
X11786820Y25979807D01*
X11786820Y25998080D01*
X12700000Y25998080D01*
X14268500Y25998080D01*
X14268500Y25993673D01*
X14348731Y25799978D01*
X14496979Y25651731D01*
X14690673Y25571500D01*
X14900327Y25571500D01*
X15535327Y25571500D01*
X15729022Y25651731D01*
X15798632Y25721342D01*
X15959802Y25560173D01*
X16193191Y25463500D01*
X16351250Y25463500D01*
X16510000Y25622250D01*
X16510000Y26543000D01*
X16490000Y26543000D01*
X16490000Y26797000D01*
X16510000Y26797000D01*
X16510000Y26817000D01*
X16764000Y26817000D01*
X16764000Y26797000D01*
X17430750Y26797000D01*
X17589500Y26955750D01*
X17589500Y27115191D01*
X17589500Y27367810D01*
X17508239Y27563990D01*
X17653000Y27708750D01*
X17653000Y11573466D01*
X17589500Y11547163D01*
X17589500Y25972190D01*
X17589500Y26224809D01*
X17589500Y26384250D01*
X17430750Y26543000D01*
X16764000Y26543000D01*
X16764000Y25622250D01*
X16922750Y25463500D01*
X17080809Y25463500D01*
X17314198Y25560173D01*
X17492827Y25738801D01*
X17589500Y25972190D01*
X17589500Y11547163D01*
X17576478Y11541769D01*
X17428231Y11393521D01*
X17348000Y11199827D01*
X17348000Y10990173D01*
X17348000Y10390173D01*
X17428231Y10196478D01*
X17464709Y10160000D01*
X17428231Y10123521D01*
X17348000Y9929827D01*
X17348000Y9720173D01*
X17348000Y9120173D01*
X17411509Y8966848D01*
X15640000Y10738357D01*
X15640000Y15008173D01*
X15640000Y15217827D01*
X15640000Y16487827D01*
X15559769Y16681522D01*
X15411521Y16829769D01*
X15217827Y16910000D01*
X15008173Y16910000D01*
X13484173Y16910000D01*
X13290478Y16829769D01*
X13142231Y16681521D01*
X13062000Y16487827D01*
X13062000Y16278173D01*
X13062000Y15008173D01*
X13142231Y14814478D01*
X13290479Y14666231D01*
X13484173Y14586000D01*
X13693827Y14586000D01*
X15217827Y14586000D01*
X15411522Y14666231D01*
X15559769Y14814479D01*
X15640000Y15008173D01*
X15640000Y10738357D01*
X15157678Y11220678D01*
X14962375Y11351175D01*
X14732000Y11397000D01*
X14318290Y11397000D01*
X14173521Y11541769D01*
X13979827Y11622000D01*
X13770173Y11622000D01*
X12540000Y11622000D01*
X12540000Y12446000D01*
X12501777Y12638154D01*
X12494175Y12676375D01*
X12494175Y12676376D01*
X12363678Y12871678D01*
X12109678Y13125678D01*
X11914375Y13256175D01*
X11766500Y13285590D01*
X11766500Y13376327D01*
X11686269Y13570022D01*
X11661614Y13594677D01*
X11748856Y13804778D01*
X11749143Y14133779D01*
X11661699Y14345410D01*
X11686269Y14369979D01*
X11766500Y14563673D01*
X11766500Y14773327D01*
X11766500Y15916327D01*
X11686269Y16110022D01*
X11538021Y16258269D01*
X11344327Y16338500D01*
X11134673Y16338500D01*
X10499673Y16338500D01*
X10305978Y16258269D01*
X10160000Y16112291D01*
X10014021Y16258269D01*
X9820327Y16338500D01*
X9610673Y16338500D01*
X8975673Y16338500D01*
X8781978Y16258269D01*
X8689032Y16165324D01*
X8095000Y16759356D01*
X8095000Y17348205D01*
X8273544Y17228905D01*
X8273545Y17228905D01*
X8311766Y17221303D01*
X8503920Y17183080D01*
X8533180Y17183080D01*
X8533180Y16880153D01*
X8613411Y16686458D01*
X8761659Y16538211D01*
X8955353Y16457980D01*
X9165007Y16457980D01*
X11364647Y16457980D01*
X11558342Y16538211D01*
X11706589Y16686459D01*
X11786820Y16880153D01*
X11786820Y17089807D01*
X11786820Y17183080D01*
X11943080Y17183080D01*
X12173455Y17228905D01*
X12368758Y17359402D01*
X12822356Y17813000D01*
X13062000Y17813000D01*
X13062000Y17675173D01*
X13142231Y17481478D01*
X13290479Y17333231D01*
X13484173Y17253000D01*
X13693827Y17253000D01*
X15217827Y17253000D01*
X15411522Y17333231D01*
X15559769Y17481479D01*
X15640000Y17675173D01*
X15640000Y17884827D01*
X15640000Y19154827D01*
X15559769Y19348522D01*
X15411521Y19496769D01*
X15217827Y19577000D01*
X15008173Y19577000D01*
X13484173Y19577000D01*
X13290478Y19496769D01*
X13142231Y19348521D01*
X13062000Y19154827D01*
X13062000Y19017000D01*
X12573000Y19017000D01*
X12380846Y18978778D01*
X12342624Y18971175D01*
X12147321Y18840678D01*
X11786820Y18480177D01*
X11786820Y18690007D01*
X11706589Y18883702D01*
X11558341Y19031949D01*
X11364647Y19112180D01*
X11154993Y19112180D01*
X8955353Y19112180D01*
X8761658Y19031949D01*
X8613411Y18883701D01*
X8603000Y18858567D01*
X8603000Y20511433D01*
X8613411Y20486298D01*
X8761659Y20338051D01*
X8955353Y20257820D01*
X9165007Y20257820D01*
X11364647Y20257820D01*
X11558342Y20338051D01*
X11706589Y20486299D01*
X11786820Y20679993D01*
X11786820Y20889647D01*
X11786820Y20889824D01*
X12147321Y20529322D01*
X12147322Y20529322D01*
X12342624Y20398825D01*
X12342625Y20398825D01*
X12380846Y20391223D01*
X12573000Y20353000D01*
X13062000Y20353000D01*
X13062000Y20215173D01*
X13142231Y20021478D01*
X13290479Y19873231D01*
X13484173Y19793000D01*
X13693827Y19793000D01*
X15217827Y19793000D01*
X15411522Y19873231D01*
X15559769Y20021479D01*
X15640000Y20215173D01*
X15640000Y20424827D01*
X15640000Y21694827D01*
X15640000Y22755173D01*
X15640000Y22964827D01*
X15640000Y24234827D01*
X15559769Y24428522D01*
X15411521Y24576769D01*
X15217827Y24657000D01*
X15008173Y24657000D01*
X13484173Y24657000D01*
X13290478Y24576769D01*
X13142231Y24428521D01*
X13062000Y24234827D01*
X13062000Y24025173D01*
X13062000Y22755173D01*
X13142231Y22561478D01*
X13290479Y22413231D01*
X13484173Y22333000D01*
X13693827Y22333000D01*
X15217827Y22333000D01*
X15411522Y22413231D01*
X15559769Y22561479D01*
X15640000Y22755173D01*
X15640000Y21694827D01*
X15559769Y21888522D01*
X15411521Y22036769D01*
X15217827Y22117000D01*
X15008173Y22117000D01*
X13484173Y22117000D01*
X13290478Y22036769D01*
X13142231Y21888521D01*
X13062000Y21694827D01*
X13062000Y21557000D01*
X12822356Y21557000D01*
X12368758Y22010598D01*
X12173455Y22141095D01*
X11943080Y22186920D01*
X11786820Y22186920D01*
X11786820Y22489847D01*
X11706589Y22683542D01*
X11558341Y22831789D01*
X11468425Y22869034D01*
X11478175Y22883625D01*
X11522249Y23105198D01*
X11538022Y23111731D01*
X11686269Y23259979D01*
X11766500Y23453673D01*
X11766500Y23663327D01*
X11766500Y24806327D01*
X11686269Y25000022D01*
X11538021Y25148269D01*
X11344327Y25228500D01*
X11134673Y25228500D01*
X10499673Y25228500D01*
X10305978Y25148269D01*
X10160000Y25002291D01*
X10014021Y25148269D01*
X9820327Y25228500D01*
X9610673Y25228500D01*
X8975673Y25228500D01*
X8781978Y25148269D01*
X8633731Y25000021D01*
X8553500Y24806327D01*
X8553500Y24732000D01*
X8504356Y24732000D01*
X6140678Y27095678D01*
X5945375Y27226175D01*
X5715000Y27272000D01*
X5711986Y27272000D01*
X5509412Y27575174D01*
X5094115Y27852667D01*
X4915528Y27888191D01*
X5212919Y27976154D01*
X5635724Y28318260D01*
X5895427Y28796125D01*
X5909783Y28868326D01*
X5787162Y29083000D01*
X3937000Y29083000D01*
X3937000Y29063000D01*
X3683000Y29063000D01*
X3683000Y29083000D01*
X1832838Y29083000D01*
X1710217Y28868326D01*
X1724573Y28796125D01*
X1984276Y28318260D01*
X2407081Y27976154D01*
X2704471Y27888191D01*
X2525885Y27852667D01*
X2110588Y27575174D01*
X1833095Y27159877D01*
X1735652Y26670000D01*
X1833095Y26180123D01*
X2110588Y25764826D01*
X2525885Y25487333D01*
X2964935Y25400000D01*
X2525885Y25312667D01*
X2110588Y25035174D01*
X1833095Y24619877D01*
X1735652Y24130000D01*
X1833095Y23640123D01*
X2110588Y23224826D01*
X2525885Y22947333D01*
X2964935Y22860000D01*
X2525885Y22772667D01*
X2110588Y22495174D01*
X1833095Y22079877D01*
X1735652Y21590000D01*
X1833095Y21100123D01*
X2110588Y20684826D01*
X2525885Y20407333D01*
X2964935Y20320000D01*
X2525885Y20232667D01*
X2110588Y19955174D01*
X1833095Y19539877D01*
X1735652Y19050000D01*
X1833095Y18560123D01*
X2110588Y18144826D01*
X2525885Y17867333D01*
X2964935Y17780000D01*
X2525885Y17692667D01*
X2110588Y17415174D01*
X1833095Y16999877D01*
X1735652Y16510000D01*
X1833095Y16020123D01*
X2110588Y15604826D01*
X2525885Y15327333D01*
X2964935Y15240000D01*
X2525885Y15152667D01*
X2110588Y14875174D01*
X1833095Y14459877D01*
X1735652Y13970000D01*
X1833095Y13480123D01*
X2110588Y13064826D01*
X2525885Y12787333D01*
X2964935Y12700000D01*
X2525885Y12612667D01*
X2110588Y12335174D01*
X1833095Y11919877D01*
X1735652Y11430000D01*
X1833095Y10940123D01*
X2110588Y10524826D01*
X2525885Y10247333D01*
X2964935Y10160000D01*
X2525885Y10072667D01*
X2110588Y9795174D01*
X1833095Y9379877D01*
X1735652Y8890000D01*
X1833095Y8400123D01*
X2110588Y7984826D01*
X2525885Y7707333D01*
X3015762Y7609890D01*
X4492754Y7609890D01*
X5961518Y6141126D01*
X5866273Y6045882D01*
X5584579Y6468564D01*
X4432108Y6945294D01*
X3184928Y6944705D01*
X2035421Y6468564D01*
X1753725Y6045880D01*
X3810000Y3989605D01*
X3824142Y4003748D01*
X4003747Y3824143D01*
X3989605Y3810000D01*
X6045880Y1753725D01*
X6468564Y2035421D01*
X6945294Y3187892D01*
X6944705Y4435072D01*
X6468564Y5584579D01*
X6045881Y5866274D01*
X6141126Y5961518D01*
X7780000Y4322644D01*
X7780000Y2921000D01*
X7825825Y2690625D01*
X7956322Y2495322D01*
X8337321Y2114322D01*
X8337322Y2114322D01*
X8532624Y1983825D01*
X8532625Y1983825D01*
X8553500Y1979673D01*
X8553500Y1863673D01*
X8633731Y1669978D01*
X8781979Y1521731D01*
X8975673Y1441500D01*
X9185327Y1441500D01*
X9820327Y1441500D01*
X10014022Y1521731D01*
X10159999Y1667710D01*
X10305979Y1521731D01*
X10499673Y1441500D01*
X10709327Y1441500D01*
X11344327Y1441500D01*
X11538022Y1521731D01*
X11686269Y1669979D01*
X11766500Y1863673D01*
X11766500Y2054736D01*
X11855678Y2114322D01*
X12146665Y2405309D01*
X12215301Y2336673D01*
X12448690Y2240000D01*
X12701309Y2240000D01*
X12939250Y2240000D01*
X13098000Y2398750D01*
X13098000Y3048000D01*
X13078000Y3048000D01*
X13078000Y3302000D01*
X13098000Y3302000D01*
X13098000Y3322000D01*
X13352000Y3322000D01*
X13352000Y3302000D01*
X14351250Y3302000D01*
X14510000Y3460750D01*
X14510000Y3601309D01*
X14413327Y3834698D01*
X14345135Y3902891D01*
X14402000Y4040173D01*
X14402000Y4249827D01*
X14402000Y4849827D01*
X14321769Y5043522D01*
X14285290Y5080001D01*
X14318290Y5113000D01*
X14609643Y5113000D01*
X16973321Y2749322D01*
X16973322Y2749322D01*
X17168624Y2618825D01*
X17168625Y2618825D01*
X17206846Y2611223D01*
X17399000Y2573000D01*
X17431709Y2573000D01*
X17576479Y2428231D01*
X17770173Y2348000D01*
X17979827Y2348000D01*
X19279827Y2348000D01*
X19473522Y2428231D01*
X19621769Y2576479D01*
X19702000Y2770173D01*
X19702000Y2979827D01*
X19702000Y3579827D01*
X19621769Y3773522D01*
X19585290Y3810001D01*
X19621769Y3846479D01*
X19702000Y4040173D01*
X19702000Y4118644D01*
X20237500Y4654144D01*
X20237500Y4530673D01*
X20317731Y4336978D01*
X20465979Y4188731D01*
X20613803Y4127501D01*
X20465978Y4066269D01*
X20317731Y3918021D01*
X20237500Y3724327D01*
X20237500Y3514673D01*
X20237500Y2879673D01*
X20317731Y2685978D01*
X20387341Y2616368D01*
X20226173Y2455198D01*
X20129500Y2221809D01*
X20129500Y2063750D01*
X20288250Y1905000D01*
X21209000Y1905000D01*
X21209000Y1925000D01*
X21463000Y1925000D01*
X21463000Y1905000D01*
X22383750Y1905000D01*
X22542500Y2063750D01*
X22542500Y2221809D01*
X22445827Y2455198D01*
X22284658Y2616368D01*
X22293290Y2625000D01*
X22325578Y2625000D01*
X23270289Y1680289D01*
X23489923Y1533534D01*
X23489924Y1533534D01*
X23749000Y1482000D01*
X40640000Y1482000D01*
X51181000Y1482000D01*
X51440076Y1533534D01*
X51440077Y1533534D01*
X51659711Y1680289D01*
X64359711Y14380289D01*
X64506466Y14599923D01*
X64506466Y14599924D01*
X64557999Y14859000D01*
X64558000Y14859000D01*
X64558000Y15240000D01*
X64558000Y26035000D01*
X64506466Y26294076D01*
X64506466Y26294077D01*
X64433088Y26403894D01*
X64359711Y26513711D01*
X64359711Y26513712D01*
X64286275Y26587148D01*
X64286275Y34594120D01*
X62230000Y36650395D01*
X62050395Y36470790D01*
X62050395Y36830000D01*
X59994120Y38886275D01*
X59571436Y38604579D01*
X59094706Y37452108D01*
X59095295Y36204928D01*
X59571436Y35055421D01*
X59994120Y34773725D01*
X62050395Y36830000D01*
X62050395Y36470790D01*
X60173725Y34594120D01*
X60455421Y34171436D01*
X61607892Y33694706D01*
X62855072Y33695295D01*
X64004579Y34171436D01*
X64286275Y34594120D01*
X64286275Y26587148D01*
X53564711Y37308711D01*
X53345077Y37455466D01*
X53086000Y37507000D01*
X51905350Y37507000D01*
X51885857Y37554177D01*
X51526071Y37914592D01*
X51055747Y38109887D01*
X50546487Y38110332D01*
X50075823Y37915857D01*
X49715408Y37556071D01*
X49529784Y37109040D01*
X49345857Y37554177D01*
X48986071Y37914592D01*
X48515747Y38109887D01*
X48006487Y38110332D01*
X47535823Y37915857D01*
X47175408Y37556071D01*
X46989784Y37109040D01*
X46805857Y37554177D01*
X46446071Y37914592D01*
X45975747Y38109887D01*
X45466487Y38110332D01*
X44995823Y37915857D01*
X44635408Y37556071D01*
X44449784Y37109040D01*
X44265857Y37554177D01*
X43906071Y37914592D01*
X43435747Y38109887D01*
X42926487Y38110332D01*
X42455823Y37915857D01*
X42095408Y37556071D01*
X41909784Y37109040D01*
X41725857Y37554177D01*
X41366071Y37914592D01*
X40895747Y38109887D01*
X40386487Y38110332D01*
X39915823Y37915857D01*
X39555408Y37556071D01*
X39360113Y37085747D01*
X39359668Y36576487D01*
X39554143Y36105823D01*
X39913929Y35745408D01*
X40203866Y35625016D01*
X39914207Y35505035D01*
X39845834Y35263772D01*
X40640000Y34469605D01*
X40654142Y34483748D01*
X40833747Y34304143D01*
X40819605Y34290000D01*
X40833747Y34275858D01*
X40654142Y34096253D01*
X40640000Y34110395D01*
X40460395Y33930790D01*
X40460395Y34290000D01*
X39666228Y35084166D01*
X39424965Y35015793D01*
X39239704Y34495572D01*
X39267627Y33944054D01*
X39424965Y33564207D01*
X39666228Y33495834D01*
X40460395Y34290000D01*
X40460395Y33930790D01*
X39845834Y33316228D01*
X39914207Y33074965D01*
X40434428Y32889704D01*
X40985946Y32917627D01*
X41308000Y33051027D01*
X41308000Y23622000D01*
X41353825Y23391625D01*
X41484322Y23196322D01*
X41628619Y23052025D01*
X41492221Y23052143D01*
X41188154Y22926505D01*
X40955312Y22694070D01*
X40829144Y22390222D01*
X40828857Y22061221D01*
X40876051Y21947002D01*
X39005219Y21947002D01*
X36600433Y24351789D01*
X36600433Y27790519D01*
X36503760Y28023908D01*
X36325132Y28202537D01*
X36212390Y28315278D01*
X35987884Y28315278D01*
X35516420Y27843815D01*
X36167489Y27192746D01*
X36391995Y27192746D01*
X36503760Y27304511D01*
X36600432Y27537900D01*
X36600433Y27790519D01*
X36600433Y24351789D01*
X34999367Y25952855D01*
X35334572Y26288058D01*
X35414803Y26481753D01*
X35414803Y26580198D01*
X35642730Y26580198D01*
X35876119Y26676870D01*
X35987884Y26788635D01*
X35987884Y27013141D01*
X35336815Y27664210D01*
X35322672Y27650068D01*
X35143067Y27829673D01*
X35157210Y27843815D01*
X35143067Y27857958D01*
X35322672Y28037563D01*
X35336815Y28023420D01*
X35808278Y28494884D01*
X35808278Y28719390D01*
X35695537Y28832132D01*
X35516908Y29010760D01*
X35283519Y29107433D01*
X35115500Y29107433D01*
X35115500Y29145809D01*
X35115500Y29305250D01*
X34956750Y29464000D01*
X34290000Y29464000D01*
X34290000Y28543250D01*
X34338366Y28494884D01*
X34281635Y28494884D01*
X34169870Y28383119D01*
X34073198Y28149730D01*
X34073197Y27921803D01*
X33974753Y27921803D01*
X33781058Y27841572D01*
X33632811Y27693324D01*
X33445854Y27506368D01*
X32459722Y28492500D01*
X33061327Y28492500D01*
X33255022Y28572731D01*
X33324632Y28642342D01*
X33485802Y28481173D01*
X33719191Y28384500D01*
X33877250Y28384500D01*
X34036000Y28543250D01*
X34036000Y29464000D01*
X34016000Y29464000D01*
X34016000Y29718000D01*
X34036000Y29718000D01*
X34036000Y29738000D01*
X34290000Y29738000D01*
X34290000Y29718000D01*
X34956750Y29718000D01*
X35115500Y29876750D01*
X35115500Y30036191D01*
X35115500Y30288810D01*
X35018827Y30522199D01*
X34844870Y30696155D01*
X34958522Y30743231D01*
X35106769Y30891479D01*
X35187000Y31085173D01*
X35187000Y31294827D01*
X35187000Y33494827D01*
X35106769Y33688522D01*
X34958521Y33836769D01*
X34764827Y33917000D01*
X34555173Y33917000D01*
X33420000Y33917000D01*
X33420000Y35963000D01*
X34764827Y35963000D01*
X34958522Y36043231D01*
X35106769Y36191479D01*
X35187000Y36385173D01*
X35187000Y36594827D01*
X35187000Y38794827D01*
X35106769Y38988522D01*
X34958521Y39136769D01*
X34764827Y39217000D01*
X34555173Y39217000D01*
X33420000Y39217000D01*
X33420000Y40063000D01*
X65463000Y40063000D01*
X65463000Y577000D01*
M02*
